  0
SECTION
  2
BLOCKS
  0
ENDSEC
  0
SECTION
  2
ENTITIES
  0
LINE
  8
0
 10
128.587
 20
-47.625
 11
119.062
 21
-47.625
  0
LINE
  8
0
 10
119.062
 20
-47.625
 11
119.062
 21
-28.575
  0
LINE
  8
0
 10
119.062
 20
-28.575
 11
114.3
 21
-28.575
  0
LINE
  8
0
 10
114.3
 20
-28.575
 11
114.3
 21
-9.52499
  0
LINE
  8
0
 10
114.3
 20
-9.52499
 11
123.825
 21
-9.52499
  0
LINE
  8
0
 10
123.825
 20
-9.52499
 11
123.825
 21
9.52499
  0
LINE
  8
0
 10
123.825
 20
9.52499
 11
31.575
 21
9.52499
  0
LINE
  8
0
 10
31.575
 20
9.52499
 11
31.575
 21
13.525
  0
LINE
  8
0
 10
31.575
 20
13.525
 11
25.575
 21
13.525
  0
LINE
  8
0
 10
25.575
 20
13.525
 11
25.575
 21
9.52499
  0
LINE
  8
0
 10
25.575
 20
9.52499
 11
-9.52499
 21
9.52499
  0
LINE
  8
0
 10
-9.52499
 20
9.52499
 11
-9.52499
 21
8.52499
  0
LINE
  8
0
 10
-9.52499
 20
8.52499
 11
-13.525
 21
8.52499
  0
LINE
  8
0
 10
-13.525
 20
8.52499
 11
-13.525
 21
-9.47499
  0
LINE
  8
0
 10
-13.525
 20
-9.47499
 11
-9.52499
 21
-9.47499
  0
LINE
  8
0
 10
-9.52499
 20
-9.47499
 11
-9.52499
 21
-66.675
  0
LINE
  8
0
 10
-9.52499
 20
-66.675
 11
19.05
 21
-66.675
  0
LINE
  8
0
 10
19.05
 20
-66.675
 11
19.05
 21
-85.725
  0
LINE
  8
0
 10
19.05
 20
-85.725
 11
128.587
 21
-85.725
  0
LINE
  8
0
 10
128.587
 20
-85.725
 11
128.587
 21
-47.625
  0
LINE
  8
0
 10
36.952
 20
-12.2966
 11
35.9787
 21
-11.6463
  0
LINE
  8
0
 10
35.9787
 20
-11.6463
 11
35.3284
 21
-10.673
  0
LINE
  8
0
 10
35.3284
 20
-10.673
 11
35.1
 21
-9.52499
  0
LINE
  8
0
 10
35.1
 20
-9.52499
 11
35.3284
 21
-8.37694
  0
LINE
  8
0
 10
35.3284
 20
-8.37694
 11
35.9787
 21
-7.40367
  0
LINE
  8
0
 10
35.9787
 20
-7.40367
 11
36.5828
 21
-7
  0
LINE
  8
0
 10
36.5828
 20
-7
 11
31.1
 21
-7
  0
LINE
  8
0
 10
31.1
 20
-7
 11
31.1
 21
-4.97499
  0
LINE
  8
0
 10
31.1
 20
-4.97499
 11
26.05
 21
-4.97499
  0
LINE
  8
0
 10
26.05
 20
-4.97499
 11
26.05
 21
-7
  0
LINE
  8
0
 10
26.05
 20
-7
 11
12.05
 21
-7
  0
LINE
  8
0
 10
12.05
 20
-7
 11
12.05
 21
7
  0
LINE
  8
0
 10
12.05
 20
7
 11
26.05
 21
7
  0
LINE
  8
0
 10
26.05
 20
7
 11
26.05
 21
-1.47499
  0
LINE
  8
0
 10
26.05
 20
-1.47499
 11
31.1
 21
-1.47499
  0
LINE
  8
0
 10
31.1
 20
-1.47499
 11
31.1
 21
7
  0
LINE
  8
0
 10
31.1
 20
7
 11
45.1
 21
7
  0
LINE
  8
0
 10
45.1
 20
7
 11
45.1
 21
-7
  0
LINE
  8
0
 10
45.1
 20
-7
 11
39.6172
 21
-7
  0
LINE
  8
0
 10
39.6172
 20
-7
 11
40.2213
 21
-7.40367
  0
LINE
  8
0
 10
40.2213
 20
-7.40367
 11
40.8716
 21
-8.37694
  0
LINE
  8
0
 10
40.8716
 20
-8.37694
 11
41.1
 21
-9.52499
  0
LINE
  8
0
 10
41.1
 20
-9.52499
 11
40.8716
 21
-10.673
  0
LINE
  8
0
 10
40.8716
 20
-10.673
 11
40.2213
 21
-11.6463
  0
LINE
  8
0
 10
40.2213
 20
-11.6463
 11
39.248
 21
-12.2966
  0
LINE
  8
0
 10
39.248
 20
-12.2966
 11
38.1
 21
-12.525
  0
LINE
  8
0
 10
38.1
 20
-12.525
 11
36.952
 21
-12.2966
  0
LINE
  8
0
 10
69.2
 20
-7
 11
69.2
 21
7
  0
LINE
  8
0
 10
69.2
 20
7
 11
83.2
 21
7
  0
LINE
  8
0
 10
83.2
 20
7
 11
83.2
 21
-7
  0
LINE
  8
0
 10
83.2
 20
-7
 11
69.2
 21
-7
  0
LINE
  8
0
 10
94.1019
 20
-12.2966
 11
93.1287
 21
-11.6463
  0
LINE
  8
0
 10
93.1287
 20
-11.6463
 11
92.4784
 21
-10.673
  0
LINE
  8
0
 10
92.4784
 20
-10.673
 11
92.25
 21
-9.52499
  0
LINE
  8
0
 10
92.25
 20
-9.52499
 11
92.4784
 21
-8.37694
  0
LINE
  8
0
 10
92.4784
 20
-8.37694
 11
93.1287
 21
-7.40367
  0
LINE
  8
0
 10
93.1287
 20
-7.40367
 11
93.7328
 21
-7
  0
LINE
  8
0
 10
93.7328
 20
-7
 11
88.25
 21
-7
  0
LINE
  8
0
 10
88.25
 20
-7
 11
88.25
 21
7
  0
LINE
  8
0
 10
88.25
 20
7
 11
102.25
 21
7
  0
LINE
  8
0
 10
102.25
 20
7
 11
102.25
 21
-7
  0
LINE
  8
0
 10
102.25
 20
-7
 11
96.7672
 21
-7
  0
LINE
  8
0
 10
96.7672
 20
-7
 11
97.3713
 21
-7.40367
  0
LINE
  8
0
 10
97.3713
 20
-7.40367
 11
98.0216
 21
-8.37694
  0
LINE
  8
0
 10
98.0216
 20
-8.37694
 11
98.25
 21
-9.52499
  0
LINE
  8
0
 10
98.25
 20
-9.52499
 11
98.0216
 21
-10.673
  0
LINE
  8
0
 10
98.0216
 20
-10.673
 11
97.3713
 21
-11.6463
  0
LINE
  8
0
 10
97.3713
 20
-11.6463
 11
96.398
 21
-12.2966
  0
LINE
  8
0
 10
96.398
 20
-12.2966
 11
95.25
 21
-12.525
  0
LINE
  8
0
 10
95.25
 20
-12.525
 11
94.1019
 21
-12.2966
  0
LINE
  8
0
 10
107.3
 20
-7
 11
107.3
 21
7
  0
LINE
  8
0
 10
107.3
 20
7
 11
121.3
 21
7
  0
LINE
  8
0
 10
121.3
 20
7
 11
121.3
 21
-7
  0
LINE
  8
0
 10
121.3
 20
-7
 11
107.3
 21
-7
  0
LINE
  8
0
 10
50.15
 20
-7
 11
50.15
 21
7
  0
LINE
  8
0
 10
50.15
 20
7
 11
64.15
 21
7
  0
LINE
  8
0
 10
64.15
 20
7
 11
64.15
 21
-7
  0
LINE
  8
0
 10
64.15
 20
-7
 11
50.15
 21
-7
  0
LINE
  8
0
 10
-7
 20
-7
 11
-7
 21
7
  0
LINE
  8
0
 10
-7
 20
7
 11
7
 21
7
  0
LINE
  8
0
 10
7
 20
7
 11
7
 21
-7
  0
LINE
  8
0
 10
7
 20
-7
 11
-7
 21
-7
  0
LINE
  8
0
 10
21.575
 20
-26.05
 11
21.575
 21
-12.05
  0
LINE
  8
0
 10
21.575
 20
-12.05
 11
35.575
 21
-12.05
  0
LINE
  8
0
 10
35.575
 20
-12.05
 11
35.575
 21
-26.05
  0
LINE
  8
0
 10
35.575
 20
-26.05
 11
21.575
 21
-26.05
  0
LINE
  8
0
 10
78.725
 20
-26.05
 11
78.725
 21
-12.05
  0
LINE
  8
0
 10
78.725
 20
-12.05
 11
92.725
 21
-12.05
  0
LINE
  8
0
 10
92.725
 20
-12.05
 11
92.725
 21
-26.05
  0
LINE
  8
0
 10
92.725
 20
-26.05
 11
78.725
 21
-26.05
  0
LINE
  8
0
 10
-2.23749
 20
-26.05
 11
-2.23749
 21
-12.05
  0
LINE
  8
0
 10
-2.23749
 20
-12.05
 11
11.7625
 21
-12.05
  0
LINE
  8
0
 10
11.7625
 20
-12.05
 11
11.7625
 21
-26.05
  0
LINE
  8
0
 10
11.7625
 20
-26.05
 11
-2.23749
 21
-26.05
  0
LINE
  8
0
 10
40.625
 20
-26.05
 11
40.625
 21
-12.05
  0
LINE
  8
0
 10
40.625
 20
-12.05
 11
54.625
 21
-12.05
  0
LINE
  8
0
 10
54.625
 20
-12.05
 11
54.625
 21
-26.05
  0
LINE
  8
0
 10
54.625
 20
-26.05
 11
40.625
 21
-26.05
  0
LINE
  8
0
 10
59.675
 20
-26.05
 11
59.675
 21
-12.05
  0
LINE
  8
0
 10
59.675
 20
-12.05
 11
73.675
 21
-12.05
  0
LINE
  8
0
 10
73.675
 20
-12.05
 11
73.675
 21
-26.05
  0
LINE
  8
0
 10
73.675
 20
-26.05
 11
59.675
 21
-26.05
  0
LINE
  8
0
 10
98.8644
 20
-31.3466
 11
97.8912
 21
-30.6963
  0
LINE
  8
0
 10
97.8912
 20
-30.6963
 11
97.2409
 21
-29.723
  0
LINE
  8
0
 10
97.2409
 20
-29.723
 11
97.0125
 21
-28.575
  0
LINE
  8
0
 10
97.0125
 20
-28.575
 11
97.2409
 21
-27.4269
  0
LINE
  8
0
 10
97.2409
 20
-27.4269
 11
97.8912
 21
-26.4537
  0
LINE
  8
0
 10
97.8912
 20
-26.4537
 11
98.4953
 21
-26.05
  0
LINE
  8
0
 10
98.4953
 20
-26.05
 11
97.775
 21
-26.05
  0
LINE
  8
0
 10
97.775
 20
-26.05
 11
97.775
 21
-12.05
  0
LINE
  8
0
 10
97.775
 20
-12.05
 11
111.775
 21
-12.05
  0
LINE
  8
0
 10
111.775
 20
-12.05
 11
111.775
 21
-26.05
  0
LINE
  8
0
 10
111.775
 20
-26.05
 11
101.53
 21
-26.05
  0
LINE
  8
0
 10
101.53
 20
-26.05
 11
102.134
 21
-26.4537
  0
LINE
  8
0
 10
102.134
 20
-26.4537
 11
102.784
 21
-27.4269
  0
LINE
  8
0
 10
102.784
 20
-27.4269
 11
103.012
 21
-28.575
  0
LINE
  8
0
 10
103.012
 20
-28.575
 11
102.784
 21
-29.723
  0
LINE
  8
0
 10
102.784
 20
-29.723
 11
102.134
 21
-30.6963
  0
LINE
  8
0
 10
102.134
 20
-30.6963
 11
101.161
 21
-31.3466
  0
LINE
  8
0
 10
101.161
 20
-31.3466
 11
100.012
 21
-31.575
  0
LINE
  8
0
 10
100.012
 20
-31.575
 11
98.8644
 21
-31.3466
  0
LINE
  8
0
 10
83.4875
 20
-45.1
 11
83.4875
 21
-31.1
  0
LINE
  8
0
 10
83.4875
 20
-31.1
 11
97.4875
 21
-31.1
  0
LINE
  8
0
 10
97.4875
 20
-31.1
 11
97.4875
 21
-45.1
  0
LINE
  8
0
 10
97.4875
 20
-45.1
 11
83.4875
 21
-45.1
  0
LINE
  8
0
 10
0.143738
 20
-45.1
 11
0.143738
 21
-31.1
  0
LINE
  8
0
 10
0.143738
 20
-31.1
 11
14.1437
 21
-31.1
  0
LINE
  8
0
 10
14.1437
 20
-31.1
 11
14.1437
 21
-45.1
  0
LINE
  8
0
 10
14.1437
 20
-45.1
 11
0.143738
 21
-45.1
  0
LINE
  8
0
 10
32.1894
 20
-50.3966
 11
31.2162
 21
-49.7463
  0
LINE
  8
0
 10
31.2162
 20
-49.7463
 11
30.5659
 21
-48.773
  0
LINE
  8
0
 10
30.5659
 20
-48.773
 11
30.3375
 21
-47.625
  0
LINE
  8
0
 10
30.3375
 20
-47.625
 11
30.5659
 21
-46.4769
  0
LINE
  8
0
 10
30.5659
 20
-46.4769
 11
31.2162
 21
-45.5037
  0
LINE
  8
0
 10
31.2162
 20
-45.5037
 11
31.8203
 21
-45.1
  0
LINE
  8
0
 10
31.8203
 20
-45.1
 11
26.3375
 21
-45.1
  0
LINE
  8
0
 10
26.3375
 20
-45.1
 11
26.3375
 21
-31.1
  0
LINE
  8
0
 10
26.3375
 20
-31.1
 11
40.3375
 21
-31.1
  0
LINE
  8
0
 10
40.3375
 20
-31.1
 11
40.3375
 21
-45.1
  0
LINE
  8
0
 10
40.3375
 20
-45.1
 11
34.8547
 21
-45.1
  0
LINE
  8
0
 10
34.8547
 20
-45.1
 11
35.4588
 21
-45.5037
  0
LINE
  8
0
 10
35.4588
 20
-45.5037
 11
36.1091
 21
-46.4769
  0
LINE
  8
0
 10
36.1091
 20
-46.4769
 11
36.3375
 21
-47.625
  0
LINE
  8
0
 10
36.3375
 20
-47.625
 11
36.1091
 21
-48.773
  0
LINE
  8
0
 10
36.1091
 20
-48.773
 11
35.4588
 21
-49.7463
  0
LINE
  8
0
 10
35.4588
 20
-49.7463
 11
34.4855
 21
-50.3966
  0
LINE
  8
0
 10
34.4855
 20
-50.3966
 11
33.3375
 21
-50.625
  0
LINE
  8
0
 10
33.3375
 20
-50.625
 11
32.1894
 21
-50.3966
  0
LINE
  8
0
 10
108.389
 20
-50.3966
 11
107.416
 21
-49.7463
  0
LINE
  8
0
 10
107.416
 20
-49.7463
 11
106.766
 21
-48.773
  0
LINE
  8
0
 10
106.766
 20
-48.773
 11
106.537
 21
-47.625
  0
LINE
  8
0
 10
106.537
 20
-47.625
 11
106.766
 21
-46.4769
  0
LINE
  8
0
 10
106.766
 20
-46.4769
 11
107.416
 21
-45.5037
  0
LINE
  8
0
 10
107.416
 20
-45.5037
 11
108.02
 21
-45.1
  0
LINE
  8
0
 10
108.02
 20
-45.1
 11
102.537
 21
-45.1
  0
LINE
  8
0
 10
102.537
 20
-45.1
 11
102.537
 21
-31.1
  0
LINE
  8
0
 10
102.537
 20
-31.1
 11
116.537
 21
-31.1
  0
LINE
  8
0
 10
116.537
 20
-31.1
 11
116.537
 21
-45.1
  0
LINE
  8
0
 10
116.537
 20
-45.1
 11
111.055
 21
-45.1
  0
LINE
  8
0
 10
111.055
 20
-45.1
 11
111.659
 21
-45.5037
  0
LINE
  8
0
 10
111.659
 20
-45.5037
 11
112.309
 21
-46.4769
  0
LINE
  8
0
 10
112.309
 20
-46.4769
 11
112.537
 21
-47.625
  0
LINE
  8
0
 10
112.537
 20
-47.625
 11
112.309
 21
-48.773
  0
LINE
  8
0
 10
112.309
 20
-48.773
 11
111.659
 21
-49.7463
  0
LINE
  8
0
 10
111.659
 20
-49.7463
 11
110.686
 21
-50.3966
  0
LINE
  8
0
 10
110.686
 20
-50.3966
 11
109.537
 21
-50.625
  0
LINE
  8
0
 10
109.537
 20
-50.625
 11
108.389
 21
-50.3966
  0
LINE
  8
0
 10
64.4375
 20
-45.1
 11
64.4375
 21
-31.1
  0
LINE
  8
0
 10
64.4375
 20
-31.1
 11
78.4375
 21
-31.1
  0
LINE
  8
0
 10
78.4375
 20
-31.1
 11
78.4375
 21
-45.1
  0
LINE
  8
0
 10
78.4375
 20
-45.1
 11
64.4375
 21
-45.1
  0
LINE
  8
0
 10
45.3875
 20
-45.1
 11
45.3875
 21
-31.1
  0
LINE
  8
0
 10
45.3875
 20
-31.1
 11
59.3875
 21
-31.1
  0
LINE
  8
0
 10
59.3875
 20
-31.1
 11
59.3875
 21
-45.1
  0
LINE
  8
0
 10
59.3875
 20
-45.1
 11
45.3875
 21
-45.1
  0
LINE
  8
0
 10
54.9125
 20
-64.15
 11
54.9125
 21
-50.15
  0
LINE
  8
0
 10
54.9125
 20
-50.15
 11
68.9125
 21
-50.15
  0
LINE
  8
0
 10
68.9125
 20
-50.15
 11
68.9125
 21
-64.15
  0
LINE
  8
0
 10
68.9125
 20
-64.15
 11
54.9125
 21
-64.15
  0
LINE
  8
0
 10
73.9625
 20
-64.15
 11
73.9625
 21
-50.15
  0
LINE
  8
0
 10
73.9625
 20
-50.15
 11
87.9625
 21
-50.15
  0
LINE
  8
0
 10
87.9625
 20
-50.15
 11
87.9625
 21
-64.15
  0
LINE
  8
0
 10
87.9625
 20
-64.15
 11
73.9625
 21
-64.15
  0
LINE
  8
0
 10
112.062
 20
-64.15
 11
112.062
 21
-50.15
  0
LINE
  8
0
 10
112.062
 20
-50.15
 11
126.062
 21
-50.15
  0
LINE
  8
0
 10
126.062
 20
-50.15
 11
126.062
 21
-64.15
  0
LINE
  8
0
 10
126.062
 20
-64.15
 11
112.062
 21
-64.15
  0
LINE
  8
0
 10
35.8625
 20
-64.15
 11
35.8625
 21
-50.15
  0
LINE
  8
0
 10
35.8625
 20
-50.15
 11
49.8625
 21
-50.15
  0
LINE
  8
0
 10
49.8625
 20
-50.15
 11
49.8625
 21
-64.15
  0
LINE
  8
0
 10
49.8625
 20
-64.15
 11
35.8625
 21
-64.15
  0
LINE
  8
0
 10
4.90625
 20
-64.15
 11
4.90625
 21
-50.15
  0
LINE
  8
0
 10
4.90625
 20
-50.15
 11
18.9062
 21
-50.15
  0
LINE
  8
0
 10
18.9062
 20
-50.15
 11
18.9062
 21
-64.15
  0
LINE
  8
0
 10
18.9062
 20
-64.15
 11
4.90625
 21
-64.15
  0
LINE
  8
0
 10
93.0125
 20
-64.15
 11
93.0125
 21
-50.15
  0
LINE
  8
0
 10
93.0125
 20
-50.15
 11
107.012
 21
-50.15
  0
LINE
  8
0
 10
107.012
 20
-50.15
 11
107.012
 21
-64.15
  0
LINE
  8
0
 10
107.012
 20
-64.15
 11
93.0125
 21
-64.15
  0
LINE
  8
0
 10
21.575
 20
-83.2
 11
21.575
 21
-69.2
  0
LINE
  8
0
 10
21.575
 20
-69.2
 11
31.8203
 21
-69.2
  0
LINE
  8
0
 10
31.8203
 20
-69.2
 11
31.2162
 21
-68.7963
  0
LINE
  8
0
 10
31.2162
 20
-68.7963
 11
30.5659
 21
-67.823
  0
LINE
  8
0
 10
30.5659
 20
-67.823
 11
30.3375
 21
-66.675
  0
LINE
  8
0
 10
30.3375
 20
-66.675
 11
30.5659
 21
-65.5269
  0
LINE
  8
0
 10
30.5659
 20
-65.5269
 11
31.2162
 21
-64.5537
  0
LINE
  8
0
 10
31.2162
 20
-64.5537
 11
32.1894
 21
-63.9034
  0
LINE
  8
0
 10
32.1894
 20
-63.9034
 11
33.3375
 21
-63.675
  0
LINE
  8
0
 10
33.3375
 20
-63.675
 11
34.4855
 21
-63.9034
  0
LINE
  8
0
 10
34.4855
 20
-63.9034
 11
35.4588
 21
-64.5537
  0
LINE
  8
0
 10
35.4588
 20
-64.5537
 11
36.1091
 21
-65.5269
  0
LINE
  8
0
 10
36.1091
 20
-65.5269
 11
36.3375
 21
-66.675
  0
LINE
  8
0
 10
36.3375
 20
-66.675
 11
36.1091
 21
-67.823
  0
LINE
  8
0
 10
36.1091
 20
-67.823
 11
35.4588
 21
-68.7963
  0
LINE
  8
0
 10
35.4588
 20
-68.7963
 11
34.8547
 21
-69.2
  0
LINE
  8
0
 10
34.8547
 20
-69.2
 11
35.575
 21
-69.2
  0
LINE
  8
0
 10
35.575
 20
-69.2
 11
35.575
 21
-83.2
  0
LINE
  8
0
 10
35.575
 20
-83.2
 11
21.575
 21
-83.2
  0
LINE
  8
0
 10
100.156
 20
-83.2
 11
100.156
 21
-69.2
  0
LINE
  8
0
 10
100.156
 20
-69.2
 11
108.02
 21
-69.2
  0
LINE
  8
0
 10
108.02
 20
-69.2
 11
107.416
 21
-68.7963
  0
LINE
  8
0
 10
107.416
 20
-68.7963
 11
106.766
 21
-67.823
  0
LINE
  8
0
 10
106.766
 20
-67.823
 11
106.537
 21
-66.675
  0
LINE
  8
0
 10
106.537
 20
-66.675
 11
106.766
 21
-65.5269
  0
LINE
  8
0
 10
106.766
 20
-65.5269
 11
107.416
 21
-64.5537
  0
LINE
  8
0
 10
107.416
 20
-64.5537
 11
108.389
 21
-63.9034
  0
LINE
  8
0
 10
108.389
 20
-63.9034
 11
109.537
 21
-63.675
  0
LINE
  8
0
 10
109.537
 20
-63.675
 11
110.686
 21
-63.9034
  0
LINE
  8
0
 10
110.686
 20
-63.9034
 11
111.659
 21
-64.5537
  0
LINE
  8
0
 10
111.659
 20
-64.5537
 11
112.309
 21
-65.5269
  0
LINE
  8
0
 10
112.309
 20
-65.5269
 11
112.537
 21
-66.675
  0
LINE
  8
0
 10
112.537
 20
-66.675
 11
112.309
 21
-67.823
  0
LINE
  8
0
 10
112.309
 20
-67.823
 11
111.659
 21
-68.7963
  0
LINE
  8
0
 10
111.659
 20
-68.7963
 11
111.055
 21
-69.2
  0
LINE
  8
0
 10
111.055
 20
-69.2
 11
114.156
 21
-69.2
  0
LINE
  8
0
 10
114.156
 20
-69.2
 11
114.156
 21
-83.2
  0
LINE
  8
0
 10
114.156
 20
-83.2
 11
100.156
 21
-83.2
  0
LINE
  8
0
 10
45.3875
 20
-83.2
 11
45.3875
 21
-69.2
  0
LINE
  8
0
 10
45.3875
 20
-69.2
 11
59.3875
 21
-69.2
  0
LINE
  8
0
 10
59.3875
 20
-69.2
 11
59.3875
 21
-83.2
  0
LINE
  8
0
 10
59.3875
 20
-83.2
 11
45.3875
 21
-83.2
  0
LINE
  8
0
 10
69.2
 20
-83.2
 11
69.2
 21
-69.2
  0
LINE
  8
0
 10
69.2
 20
-69.2
 11
83.2
 21
-69.2
  0
LINE
  8
0
 10
83.2
 20
-69.2
 11
83.2
 21
-83.2
  0
LINE
  8
0
 10
83.2
 20
-83.2
 11
69.2
 21
-83.2
  0
ENDSEC
  0
SECTION
  2
OBJECTS
  0
DICTIONARY
  0
ENDSEC
  0
EOF
