  0
SECTION
  2
HEADER
  9
$ACADVER
  1
AC1032
  9
$ACADMAINTVER
 90
        4
  9
$DWGCODEPAGE
  3
ANSI_932
  9
$LASTSAVEDBY
  1
toshifumi
  9
$REQUIREDVERSIONS
160
                 0
  9
$INSBASE
 10
0.0
 20
0.0
 30
0.0
  9
$EXTMIN
 10
-0.0000000000000036
 20
0.0
 30
0.0
  9
$EXTMAX
 10
210.0
 20
148.0000000000001
 30
0.0
  9
$LIMMIN
 10
0.0
 20
0.0
  9
$LIMMAX
 10
12.0
 20
9.0
  9
$ORTHOMODE
 70
     0
  9
$REGENMODE
 70
     1
  9
$FILLMODE
 70
     1
  9
$QTEXTMODE
 70
     0
  9
$MIRRTEXT
 70
     1
  9
$LTSCALE
 40
1.0
  9
$ATTMODE
 70
     1
  9
$TEXTSIZE
 40
0.2
  9
$TRACEWID
 40
0.05
  9
$TEXTSTYLE
  7
Standard
  9
$CLAYER
  8
0
  9
$CELTYPE
  6
ByBlock
  9
$CECOLOR
 62
   256
  9
$CELTSCALE
 40
1.0
  9
$DISPSILH
 70
     0
  9
$DIMSCALE
 40
1.0
  9
$DIMASZ
 40
0.18
  9
$DIMEXO
 40
0.0625
  9
$DIMDLI
 40
0.38
  9
$DIMRND
 40
0.0
  9
$DIMDLE
 40
0.0
  9
$DIMEXE
 40
0.18
  9
$DIMTP
 40
0.0
  9
$DIMTM
 40
0.0
  9
$DIMTXT
 40
0.18
  9
$DIMCEN
 40
0.09
  9
$DIMTSZ
 40
0.0
  9
$DIMTOL
 70
     0
  9
$DIMLIM
 70
     0
  9
$DIMTIH
 70
     1
  9
$DIMTOH
 70
     1
  9
$DIMSE1
 70
     0
  9
$DIMSE2
 70
     0
  9
$DIMTAD
 70
     0
  9
$DIMZIN
 70
     0
  9
$DIMBLK
  1

  9
$DIMASO
 70
     1
  9
$DIMSHO
 70
     1
  9
$DIMPOST
  1

  9
$DIMAPOST
  1

  9
$DIMALT
 70
     0
  9
$DIMALTD
 70
     2
  9
$DIMALTF
 40
25.4
  9
$DIMLFAC
 40
1.0
  9
$DIMTOFL
 70
     0
  9
$DIMTVP
 40
0.0
  9
$DIMTIX
 70
     0
  9
$DIMSOXD
 70
     0
  9
$DIMSAH
 70
     0
  9
$DIMBLK1
  1

  9
$DIMBLK2
  1

  9
$DIMSTYLE
  2
Standard
  9
$DIMCLRD
 70
     0
  9
$DIMCLRE
 70
     0
  9
$DIMCLRT
 70
     0
  9
$DIMTFAC
 40
1.0
  9
$DIMGAP
 40
0.09
  9
$DIMJUST
 70
     0
  9
$DIMSD1
 70
     0
  9
$DIMSD2
 70
     0
  9
$DIMTOLJ
 70
     1
  9
$DIMTZIN
 70
     0
  9
$DIMALTZ
 70
     0
  9
$DIMALTTZ
 70
     0
  9
$DIMUPT
 70
     0
  9
$DIMDEC
 70
     4
  9
$DIMTDEC
 70
     4
  9
$DIMALTU
 70
     2
  9
$DIMALTTD
 70
     2
  9
$DIMTXSTY
  7
Standard
  9
$DIMAUNIT
 70
     0
  9
$DIMADEC
 70
     0
  9
$DIMALTRND
 40
0.0
  9
$DIMAZIN
 70
     0
  9
$DIMDSEP
 70
    46
  9
$DIMATFIT
 70
     3
  9
$DIMFRAC
 70
     0
  9
$DIMLDRBLK
  1

  9
$DIMLUNIT
 70
     2
  9
$DIMLWD
 70
    -2
  9
$DIMLWE
 70
    -2
  9
$DIMTMOVE
 70
     2
  9
$DIMFXL
 40
1.0
  9
$DIMFXLON
 70
     0
  9
$DIMJOGANG
 40
0.7853981633974483
  9
$DIMTFILL
 70
     0
  9
$DIMTFILLCLR
 70
     0
  9
$DIMARCSYM
 70
     0
  9
$DIMLTYPE
  6

  9
$DIMLTEX1
  6

  9
$DIMLTEX2
  6

  9
$DIMTXTDIRECTION
 70
     0
  9
$LUNITS
 70
     2
  9
$LUPREC
 70
     4
  9
$SKETCHINC
 40
0.1
  9
$FILLETRAD
 40
1.0
  9
$AUNITS
 70
     0
  9
$AUPREC
 70
     0
  9
$MENU
  1
.
  9
$ELEVATION
 40
0.0
  9
$PELEVATION
 40
0.0
  9
$THICKNESS
 40
0.0
  9
$LIMCHECK
 70
     0
  9
$CHAMFERA
 40
0.0
  9
$CHAMFERB
 40
0.0
  9
$CHAMFERC
 40
0.0
  9
$CHAMFERD
 40
0.0
  9
$SKPOLY
 70
     0
  9
$TDCREATE
 40
2458782.839136574
  9
$TDUCREATE
 40
2458782.464136574
  9
$TDUPDATE
 40
2458782.851359919
  9
$TDUUPDATE
 40
2458782.476359919
  9
$TDINDWG
 40
0.0000000463
  9
$TDUSRTIMER
 40
0.0122206713
  9
$USRTIMER
 70
     1
  9
$ANGBASE
 50
0.0
  9
$ANGDIR
 70
     0
  9
$PDMODE
 70
     0
  9
$PDSIZE
 40
0.0
  9
$PLINEWID
 40
0.0
  9
$SPLFRAME
 70
     0
  9
$SPLINETYPE
 70
     6
  9
$SPLINESEGS
 70
     8
  9
$HANDSEED
  5
2C2
  9
$SURFTAB1
 70
     6
  9
$SURFTAB2
 70
     6
  9
$SURFTYPE
 70
     6
  9
$SURFU
 70
     6
  9
$SURFV
 70
     6
  9
$UCSBASE
  2

  9
$UCSNAME
  2

  9
$UCSORG
 10
0.0
 20
0.0
 30
0.0
  9
$UCSXDIR
 10
1.0
 20
0.0
 30
0.0
  9
$UCSYDIR
 10
0.0
 20
1.0
 30
0.0
  9
$UCSORTHOREF
  2

  9
$UCSORTHOVIEW
 70
     0
  9
$UCSORGTOP
 10
0.0
 20
0.0
 30
0.0
  9
$UCSORGBOTTOM
 10
0.0
 20
0.0
 30
0.0
  9
$UCSORGLEFT
 10
0.0
 20
0.0
 30
0.0
  9
$UCSORGRIGHT
 10
0.0
 20
0.0
 30
0.0
  9
$UCSORGFRONT
 10
0.0
 20
0.0
 30
0.0
  9
$UCSORGBACK
 10
0.0
 20
0.0
 30
0.0
  9
$PUCSBASE
  2

  9
$PUCSNAME
  2

  9
$PUCSORG
 10
0.0
 20
0.0
 30
0.0
  9
$PUCSXDIR
 10
1.0
 20
0.0
 30
0.0
  9
$PUCSYDIR
 10
0.0
 20
1.0
 30
0.0
  9
$PUCSORTHOREF
  2

  9
$PUCSORTHOVIEW
 70
     0
  9
$PUCSORGTOP
 10
0.0
 20
0.0
 30
0.0
  9
$PUCSORGBOTTOM
 10
0.0
 20
0.0
 30
0.0
  9
$PUCSORGLEFT
 10
0.0
 20
0.0
 30
0.0
  9
$PUCSORGRIGHT
 10
0.0
 20
0.0
 30
0.0
  9
$PUCSORGFRONT
 10
0.0
 20
0.0
 30
0.0
  9
$PUCSORGBACK
 10
0.0
 20
0.0
 30
0.0
  9
$USERI1
 70
     0
  9
$USERI2
 70
     0
  9
$USERI3
 70
     0
  9
$USERI4
 70
     0
  9
$USERI5
 70
     0
  9
$USERR1
 40
0.0
  9
$USERR2
 40
0.0
  9
$USERR3
 40
0.0
  9
$USERR4
 40
0.0
  9
$USERR5
 40
0.0
  9
$WORLDVIEW
 70
     1
  9
$SHADEDGE
 70
     3
  9
$SHADEDIF
 70
    70
  9
$TILEMODE
 70
     1
  9
$MAXACTVP
 70
    64
  9
$PINSBASE
 10
0.0
 20
0.0
 30
0.0
  9
$PLIMCHECK
 70
     0
  9
$PEXTMIN
 10
1.000000000000000E+20
 20
1.000000000000000E+20
 30
1.000000000000000E+20
  9
$PEXTMAX
 10
-1.000000000000000E+20
 20
-1.000000000000000E+20
 30
-1.000000000000000E+20
  9
$PLIMMIN
 10
0.0
 20
0.0
  9
$PLIMMAX
 10
0.0
 20
0.0
  9
$UNITMODE
 70
     0
  9
$VISRETAIN
 70
     1
  9
$PLINEGEN
 70
     0
  9
$PSLTSCALE
 70
     1
  9
$TREEDEPTH
 70
  3020
  9
$CMLSTYLE
  2
Standard
  9
$CMLJUST
 70
     0
  9
$CMLSCALE
 40
1.0
  9
$PROXYGRAPHICS
 70
     1
  9
$MEASUREMENT
 70
     0
  9
$CELWEIGHT
370
    -1
  9
$ENDCAPS
280
     0
  9
$JOINSTYLE
280
     0
  9
$LWDISPLAY
290
     0
  9
$INSUNITS
 70
     0
  9
$HYPERLINKBASE
  1

  9
$STYLESHEET
  1

  9
$XEDIT
290
     1
  9
$CEPSNTYPE
380
     0
  9
$PSTYLEMODE
290
     1
  9
$FINGERPRINTGUID
  2
{58052b69-e01d-074b-81aa-c0a533e7c8da}
  9
$VERSIONGUID
  2
{FAEB1C32-E019-11D5-929B-00C0DF256EC4}
  9
$EXTNAMES
290
     1
  9
$PSVPSCALE
 40
0.0
  9
$OLESTARTUP
290
     0
  9
$SORTENTS
280
   127
  9
$INDEXCTL
280
     0
  9
$HIDETEXT
280
     1
  9
$XCLIPFRAME
280
     2
  9
$HALOGAP
280
     0
  9
$OBSCOLOR
 70
   257
  9
$OBSLTYPE
280
     0
  9
$INTERSECTIONDISPLAY
280
     0
  9
$INTERSECTIONCOLOR
 70
   257
  9
$DIMASSOC
280
     2
  9
$PROJECTNAME
  1

  9
$CAMERADISPLAY
290
     0
  9
$LENSLENGTH
 40
50.0
  9
$CAMERAHEIGHT
 40
0.0
  9
$STEPSPERSEC
 40
2.0
  9
$STEPSIZE
 40
6.0
  9
$3DDWFPREC
 40
2.0
  9
$PSOLWIDTH
 40
0.25
  9
$PSOLHEIGHT
 40
4.0
  9
$LOFTANG1
 40
1.570796326794897
  9
$LOFTANG2
 40
1.570796326794897
  9
$LOFTMAG1
 40
0.0
  9
$LOFTMAG2
 40
0.0
  9
$LOFTPARAM
 70
     7
  9
$LOFTNORMALS
280
     1
  9
$LATITUDE
 40
37.795
  9
$LONGITUDE
 40
-122.394
  9
$NORTHDIRECTION
 40
0.0
  9
$TIMEZONE
 70
 -8000
  9
$LIGHTGLYPHDISPLAY
280
     1
  9
$TILEMODELIGHTSYNCH
280
     1
  9
$SOLIDHIST
280
     0
  9
$SHOWHIST
280
     1
  9
$DWFFRAME
280
     2
  9
$DGNFRAME
280
     2
  9
$REALWORLDSCALE
290
     1
  9
$INTERFERECOLOR
 62
   256
  9
$CSHADOW
280
     0
  9
$SHADOWPLANELOCATION
 40
0.0
  0
ENDSEC
  0
SECTION
  2
CLASSES
  0
CLASS
  1
ACDBDICTIONARYWDFLT
  2
AcDbDictionaryWithDefault
  3
ObjectDBX Classes
 90
        0
 91
        3
280
     0
281
     0
  0
CLASS
  1
SCALE
  2
AcDbScale
  3
ObjectDBX Classes
 90
     1153
 91
        3
280
     0
281
     0
  0
CLASS
  1
VISUALSTYLE
  2
AcDbVisualStyle
  3
ObjectDBX Classes
 90
     4095
 91
        3
280
     0
281
     0
  0
CLASS
  1
MATERIAL
  2
AcDbMaterial
  3
ObjectDBX Classes
 90
     1153
 91
        3
280
     0
281
     0
  0
CLASS
  1
TABLESTYLE
  2
AcDbTableStyle
  3
ObjectDBX Classes
 90
     4095
 91
        3
280
     0
281
     0
  0
CLASS
  1
MLEADERSTYLE
  2
AcDbMLeaderStyle
  3
ACDB_MLEADERSTYLE_CLASS
 90
     4095
 91
        3
280
     0
281
     0
  0
CLASS
  1
DICTIONARYVAR
  2
AcDbDictionaryVar
  3
ObjectDBX Classes
 90
        0
 91
        3
280
     0
281
     0
  0
CLASS
  1
CELLSTYLEMAP
  2
AcDbCellStyleMap
  3
ObjectDBX Classes
 90
     1152
 91
        3
280
     0
281
     0
  0
ENDSEC
  0
SECTION
  2
TABLES
  0
TABLE
  2
VPORT
  5
8
330
0
100
AcDbSymbolTable
 70
     1
  0
VPORT
  5
21
330
8
100
AcDbSymbolTableRecord
100
AcDbViewportTableRecord
  2
*Active
 70
     0
 10
0.0
 20
0.0
 11
1.0
 21
1.0
 12
101.3534851470122
 22
68.83533783887628
 13
0.0
 23
0.0
 14
0.5
 24
0.5
 15
0.5
 25
0.5
 16
0.0
 26
0.0
 36
1.0
 17
0.0
 27
0.0
 37
0.0
 40
193.796114279244
 41
1.476923076923077
 42
50.0
 43
0.0
 44
0.0
 50
0.0
 51
0.0
 71
    16
 72
   100
 73
     1
 74
     3
 75
     0
 76
     0
 77
     0
 78
     0
281
     0
 65
     1
110
0.0
120
0.0
130
0.0
111
1.0
121
0.0
131
0.0
112
0.0
122
1.0
132
0.0
 79
     0
146
0.0
348
294
 60
     3
 61
     5
292
     1
282
     1
141
0.0
142
0.0
 63
   250
  0
ENDTAB
  0
TABLE
  2
LTYPE
  5
5
330
0
100
AcDbSymbolTable
 70
     1
  0
LTYPE
  5
14
330
5
100
AcDbSymbolTableRecord
100
AcDbLinetypeTableRecord
  2
ByBlock
 70
     0
  3

 72
    65
 73
     0
 40
0.0
  0
LTYPE
  5
15
330
5
100
AcDbSymbolTableRecord
100
AcDbLinetypeTableRecord
  2
ByLayer
 70
     0
  3

 72
    65
 73
     0
 40
0.0
  0
LTYPE
  5
16
330
5
100
AcDbSymbolTableRecord
100
AcDbLinetypeTableRecord
  2
Continuous
 70
     0
  3
Solid line
 72
    65
 73
     0
 40
0.0
  0
ENDTAB
  0
TABLE
  2
LAYER
  5
2
330
0
100
AcDbSymbolTable
 70
     1
  0
LAYER
  5
10
330
2
100
AcDbSymbolTableRecord
100
AcDbLayerTableRecord
  2
0
 70
     0
 62
     7
  6
Continuous
370
    -3
390
F
347
2AB
348
0
  0
ENDTAB
  0
TABLE
  2
STYLE
  5
3
330
0
100
AcDbSymbolTable
 70
     1
  0
STYLE
  5
11
330
3
100
AcDbSymbolTableRecord
100
AcDbTextStyleTableRecord
  2
Standard
 70
     0
 40
0.0
 41
1.0
 50
0.0
 71
     0
 42
0.2
  3
txt
  4

  0
ENDTAB
  0
TABLE
  2
VIEW
  5
6
330
0
100
AcDbSymbolTable
 70
     0
  0
ENDTAB
  0
TABLE
  2
UCS
  5
7
330
0
100
AcDbSymbolTable
 70
     0
  0
ENDTAB
  0
TABLE
  2
APPID
  5
9
330
0
100
AcDbSymbolTable
 70
     1
  0
APPID
  5
12
330
9
100
AcDbSymbolTableRecord
100
AcDbRegAppTableRecord
  2
ACAD
 70
     0
  0
ENDTAB
  0
TABLE
  2
DIMSTYLE
  5
A
330
0
100
AcDbSymbolTable
 70
     1
100
AcDbDimStyleTable
  0
DIMSTYLE
105
20
330
A
100
AcDbSymbolTableRecord
100
AcDbDimStyleTableRecord
  2
Standard
 70
     0
178
     0
340
11
  0
ENDTAB
  0
TABLE
  2
BLOCK_RECORD
  5
1
330
0
100
AcDbSymbolTable
 70
     0
  0
BLOCK_RECORD
  5
1D
330
1
100
AcDbSymbolTableRecord
100
AcDbBlockTableRecord
  2
*Model_Space
340
1E
 70
     0
280
     1
281
     0
  0
BLOCK_RECORD
  5
1B
330
1
100
AcDbSymbolTableRecord
100
AcDbBlockTableRecord
  2
*Paper_Space
340
1C
 70
     0
280
     1
281
     0
  0
ENDTAB
  0
ENDSEC
  0
SECTION
  2
BLOCKS
  0
BLOCK
  5
28B
330
1D
100
AcDbEntity
  8
0
100
AcDbBlockBegin
  2
*Model_Space
 70
     0
 10
0.0
 20
0.0
 30
0.0
  3
*Model_Space
  1

  0
ENDBLK
  5
28C
330
1D
100
AcDbEntity
  8
0
100
AcDbBlockEnd
  0
BLOCK
  5
28D
330
1B
100
AcDbEntity
 67
     1
  8
0
100
AcDbBlockBegin
  2
*Paper_Space
 70
     0
 10
0.0
 20
0.0
 30
0.0
  3
*Paper_Space
  1

  0
ENDBLK
  5
28E
330
1B
100
AcDbEntity
 67
     1
  8
0
100
AcDbBlockEnd
  0
ENDSEC
  0
SECTION
  2
ENTITIES
  0
LINE
  5
22
330
1D
100
AcDbEntity
  8
0
 62
     1
100
AcDbLine
 10
202.775
 20
133.05
 30
0.0
 11
199.775
 21
133.05
 31
0.0
  0
LINE
  5
23
330
1D
100
AcDbEntity
  8
0
 62
     1
100
AcDbLine
 10
199.775
 20
133.05
 30
0.0
 11
199.775
 21
142.575
 31
0.0
  0
LINE
  5
24
330
1D
100
AcDbEntity
  8
0
 62
     1
100
AcDbLine
 10
199.775
 20
142.575
 30
0.0
 11
176.725
 21
142.575
 31
0.0
  0
LINE
  5
25
330
1D
100
AcDbEntity
  8
0
 62
     1
100
AcDbLine
 10
176.725
 20
142.575
 30
0.0
 11
176.725
 21
6.225009999999997
 31
0.0
  0
LINE
  5
26
330
1D
100
AcDbEntity
  8
0
 62
     1
100
AcDbLine
 10
177.725
 20
5.225009999999997
 30
0.0
 11
201.775
 21
5.225009999999997
 31
0.0
  0
LINE
  5
27
330
1D
100
AcDbEntity
  8
0
 62
     1
100
AcDbLine
 10
202.775
 20
6.225009999999997
 30
0.0
 11
202.775
 21
133.05
 31
0.0
  0
LINE
  5
28
330
1D
100
AcDbEntity
  8
0
 62
     1
100
AcDbLine
 10
178.342
 20
139.651
 30
0.0
 11
178.018
 21
139.868
 31
0.0
  0
LINE
  5
29
330
1D
100
AcDbEntity
  8
0
 62
     1
100
AcDbLine
 10
178.018
 20
139.868
 30
0.0
 11
177.801
 21
140.192
 31
0.0
  0
LINE
  5
2A
330
1D
100
AcDbEntity
  8
0
 62
     1
100
AcDbLine
 10
177.801
 20
140.192
 30
0.0
 11
177.725
 21
140.575
 31
0.0
  0
LINE
  5
2B
330
1D
100
AcDbEntity
  8
0
 62
     1
100
AcDbLine
 10
177.725
 20
140.575
 30
0.0
 11
177.801
 21
140.958
 31
0.0
  0
LINE
  5
2C
330
1D
100
AcDbEntity
  8
0
 62
     1
100
AcDbLine
 10
177.801
 20
140.958
 30
0.0
 11
178.018
 21
141.282
 31
0.0
  0
LINE
  5
2D
330
1D
100
AcDbEntity
  8
0
 62
     1
100
AcDbLine
 10
178.018
 20
141.282
 30
0.0
 11
178.342
 21
141.499
 31
0.0
  0
LINE
  5
2E
330
1D
100
AcDbEntity
  8
0
 62
     1
100
AcDbLine
 10
178.342
 20
141.499
 30
0.0
 11
178.725
 21
141.575
 31
0.0
  0
LINE
  5
2F
330
1D
100
AcDbEntity
  8
0
 62
     1
100
AcDbLine
 10
178.725
 20
141.575
 30
0.0
 11
179.108
 21
141.499
 31
0.0
  0
LINE
  5
30
330
1D
100
AcDbEntity
  8
0
 62
     1
100
AcDbLine
 10
179.108
 20
141.499
 30
0.0
 11
179.432
 21
141.282
 31
0.0
  0
LINE
  5
31
330
1D
100
AcDbEntity
  8
0
 62
     1
100
AcDbLine
 10
179.432
 20
141.282
 30
0.0
 11
179.649
 21
140.958
 31
0.0
  0
LINE
  5
32
330
1D
100
AcDbEntity
  8
0
 62
     1
100
AcDbLine
 10
179.649
 20
140.958
 30
0.0
 11
179.725
 21
140.575
 31
0.0
  0
LINE
  5
33
330
1D
100
AcDbEntity
  8
0
 62
     1
100
AcDbLine
 10
179.725
 20
140.575
 30
0.0
 11
179.649
 21
140.192
 31
0.0
  0
LINE
  5
34
330
1D
100
AcDbEntity
  8
0
 62
     1
100
AcDbLine
 10
179.649
 20
140.192
 30
0.0
 11
179.432
 21
139.868
 31
0.0
  0
LINE
  5
35
330
1D
100
AcDbEntity
  8
0
 62
     1
100
AcDbLine
 10
179.432
 20
139.868
 30
0.0
 11
179.108
 21
139.651
 31
0.0
  0
LINE
  5
36
330
1D
100
AcDbEntity
  8
0
 62
     1
100
AcDbLine
 10
179.108
 20
139.651
 30
0.0
 11
178.725
 21
139.575
 31
0.0
  0
LINE
  5
37
330
1D
100
AcDbEntity
  8
0
 62
     1
100
AcDbLine
 10
178.725
 20
139.575
 30
0.0
 11
178.342
 21
139.651
 31
0.0
  0
LINE
  5
38
330
1D
100
AcDbEntity
  8
0
 62
     1
100
AcDbLine
 10
199.392
 20
113.076
 30
0.0
 11
199.068
 21
113.293
 31
0.0
  0
LINE
  5
39
330
1D
100
AcDbEntity
  8
0
 62
     1
100
AcDbLine
 10
199.068
 20
113.293
 30
0.0
 11
198.851
 21
113.617
 31
0.0
  0
LINE
  5
3A
330
1D
100
AcDbEntity
  8
0
 62
     1
100
AcDbLine
 10
198.851
 20
113.617
 30
0.0
 11
198.775
 21
114.0
 31
0.0
  0
LINE
  5
3B
330
1D
100
AcDbEntity
  8
0
 62
     1
100
AcDbLine
 10
198.775
 20
114.0
 30
0.0
 11
198.851
 21
114.383
 31
0.0
  0
LINE
  5
3C
330
1D
100
AcDbEntity
  8
0
 62
     1
100
AcDbLine
 10
198.851
 20
114.383
 30
0.0
 11
199.068
 21
114.707
 31
0.0
  0
LINE
  5
3D
330
1D
100
AcDbEntity
  8
0
 62
     1
100
AcDbLine
 10
199.068
 20
114.707
 30
0.0
 11
199.392
 21
114.924
 31
0.0
  0
LINE
  5
3E
330
1D
100
AcDbEntity
  8
0
 62
     1
100
AcDbLine
 10
199.392
 20
114.924
 30
0.0
 11
199.775
 21
115.0
 31
0.0
  0
LINE
  5
3F
330
1D
100
AcDbEntity
  8
0
 62
     1
100
AcDbLine
 10
199.775
 20
115.0
 30
0.0
 11
200.158
 21
114.924
 31
0.0
  0
LINE
  5
40
330
1D
100
AcDbEntity
  8
0
 62
     1
100
AcDbLine
 10
200.158
 20
114.924
 30
0.0
 11
200.482
 21
114.707
 31
0.0
  0
LINE
  5
41
330
1D
100
AcDbEntity
  8
0
 62
     1
100
AcDbLine
 10
200.482
 20
114.707
 30
0.0
 11
200.699
 21
114.383
 31
0.0
  0
LINE
  5
42
330
1D
100
AcDbEntity
  8
0
 62
     1
100
AcDbLine
 10
200.699
 20
114.383
 30
0.0
 11
200.775
 21
114.0
 31
0.0
  0
LINE
  5
43
330
1D
100
AcDbEntity
  8
0
 62
     1
100
AcDbLine
 10
200.775
 20
114.0
 30
0.0
 11
200.699
 21
113.617
 31
0.0
  0
LINE
  5
44
330
1D
100
AcDbEntity
  8
0
 62
     1
100
AcDbLine
 10
200.699
 20
113.617
 30
0.0
 11
200.482
 21
113.293
 31
0.0
  0
LINE
  5
45
330
1D
100
AcDbEntity
  8
0
 62
     1
100
AcDbLine
 10
200.482
 20
113.293
 30
0.0
 11
200.158
 21
113.076
 31
0.0
  0
LINE
  5
46
330
1D
100
AcDbEntity
  8
0
 62
     1
100
AcDbLine
 10
200.158
 20
113.076
 30
0.0
 11
199.775
 21
113.0
 31
0.0
  0
LINE
  5
47
330
1D
100
AcDbEntity
  8
0
 62
     1
100
AcDbLine
 10
199.775
 20
113.0
 30
0.0
 11
199.392
 21
113.076
 31
0.0
  0
LINE
  5
48
330
1D
100
AcDbEntity
  8
0
 62
     1
100
AcDbLine
 10
199.392
 20
55.9261
 30
0.0
 11
199.068
 21
56.1429
 31
0.0
  0
LINE
  5
49
330
1D
100
AcDbEntity
  8
0
 62
     1
100
AcDbLine
 10
199.068
 20
56.1429
 30
0.0
 11
198.851
 21
56.4673
 31
0.0
  0
LINE
  5
4A
330
1D
100
AcDbEntity
  8
0
 62
     1
100
AcDbLine
 10
198.851
 20
56.4673
 30
0.0
 11
198.775
 21
56.85
 31
0.0
  0
LINE
  5
4B
330
1D
100
AcDbEntity
  8
0
 62
     1
100
AcDbLine
 10
198.775
 20
56.85
 30
0.0
 11
198.851
 21
57.2327
 31
0.0
  0
LINE
  5
4C
330
1D
100
AcDbEntity
  8
0
 62
     1
100
AcDbLine
 10
198.851
 20
57.2327
 30
0.0
 11
199.068
 21
57.5571
 31
0.0
  0
LINE
  5
4D
330
1D
100
AcDbEntity
  8
0
 62
     1
100
AcDbLine
 10
199.068
 20
57.5571
 30
0.0
 11
199.392
 21
57.7739
 31
0.0
  0
LINE
  5
4E
330
1D
100
AcDbEntity
  8
0
 62
     1
100
AcDbLine
 10
199.392
 20
57.7739
 30
0.0
 11
199.775
 21
57.85
 31
0.0
  0
LINE
  5
4F
330
1D
100
AcDbEntity
  8
0
 62
     1
100
AcDbLine
 10
199.775
 20
57.85
 30
0.0
 11
200.158
 21
57.7739
 31
0.0
  0
LINE
  5
50
330
1D
100
AcDbEntity
  8
0
 62
     1
100
AcDbLine
 10
200.158
 20
57.7739
 30
0.0
 11
200.482
 21
57.5571
 31
0.0
  0
LINE
  5
51
330
1D
100
AcDbEntity
  8
0
 62
     1
100
AcDbLine
 10
200.482
 20
57.5571
 30
0.0
 11
200.699
 21
57.2327
 31
0.0
  0
LINE
  5
52
330
1D
100
AcDbEntity
  8
0
 62
     1
100
AcDbLine
 10
200.699
 20
57.2327
 30
0.0
 11
200.775
 21
56.85
 31
0.0
  0
LINE
  5
53
330
1D
100
AcDbEntity
  8
0
 62
     1
100
AcDbLine
 10
200.775
 20
56.85
 30
0.0
 11
200.699
 21
56.4673
 31
0.0
  0
LINE
  5
54
330
1D
100
AcDbEntity
  8
0
 62
     1
100
AcDbLine
 10
200.699
 20
56.4673
 30
0.0
 11
200.482
 21
56.1429
 31
0.0
  0
LINE
  5
55
330
1D
100
AcDbEntity
  8
0
 62
     1
100
AcDbLine
 10
200.482
 20
56.1429
 30
0.0
 11
200.158
 21
55.9261
 31
0.0
  0
LINE
  5
56
330
1D
100
AcDbEntity
  8
0
 62
     1
100
AcDbLine
 10
200.158
 20
55.9261
 30
0.0
 11
199.775
 21
55.85
 31
0.0
  0
LINE
  5
57
330
1D
100
AcDbEntity
  8
0
 62
     1
100
AcDbLine
 10
199.775
 20
55.85
 30
0.0
 11
199.392
 21
55.9261
 31
0.0
  0
LINE
  5
58
330
1D
100
AcDbEntity
  8
0
 62
     1
100
AcDbLine
 10
178.342
 20
53.4011
 30
0.0
 11
178.018
 21
53.6179
 31
0.0
  0
LINE
  5
59
330
1D
100
AcDbEntity
  8
0
 62
     1
100
AcDbLine
 10
178.018
 20
53.6179
 30
0.0
 11
177.801
 21
53.9423
 31
0.0
  0
LINE
  5
5A
330
1D
100
AcDbEntity
  8
0
 62
     1
100
AcDbLine
 10
177.801
 20
53.9423
 30
0.0
 11
177.725
 21
54.325
 31
0.0
  0
LINE
  5
5B
330
1D
100
AcDbEntity
  8
0
 62
     1
100
AcDbLine
 10
177.725
 20
54.325
 30
0.0
 11
177.801
 21
54.7077
 31
0.0
  0
LINE
  5
5C
330
1D
100
AcDbEntity
  8
0
 62
     1
100
AcDbLine
 10
177.801
 20
54.7077
 30
0.0
 11
178.018
 21
55.0321
 31
0.0
  0
LINE
  5
5D
330
1D
100
AcDbEntity
  8
0
 62
     1
100
AcDbLine
 10
178.018
 20
55.0321
 30
0.0
 11
178.342
 21
55.2489
 31
0.0
  0
LINE
  5
5E
330
1D
100
AcDbEntity
  8
0
 62
     1
100
AcDbLine
 10
178.342
 20
55.2489
 30
0.0
 11
178.725
 21
55.325
 31
0.0
  0
LINE
  5
5F
330
1D
100
AcDbEntity
  8
0
 62
     1
100
AcDbLine
 10
178.725
 20
55.325
 30
0.0
 11
179.108
 21
55.2489
 31
0.0
  0
LINE
  5
60
330
1D
100
AcDbEntity
  8
0
 62
     1
100
AcDbLine
 10
179.108
 20
55.2489
 30
0.0
 11
179.432
 21
55.0321
 31
0.0
  0
LINE
  5
61
330
1D
100
AcDbEntity
  8
0
 62
     1
100
AcDbLine
 10
179.432
 20
55.0321
 30
0.0
 11
179.649
 21
54.7077
 31
0.0
  0
LINE
  5
62
330
1D
100
AcDbEntity
  8
0
 62
     1
100
AcDbLine
 10
179.649
 20
54.7077
 30
0.0
 11
179.725
 21
54.325
 31
0.0
  0
LINE
  5
63
330
1D
100
AcDbEntity
  8
0
 62
     1
100
AcDbLine
 10
179.725
 20
54.325
 30
0.0
 11
179.649
 21
53.9423
 31
0.0
  0
LINE
  5
64
330
1D
100
AcDbEntity
  8
0
 62
     1
100
AcDbLine
 10
179.649
 20
53.9423
 30
0.0
 11
179.432
 21
53.6179
 31
0.0
  0
LINE
  5
65
330
1D
100
AcDbEntity
  8
0
 62
     1
100
AcDbLine
 10
179.432
 20
53.6179
 30
0.0
 11
179.108
 21
53.4011
 31
0.0
  0
LINE
  5
66
330
1D
100
AcDbEntity
  8
0
 62
     1
100
AcDbLine
 10
179.108
 20
53.4011
 30
0.0
 11
178.725
 21
53.325
 31
0.0
  0
LINE
  5
67
330
1D
100
AcDbEntity
  8
0
 62
     1
100
AcDbLine
 10
178.725
 20
53.325
 30
0.0
 11
178.342
 21
53.4011
 31
0.0
  0
LINE
  5
68
330
1D
100
AcDbEntity
  8
0
 62
     1
100
AcDbLine
 10
191.725
 20
44.325
 30
0.0
 11
191.725
 21
50.325
 31
0.0
  0
LINE
  5
69
330
1D
100
AcDbEntity
  8
0
 62
     1
100
AcDbLine
 10
191.725
 20
50.325
 30
0.0
 11
195.225
 21
50.325
 31
0.0
  0
LINE
  5
6A
330
1D
100
AcDbEntity
  8
0
 62
     1
100
AcDbLine
 10
195.225
 20
50.325
 30
0.0
 11
195.225
 21
44.325
 31
0.0
  0
LINE
  5
6B
330
1D
100
AcDbEntity
  8
0
 62
     1
100
AcDbLine
 10
195.225
 20
44.325
 30
0.0
 11
191.725
 21
44.325
 31
0.0
  0
LINE
  5
6C
330
1D
100
AcDbEntity
  8
0
 62
     1
100
AcDbLine
 10
178.342
 20
39.4011
 30
0.0
 11
178.018
 21
39.6179
 31
0.0
  0
LINE
  5
6D
330
1D
100
AcDbEntity
  8
0
 62
     1
100
AcDbLine
 10
178.018
 20
39.6179
 30
0.0
 11
177.801
 21
39.9423
 31
0.0
  0
LINE
  5
6E
330
1D
100
AcDbEntity
  8
0
 62
     1
100
AcDbLine
 10
177.801
 20
39.9423
 30
0.0
 11
177.725
 21
40.325
 31
0.0
  0
LINE
  5
6F
330
1D
100
AcDbEntity
  8
0
 62
     1
100
AcDbLine
 10
177.725
 20
40.325
 30
0.0
 11
177.801
 21
40.7077
 31
0.0
  0
LINE
  5
70
330
1D
100
AcDbEntity
  8
0
 62
     1
100
AcDbLine
 10
177.801
 20
40.7077
 30
0.0
 11
178.018
 21
41.0321
 31
0.0
  0
LINE
  5
71
330
1D
100
AcDbEntity
  8
0
 62
     1
100
AcDbLine
 10
178.018
 20
41.0321
 30
0.0
 11
178.342
 21
41.2489
 31
0.0
  0
LINE
  5
72
330
1D
100
AcDbEntity
  8
0
 62
     1
100
AcDbLine
 10
178.342
 20
41.2489
 30
0.0
 11
178.725
 21
41.325
 31
0.0
  0
LINE
  5
73
330
1D
100
AcDbEntity
  8
0
 62
     1
100
AcDbLine
 10
178.725
 20
41.325
 30
0.0
 11
179.108
 21
41.2489
 31
0.0
  0
LINE
  5
74
330
1D
100
AcDbEntity
  8
0
 62
     1
100
AcDbLine
 10
179.108
 20
41.2489
 30
0.0
 11
179.432
 21
41.0321
 31
0.0
  0
LINE
  5
75
330
1D
100
AcDbEntity
  8
0
 62
     1
100
AcDbLine
 10
179.432
 20
41.0321
 30
0.0
 11
179.649
 21
40.7077
 31
0.0
  0
LINE
  5
76
330
1D
100
AcDbEntity
  8
0
 62
     1
100
AcDbLine
 10
179.649
 20
40.7077
 30
0.0
 11
179.725
 21
40.325
 31
0.0
  0
LINE
  5
77
330
1D
100
AcDbEntity
  8
0
 62
     1
100
AcDbLine
 10
179.725
 20
40.325
 30
0.0
 11
179.649
 21
39.9423
 31
0.0
  0
LINE
  5
78
330
1D
100
AcDbEntity
  8
0
 62
     1
100
AcDbLine
 10
179.649
 20
39.9423
 30
0.0
 11
179.432
 21
39.6179
 31
0.0
  0
LINE
  5
79
330
1D
100
AcDbEntity
  8
0
 62
     1
100
AcDbLine
 10
179.432
 20
39.6179
 30
0.0
 11
179.108
 21
39.4011
 31
0.0
  0
LINE
  5
7A
330
1D
100
AcDbEntity
  8
0
 62
     1
100
AcDbLine
 10
179.108
 20
39.4011
 30
0.0
 11
178.725
 21
39.325
 31
0.0
  0
LINE
  5
7B
330
1D
100
AcDbEntity
  8
0
 62
     1
100
AcDbLine
 10
178.725
 20
39.325
 30
0.0
 11
178.342
 21
39.4011
 31
0.0
  0
LINE
  5
7C
330
1D
100
AcDbEntity
  8
0
 62
     1
100
AcDbLine
 10
178.342
 20
6.30113
 30
0.0
 11
178.018
 21
6.5179
 31
0.0
  0
LINE
  5
7D
330
1D
100
AcDbEntity
  8
0
 62
     1
100
AcDbLine
 10
178.018
 20
6.5179
 30
0.0
 11
177.801
 21
6.84233
 31
0.0
  0
LINE
  5
7E
330
1D
100
AcDbEntity
  8
0
 62
     1
100
AcDbLine
 10
177.801
 20
6.84233
 30
0.0
 11
177.725
 21
7.22501
 31
0.0
  0
LINE
  5
7F
330
1D
100
AcDbEntity
  8
0
 62
     1
100
AcDbLine
 10
177.725
 20
7.22501
 30
0.0
 11
177.801
 21
7.6077
 31
0.0
  0
LINE
  5
80
330
1D
100
AcDbEntity
  8
0
 62
     1
100
AcDbLine
 10
177.801
 20
7.6077
 30
0.0
 11
178.018
 21
7.93211
 31
0.0
  0
LINE
  5
81
330
1D
100
AcDbEntity
  8
0
 62
     1
100
AcDbLine
 10
178.018
 20
7.93211
 30
0.0
 11
178.342
 21
8.14888
 31
0.0
  0
LINE
  5
82
330
1D
100
AcDbEntity
  8
0
 62
     1
100
AcDbLine
 10
178.342
 20
8.14888
 30
0.0
 11
178.725
 21
8.22501
 31
0.0
  0
LINE
  5
83
330
1D
100
AcDbEntity
  8
0
 62
     1
100
AcDbLine
 10
178.725
 20
8.22501
 30
0.0
 11
179.108
 21
8.14888
 31
0.0
  0
LINE
  5
84
330
1D
100
AcDbEntity
  8
0
 62
     1
100
AcDbLine
 10
179.108
 20
8.14888
 30
0.0
 11
179.432
 21
7.93211
 31
0.0
  0
LINE
  5
85
330
1D
100
AcDbEntity
  8
0
 62
     1
100
AcDbLine
 10
179.432
 20
7.93211
 30
0.0
 11
179.649
 21
7.6077
 31
0.0
  0
LINE
  5
86
330
1D
100
AcDbEntity
  8
0
 62
     1
100
AcDbLine
 10
179.649
 20
7.6077
 30
0.0
 11
179.725
 21
7.22501
 31
0.0
  0
LINE
  5
87
330
1D
100
AcDbEntity
  8
0
 62
     1
100
AcDbLine
 10
179.725
 20
7.22501
 30
0.0
 11
179.649
 21
6.84233
 31
0.0
  0
LINE
  5
88
330
1D
100
AcDbEntity
  8
0
 62
     1
100
AcDbLine
 10
179.649
 20
6.84233
 30
0.0
 11
179.432
 21
6.5179
 31
0.0
  0
LINE
  5
89
330
1D
100
AcDbEntity
  8
0
 62
     1
100
AcDbLine
 10
179.432
 20
6.5179
 30
0.0
 11
179.108
 21
6.30113
 31
0.0
  0
LINE
  5
8A
330
1D
100
AcDbEntity
  8
0
 62
     1
100
AcDbLine
 10
179.108
 20
6.30113
 30
0.0
 11
178.725
 21
6.22501
 31
0.0
  0
LINE
  5
8B
330
1D
100
AcDbEntity
  8
0
 62
     1
100
AcDbLine
 10
178.725
 20
6.22501
 30
0.0
 11
178.342
 21
6.30113
 31
0.0
  0
LINE
  5
8C
330
1D
100
AcDbEntity
  8
0
 62
     1
100
AcDbLine
 10
171.025
 20
139.275
 30
0.0
 11
15.625
 21
139.275
 31
0.0
  0
LINE
  5
8D
330
1D
100
AcDbEntity
  8
0
 62
     1
100
AcDbLine
 10
15.625
 20
139.275
 30
0.0
 11
15.625
 21
116.225
 31
0.0
  0
LINE
  5
8E
330
1D
100
AcDbEntity
  8
0
 62
     1
100
AcDbLine
 10
15.625
 20
116.225
 30
0.0
 11
6.10001
 21
116.225
 31
0.0
  0
LINE
  5
8F
330
1D
100
AcDbEntity
  8
0
 62
     1
100
AcDbLine
 10
6.10001
 20
116.225
 30
0.0
 11
6.10001
 21
113.225
 31
0.0
  0
LINE
  5
90
330
1D
100
AcDbEntity
  8
0
 62
     1
100
AcDbLine
 10
6.10001
 20
113.225
 30
0.0
 11
171.025
 21
113.225
 31
0.0
  0
LINE
  5
91
330
1D
100
AcDbEntity
  8
0
 62
     1
100
AcDbLine
 10
172.025
 20
114.225
 30
0.0
 11
172.025
 21
138.275
 31
0.0
  0
LINE
  5
92
330
1D
100
AcDbEntity
  8
0
 62
     1
100
AcDbLine
 10
136.542
 20
136.351
 30
0.0
 11
136.218
 21
136.568
 31
0.0
  0
LINE
  5
93
330
1D
100
AcDbEntity
  8
0
 62
     1
100
AcDbLine
 10
136.218
 20
136.568
 30
0.0
 11
136.001
 21
136.892
 31
0.0
  0
LINE
  5
94
330
1D
100
AcDbEntity
  8
0
 62
     1
100
AcDbLine
 10
136.001
 20
136.892
 30
0.0
 11
135.925
 21
137.275
 31
0.0
  0
LINE
  5
95
330
1D
100
AcDbEntity
  8
0
 62
     1
100
AcDbLine
 10
135.925
 20
137.275
 30
0.0
 11
136.001
 21
137.658
 31
0.0
  0
LINE
  5
96
330
1D
100
AcDbEntity
  8
0
 62
     1
100
AcDbLine
 10
136.001
 20
137.658
 30
0.0
 11
136.218
 21
137.982
 31
0.0
  0
LINE
  5
97
330
1D
100
AcDbEntity
  8
0
 62
     1
100
AcDbLine
 10
136.218
 20
137.982
 30
0.0
 11
136.542
 21
138.199
 31
0.0
  0
LINE
  5
98
330
1D
100
AcDbEntity
  8
0
 62
     1
100
AcDbLine
 10
136.542
 20
138.199
 30
0.0
 11
136.925
 21
138.275
 31
0.0
  0
LINE
  5
99
330
1D
100
AcDbEntity
  8
0
 62
     1
100
AcDbLine
 10
136.925
 20
138.275
 30
0.0
 11
137.308
 21
138.199
 31
0.0
  0
LINE
  5
9A
330
1D
100
AcDbEntity
  8
0
 62
     1
100
AcDbLine
 10
137.308
 20
138.199
 30
0.0
 11
137.632
 21
137.982
 31
0.0
  0
LINE
  5
9B
330
1D
100
AcDbEntity
  8
0
 62
     1
100
AcDbLine
 10
137.632
 20
137.982
 30
0.0
 11
137.849
 21
137.658
 31
0.0
  0
LINE
  5
9C
330
1D
100
AcDbEntity
  8
0
 62
     1
100
AcDbLine
 10
137.849
 20
137.658
 30
0.0
 11
137.925
 21
137.275
 31
0.0
  0
LINE
  5
9D
330
1D
100
AcDbEntity
  8
0
 62
     1
100
AcDbLine
 10
137.925
 20
137.275
 30
0.0
 11
137.849
 21
136.892
 31
0.0
  0
LINE
  5
9E
330
1D
100
AcDbEntity
  8
0
 62
     1
100
AcDbLine
 10
137.849
 20
136.892
 30
0.0
 11
137.632
 21
136.568
 31
0.0
  0
LINE
  5
9F
330
1D
100
AcDbEntity
  8
0
 62
     1
100
AcDbLine
 10
137.632
 20
136.568
 30
0.0
 11
137.308
 21
136.351
 31
0.0
  0
LINE
  5
A0
330
1D
100
AcDbEntity
  8
0
 62
     1
100
AcDbLine
 10
137.308
 20
136.351
 30
0.0
 11
136.925
 21
136.275
 31
0.0
  0
LINE
  5
A1
330
1D
100
AcDbEntity
  8
0
 62
     1
100
AcDbLine
 10
136.925
 20
136.275
 30
0.0
 11
136.542
 21
136.351
 31
0.0
  0
LINE
  5
A2
330
1D
100
AcDbEntity
  8
0
 62
     1
100
AcDbLine
 10
17.2423
 20
136.351
 30
0.0
 11
16.9179
 21
136.568
 31
0.0
  0
LINE
  5
A3
330
1D
100
AcDbEntity
  8
0
 62
     1
100
AcDbLine
 10
16.9179
 20
136.568
 30
0.0
 11
16.7011
 21
136.892
 31
0.0
  0
LINE
  5
A4
330
1D
100
AcDbEntity
  8
0
 62
     1
100
AcDbLine
 10
16.7011
 20
136.892
 30
0.0
 11
16.625
 21
137.275
 31
0.0
  0
LINE
  5
A5
330
1D
100
AcDbEntity
  8
0
 62
     1
100
AcDbLine
 10
16.625
 20
137.275
 30
0.0
 11
16.7011
 21
137.658
 31
0.0
  0
LINE
  5
A6
330
1D
100
AcDbEntity
  8
0
 62
     1
100
AcDbLine
 10
16.7011
 20
137.658
 30
0.0
 11
16.9179
 21
137.982
 31
0.0
  0
LINE
  5
A7
330
1D
100
AcDbEntity
  8
0
 62
     1
100
AcDbLine
 10
16.9179
 20
137.982
 30
0.0
 11
17.2423
 21
138.199
 31
0.0
  0
LINE
  5
A8
330
1D
100
AcDbEntity
  8
0
 62
     1
100
AcDbLine
 10
17.2423
 20
138.199
 30
0.0
 11
17.625
 21
138.275
 31
0.0
  0
LINE
  5
A9
330
1D
100
AcDbEntity
  8
0
 62
     1
100
AcDbLine
 10
17.625
 20
138.275
 30
0.0
 11
18.0077
 21
138.199
 31
0.0
  0
LINE
  5
AA
330
1D
100
AcDbEntity
  8
0
 62
     1
100
AcDbLine
 10
18.0077
 20
138.199
 30
0.0
 11
18.3321
 21
137.982
 31
0.0
  0
LINE
  5
AB
330
1D
100
AcDbEntity
  8
0
 62
     1
100
AcDbLine
 10
18.3321
 20
137.982
 30
0.0
 11
18.5489
 21
137.658
 31
0.0
  0
LINE
  5
AC
330
1D
100
AcDbEntity
  8
0
 62
     1
100
AcDbLine
 10
18.5489
 20
137.658
 30
0.0
 11
18.625
 21
137.275
 31
0.0
  0
LINE
  5
AD
330
1D
100
AcDbEntity
  8
0
 62
     1
100
AcDbLine
 10
18.625
 20
137.275
 30
0.0
 11
18.5489
 21
136.892
 31
0.0
  0
LINE
  5
AE
330
1D
100
AcDbEntity
  8
0
 62
     1
100
AcDbLine
 10
18.5489
 20
136.892
 30
0.0
 11
18.3321
 21
136.568
 31
0.0
  0
LINE
  5
AF
330
1D
100
AcDbEntity
  8
0
 62
     1
100
AcDbLine
 10
18.3321
 20
136.568
 30
0.0
 11
18.0077
 21
136.351
 31
0.0
  0
LINE
  5
B0
330
1D
100
AcDbEntity
  8
0
 62
     1
100
AcDbLine
 10
18.0077
 20
136.351
 30
0.0
 11
17.625
 21
136.275
 31
0.0
  0
LINE
  5
B1
330
1D
100
AcDbEntity
  8
0
 62
     1
100
AcDbLine
 10
17.625
 20
136.275
 30
0.0
 11
17.2423
 21
136.351
 31
0.0
  0
LINE
  5
B2
330
1D
100
AcDbEntity
  8
0
 62
     1
100
AcDbLine
 10
169.642
 20
136.351
 30
0.0
 11
169.318
 21
136.568
 31
0.0
  0
LINE
  5
B3
330
1D
100
AcDbEntity
  8
0
 62
     1
100
AcDbLine
 10
169.318
 20
136.568
 30
0.0
 11
169.101
 21
136.892
 31
0.0
  0
LINE
  5
B4
330
1D
100
AcDbEntity
  8
0
 62
     1
100
AcDbLine
 10
169.101
 20
136.892
 30
0.0
 11
169.025
 21
137.275
 31
0.0
  0
LINE
  5
B5
330
1D
100
AcDbEntity
  8
0
 62
     1
100
AcDbLine
 10
169.025
 20
137.275
 30
0.0
 11
169.101
 21
137.658
 31
0.0
  0
LINE
  5
B6
330
1D
100
AcDbEntity
  8
0
 62
     1
100
AcDbLine
 10
169.101
 20
137.658
 30
0.0
 11
169.318
 21
137.982
 31
0.0
  0
LINE
  5
B7
330
1D
100
AcDbEntity
  8
0
 62
     1
100
AcDbLine
 10
169.318
 20
137.982
 30
0.0
 11
169.642
 21
138.199
 31
0.0
  0
LINE
  5
B8
330
1D
100
AcDbEntity
  8
0
 62
     1
100
AcDbLine
 10
169.642
 20
138.199
 30
0.0
 11
170.025
 21
138.275
 31
0.0
  0
LINE
  5
B9
330
1D
100
AcDbEntity
  8
0
 62
     1
100
AcDbLine
 10
170.025
 20
138.275
 30
0.0
 11
170.408
 21
138.199
 31
0.0
  0
LINE
  5
BA
330
1D
100
AcDbEntity
  8
0
 62
     1
100
AcDbLine
 10
170.408
 20
138.199
 30
0.0
 11
170.732
 21
137.982
 31
0.0
  0
LINE
  5
BB
330
1D
100
AcDbEntity
  8
0
 62
     1
100
AcDbLine
 10
170.732
 20
137.982
 30
0.0
 11
170.949
 21
137.658
 31
0.0
  0
LINE
  5
BC
330
1D
100
AcDbEntity
  8
0
 62
     1
100
AcDbLine
 10
170.949
 20
137.658
 30
0.0
 11
171.025
 21
137.275
 31
0.0
  0
LINE
  5
BD
330
1D
100
AcDbEntity
  8
0
 62
     1
100
AcDbLine
 10
171.025
 20
137.275
 30
0.0
 11
170.949
 21
136.892
 31
0.0
  0
LINE
  5
BE
330
1D
100
AcDbEntity
  8
0
 62
     1
100
AcDbLine
 10
170.949
 20
136.892
 30
0.0
 11
170.732
 21
136.568
 31
0.0
  0
LINE
  5
BF
330
1D
100
AcDbEntity
  8
0
 62
     1
100
AcDbLine
 10
170.732
 20
136.568
 30
0.0
 11
170.408
 21
136.351
 31
0.0
  0
LINE
  5
C0
330
1D
100
AcDbEntity
  8
0
 62
     1
100
AcDbLine
 10
170.408
 20
136.351
 30
0.0
 11
170.025
 21
136.275
 31
0.0
  0
LINE
  5
C1
330
1D
100
AcDbEntity
  8
0
 62
     1
100
AcDbLine
 10
170.025
 20
136.275
 30
0.0
 11
169.642
 21
136.351
 31
0.0
  0
LINE
  5
C2
330
1D
100
AcDbEntity
  8
0
 62
     1
100
AcDbLine
 10
122.542
 20
136.351
 30
0.0
 11
122.218
 21
136.568
 31
0.0
  0
LINE
  5
C3
330
1D
100
AcDbEntity
  8
0
 62
     1
100
AcDbLine
 10
122.218
 20
136.568
 30
0.0
 11
122.001
 21
136.892
 31
0.0
  0
LINE
  5
C4
330
1D
100
AcDbEntity
  8
0
 62
     1
100
AcDbLine
 10
122.001
 20
136.892
 30
0.0
 11
121.925
 21
137.275
 31
0.0
  0
LINE
  5
C5
330
1D
100
AcDbEntity
  8
0
 62
     1
100
AcDbLine
 10
121.925
 20
137.275
 30
0.0
 11
122.001
 21
137.658
 31
0.0
  0
LINE
  5
C6
330
1D
100
AcDbEntity
  8
0
 62
     1
100
AcDbLine
 10
122.001
 20
137.658
 30
0.0
 11
122.218
 21
137.982
 31
0.0
  0
LINE
  5
C7
330
1D
100
AcDbEntity
  8
0
 62
     1
100
AcDbLine
 10
122.218
 20
137.982
 30
0.0
 11
122.542
 21
138.199
 31
0.0
  0
LINE
  5
C8
330
1D
100
AcDbEntity
  8
0
 62
     1
100
AcDbLine
 10
122.542
 20
138.199
 30
0.0
 11
122.925
 21
138.275
 31
0.0
  0
LINE
  5
C9
330
1D
100
AcDbEntity
  8
0
 62
     1
100
AcDbLine
 10
122.925
 20
138.275
 30
0.0
 11
123.308
 21
138.199
 31
0.0
  0
LINE
  5
CA
330
1D
100
AcDbEntity
  8
0
 62
     1
100
AcDbLine
 10
123.308
 20
138.199
 30
0.0
 11
123.632
 21
137.982
 31
0.0
  0
LINE
  5
CB
330
1D
100
AcDbEntity
  8
0
 62
     1
100
AcDbLine
 10
123.632
 20
137.982
 30
0.0
 11
123.849
 21
137.658
 31
0.0
  0
LINE
  5
CC
330
1D
100
AcDbEntity
  8
0
 62
     1
100
AcDbLine
 10
123.849
 20
137.658
 30
0.0
 11
123.925
 21
137.275
 31
0.0
  0
LINE
  5
CD
330
1D
100
AcDbEntity
  8
0
 62
     1
100
AcDbLine
 10
123.925
 20
137.275
 30
0.0
 11
123.849
 21
136.892
 31
0.0
  0
LINE
  5
CE
330
1D
100
AcDbEntity
  8
0
 62
     1
100
AcDbLine
 10
123.849
 20
136.892
 30
0.0
 11
123.632
 21
136.568
 31
0.0
  0
LINE
  5
CF
330
1D
100
AcDbEntity
  8
0
 62
     1
100
AcDbLine
 10
123.632
 20
136.568
 30
0.0
 11
123.308
 21
136.351
 31
0.0
  0
LINE
  5
D0
330
1D
100
AcDbEntity
  8
0
 62
     1
100
AcDbLine
 10
123.308
 20
136.351
 30
0.0
 11
122.925
 21
136.275
 31
0.0
  0
LINE
  5
D1
330
1D
100
AcDbEntity
  8
0
 62
     1
100
AcDbLine
 10
122.925
 20
136.275
 30
0.0
 11
122.542
 21
136.351
 31
0.0
  0
LINE
  5
D2
330
1D
100
AcDbEntity
  8
0
 62
     1
100
AcDbLine
 10
126.925
 20
120.775
 30
0.0
 11
126.925
 21
124.275
 31
0.0
  0
LINE
  5
D3
330
1D
100
AcDbEntity
  8
0
 62
     1
100
AcDbLine
 10
126.925
 20
124.275
 30
0.0
 11
132.925
 21
124.275
 31
0.0
  0
LINE
  5
D4
330
1D
100
AcDbEntity
  8
0
 62
     1
100
AcDbLine
 10
132.925
 20
124.275
 30
0.0
 11
132.925
 21
120.775
 31
0.0
  0
LINE
  5
D5
330
1D
100
AcDbEntity
  8
0
 62
     1
100
AcDbLine
 10
132.925
 20
120.775
 30
0.0
 11
126.925
 21
120.775
 31
0.0
  0
LINE
  5
D6
330
1D
100
AcDbEntity
  8
0
 62
     1
100
AcDbLine
 10
120.017
 20
115.301
 30
0.0
 11
119.693
 21
115.518
 31
0.0
  0
LINE
  5
D7
330
1D
100
AcDbEntity
  8
0
 62
     1
100
AcDbLine
 10
119.693
 20
115.518
 30
0.0
 11
119.476
 21
115.842
 31
0.0
  0
LINE
  5
D8
330
1D
100
AcDbEntity
  8
0
 62
     1
100
AcDbLine
 10
119.476
 20
115.842
 30
0.0
 11
119.4
 21
116.225
 31
0.0
  0
LINE
  5
D9
330
1D
100
AcDbEntity
  8
0
 62
     1
100
AcDbLine
 10
119.4
 20
116.225
 30
0.0
 11
119.476
 21
116.608
 31
0.0
  0
LINE
  5
DA
330
1D
100
AcDbEntity
  8
0
 62
     1
100
AcDbLine
 10
119.476
 20
116.608
 30
0.0
 11
119.693
 21
116.932
 31
0.0
  0
LINE
  5
DB
330
1D
100
AcDbEntity
  8
0
 62
     1
100
AcDbLine
 10
119.693
 20
116.932
 30
0.0
 11
120.017
 21
117.149
 31
0.0
  0
LINE
  5
DC
330
1D
100
AcDbEntity
  8
0
 62
     1
100
AcDbLine
 10
120.017
 20
117.149
 30
0.0
 11
120.4
 21
117.225
 31
0.0
  0
LINE
  5
DD
330
1D
100
AcDbEntity
  8
0
 62
     1
100
AcDbLine
 10
120.4
 20
117.225
 30
0.0
 11
120.783
 21
117.149
 31
0.0
  0
LINE
  5
DE
330
1D
100
AcDbEntity
  8
0
 62
     1
100
AcDbLine
 10
120.783
 20
117.149
 30
0.0
 11
121.107
 21
116.932
 31
0.0
  0
LINE
  5
DF
330
1D
100
AcDbEntity
  8
0
 62
     1
100
AcDbLine
 10
121.107
 20
116.932
 30
0.0
 11
121.324
 21
116.608
 31
0.0
  0
LINE
  5
E0
330
1D
100
AcDbEntity
  8
0
 62
     1
100
AcDbLine
 10
121.324
 20
116.608
 30
0.0
 11
121.4
 21
116.225
 31
0.0
  0
LINE
  5
E1
330
1D
100
AcDbEntity
  8
0
 62
     1
100
AcDbLine
 10
121.4
 20
116.225
 30
0.0
 11
121.324
 21
115.842
 31
0.0
  0
LINE
  5
E2
330
1D
100
AcDbEntity
  8
0
 62
     1
100
AcDbLine
 10
121.324
 20
115.842
 30
0.0
 11
121.107
 21
115.518
 31
0.0
  0
LINE
  5
E3
330
1D
100
AcDbEntity
  8
0
 62
     1
100
AcDbLine
 10
121.107
 20
115.518
 30
0.0
 11
120.783
 21
115.301
 31
0.0
  0
LINE
  5
E4
330
1D
100
AcDbEntity
  8
0
 62
     1
100
AcDbLine
 10
120.783
 20
115.301
 30
0.0
 11
120.4
 21
115.225
 31
0.0
  0
LINE
  5
E5
330
1D
100
AcDbEntity
  8
0
 62
     1
100
AcDbLine
 10
120.4
 20
115.225
 30
0.0
 11
120.017
 21
115.301
 31
0.0
  0
LINE
  5
E6
330
1D
100
AcDbEntity
  8
0
 62
     1
100
AcDbLine
 10
24.7673
 20
115.301
 30
0.0
 11
24.4429
 21
115.518
 31
0.0
  0
LINE
  5
E7
330
1D
100
AcDbEntity
  8
0
 62
     1
100
AcDbLine
 10
24.4429
 20
115.518
 30
0.0
 11
24.2261
 21
115.842
 31
0.0
  0
LINE
  5
E8
330
1D
100
AcDbEntity
  8
0
 62
     1
100
AcDbLine
 10
24.2261
 20
115.842
 30
0.0
 11
24.15
 21
116.225
 31
0.0
  0
LINE
  5
E9
330
1D
100
AcDbEntity
  8
0
 62
     1
100
AcDbLine
 10
24.15
 20
116.225
 30
0.0
 11
24.2261
 21
116.608
 31
0.0
  0
LINE
  5
EA
330
1D
100
AcDbEntity
  8
0
 62
     1
100
AcDbLine
 10
24.2261
 20
116.608
 30
0.0
 11
24.4429
 21
116.932
 31
0.0
  0
LINE
  5
EB
330
1D
100
AcDbEntity
  8
0
 62
     1
100
AcDbLine
 10
24.4429
 20
116.932
 30
0.0
 11
24.7673
 21
117.149
 31
0.0
  0
LINE
  5
EC
330
1D
100
AcDbEntity
  8
0
 62
     1
100
AcDbLine
 10
24.7673
 20
117.149
 30
0.0
 11
25.15
 21
117.225
 31
0.0
  0
LINE
  5
ED
330
1D
100
AcDbEntity
  8
0
 62
     1
100
AcDbLine
 10
25.15
 20
117.225
 30
0.0
 11
25.5327
 21
117.149
 31
0.0
  0
LINE
  5
EE
330
1D
100
AcDbEntity
  8
0
 62
     1
100
AcDbLine
 10
25.5327
 20
117.149
 30
0.0
 11
25.8571
 21
116.932
 31
0.0
  0
LINE
  5
EF
330
1D
100
AcDbEntity
  8
0
 62
     1
100
AcDbLine
 10
25.8571
 20
116.932
 30
0.0
 11
26.0739
 21
116.608
 31
0.0
  0
LINE
  5
F0
330
1D
100
AcDbEntity
  8
0
 62
     1
100
AcDbLine
 10
26.0739
 20
116.608
 30
0.0
 11
26.15
 21
116.225
 31
0.0
  0
LINE
  5
F1
330
1D
100
AcDbEntity
  8
0
 62
     1
100
AcDbLine
 10
26.15
 20
116.225
 30
0.0
 11
26.0739
 21
115.842
 31
0.0
  0
LINE
  5
F2
330
1D
100
AcDbEntity
  8
0
 62
     1
100
AcDbLine
 10
26.0739
 20
115.842
 30
0.0
 11
25.8571
 21
115.518
 31
0.0
  0
LINE
  5
F3
330
1D
100
AcDbEntity
  8
0
 62
     1
100
AcDbLine
 10
25.8571
 20
115.518
 30
0.0
 11
25.5327
 21
115.301
 31
0.0
  0
LINE
  5
F4
330
1D
100
AcDbEntity
  8
0
 62
     1
100
AcDbLine
 10
25.5327
 20
115.301
 30
0.0
 11
25.15
 21
115.225
 31
0.0
  0
LINE
  5
F5
330
1D
100
AcDbEntity
  8
0
 62
     1
100
AcDbLine
 10
25.15
 20
115.225
 30
0.0
 11
24.7673
 21
115.301
 31
0.0
  0
LINE
  5
F6
330
1D
100
AcDbEntity
  8
0
 62
     1
100
AcDbLine
 10
171.025
 20
109.275
 30
0.0
 11
15.625
 21
109.275
 31
0.0
  0
LINE
  5
F7
330
1D
100
AcDbEntity
  8
0
 62
     1
100
AcDbLine
 10
15.625
 20
109.275
 30
0.0
 11
15.625
 21
86.225
 31
0.0
  0
LINE
  5
F8
330
1D
100
AcDbEntity
  8
0
 62
     1
100
AcDbLine
 10
15.625
 20
86.225
 30
0.0
 11
6.10001
 21
86.225
 31
0.0
  0
LINE
  5
F9
330
1D
100
AcDbEntity
  8
0
 62
     1
100
AcDbLine
 10
6.10001
 20
86.225
 30
0.0
 11
6.10001
 21
67.175
 31
0.0
  0
LINE
  5
FA
330
1D
100
AcDbEntity
  8
0
 62
     1
100
AcDbLine
 10
6.10001
 20
67.175
 30
0.0
 11
10.8625
 21
67.175
 31
0.0
  0
LINE
  5
FB
330
1D
100
AcDbEntity
  8
0
 62
     1
100
AcDbLine
 10
10.8625
 20
67.175
 30
0.0
 11
10.8625
 21
48.125
 31
0.0
  0
LINE
  5
FC
330
1D
100
AcDbEntity
  8
0
 62
     1
100
AcDbLine
 10
10.8625
 20
48.125
 30
0.0
 11
20.3875
 21
48.125
 31
0.0
  0
LINE
  5
FD
330
1D
100
AcDbEntity
  8
0
 62
     1
100
AcDbLine
 10
20.3875
 20
48.125
 30
0.0
 11
20.3875
 21
6.02501
 31
0.0
  0
LINE
  5
FE
330
1D
100
AcDbEntity
  8
0
 62
     1
100
AcDbLine
 10
20.3875
 20
6.02501
 30
0.0
 11
171.025
 21
6.02501
 31
0.0
  0
LINE
  5
FF
330
1D
100
AcDbEntity
  8
0
 62
     1
100
AcDbLine
 10
172.025
 20
7.02501
 30
0.0
 11
172.025
 21
108.275
 31
0.0
  0
LINE
  5
100
330
1D
100
AcDbEntity
  8
0
 62
     1
100
AcDbLine
 10
169.642
 20
106.351
 30
0.0
 11
169.318
 21
106.568
 31
0.0
  0
LINE
  5
101
330
1D
100
AcDbEntity
  8
0
 62
     1
100
AcDbLine
 10
169.318
 20
106.568
 30
0.0
 11
169.101
 21
106.892
 31
0.0
  0
LINE
  5
102
330
1D
100
AcDbEntity
  8
0
 62
     1
100
AcDbLine
 10
169.101
 20
106.892
 30
0.0
 11
169.025
 21
107.275
 31
0.0
  0
LINE
  5
103
330
1D
100
AcDbEntity
  8
0
 62
     1
100
AcDbLine
 10
169.025
 20
107.275
 30
0.0
 11
169.101
 21
107.658
 31
0.0
  0
LINE
  5
104
330
1D
100
AcDbEntity
  8
0
 62
     1
100
AcDbLine
 10
169.101
 20
107.658
 30
0.0
 11
169.318
 21
107.982
 31
0.0
  0
LINE
  5
105
330
1D
100
AcDbEntity
  8
0
 62
     1
100
AcDbLine
 10
169.318
 20
107.982
 30
0.0
 11
169.642
 21
108.199
 31
0.0
  0
LINE
  5
106
330
1D
100
AcDbEntity
  8
0
 62
     1
100
AcDbLine
 10
169.642
 20
108.199
 30
0.0
 11
170.025
 21
108.275
 31
0.0
  0
LINE
  5
107
330
1D
100
AcDbEntity
  8
0
 62
     1
100
AcDbLine
 10
170.025
 20
108.275
 30
0.0
 11
170.408
 21
108.199
 31
0.0
  0
LINE
  5
108
330
1D
100
AcDbEntity
  8
0
 62
     1
100
AcDbLine
 10
170.408
 20
108.199
 30
0.0
 11
170.732
 21
107.982
 31
0.0
  0
LINE
  5
109
330
1D
100
AcDbEntity
  8
0
 62
     1
100
AcDbLine
 10
170.732
 20
107.982
 30
0.0
 11
170.949
 21
107.658
 31
0.0
  0
LINE
  5
10A
330
1D
100
AcDbEntity
  8
0
 62
     1
100
AcDbLine
 10
170.949
 20
107.658
 30
0.0
 11
171.025
 21
107.275
 31
0.0
  0
LINE
  5
10B
330
1D
100
AcDbEntity
  8
0
 62
     1
100
AcDbLine
 10
171.025
 20
107.275
 30
0.0
 11
170.949
 21
106.892
 31
0.0
  0
LINE
  5
10C
330
1D
100
AcDbEntity
  8
0
 62
     1
100
AcDbLine
 10
170.949
 20
106.892
 30
0.0
 11
170.732
 21
106.568
 31
0.0
  0
LINE
  5
10D
330
1D
100
AcDbEntity
  8
0
 62
     1
100
AcDbLine
 10
170.732
 20
106.568
 30
0.0
 11
170.408
 21
106.351
 31
0.0
  0
LINE
  5
10E
330
1D
100
AcDbEntity
  8
0
 62
     1
100
AcDbLine
 10
170.408
 20
106.351
 30
0.0
 11
170.025
 21
106.275
 31
0.0
  0
LINE
  5
10F
330
1D
100
AcDbEntity
  8
0
 62
     1
100
AcDbLine
 10
170.025
 20
106.275
 30
0.0
 11
169.642
 21
106.351
 31
0.0
  0
LINE
  5
110
330
1D
100
AcDbEntity
  8
0
 62
     1
100
AcDbLine
 10
122.542
 20
106.351
 30
0.0
 11
122.218
 21
106.568
 31
0.0
  0
LINE
  5
111
330
1D
100
AcDbEntity
  8
0
 62
     1
100
AcDbLine
 10
122.218
 20
106.568
 30
0.0
 11
122.001
 21
106.892
 31
0.0
  0
LINE
  5
112
330
1D
100
AcDbEntity
  8
0
 62
     1
100
AcDbLine
 10
122.001
 20
106.892
 30
0.0
 11
121.925
 21
107.275
 31
0.0
  0
LINE
  5
113
330
1D
100
AcDbEntity
  8
0
 62
     1
100
AcDbLine
 10
121.925
 20
107.275
 30
0.0
 11
122.001
 21
107.658
 31
0.0
  0
LINE
  5
114
330
1D
100
AcDbEntity
  8
0
 62
     1
100
AcDbLine
 10
122.001
 20
107.658
 30
0.0
 11
122.218
 21
107.982
 31
0.0
  0
LINE
  5
115
330
1D
100
AcDbEntity
  8
0
 62
     1
100
AcDbLine
 10
122.218
 20
107.982
 30
0.0
 11
122.542
 21
108.199
 31
0.0
  0
LINE
  5
116
330
1D
100
AcDbEntity
  8
0
 62
     1
100
AcDbLine
 10
122.542
 20
108.199
 30
0.0
 11
122.925
 21
108.275
 31
0.0
  0
LINE
  5
117
330
1D
100
AcDbEntity
  8
0
 62
     1
100
AcDbLine
 10
122.925
 20
108.275
 30
0.0
 11
123.308
 21
108.199
 31
0.0
  0
LINE
  5
118
330
1D
100
AcDbEntity
  8
0
 62
     1
100
AcDbLine
 10
123.308
 20
108.199
 30
0.0
 11
123.632
 21
107.982
 31
0.0
  0
LINE
  5
119
330
1D
100
AcDbEntity
  8
0
 62
     1
100
AcDbLine
 10
123.632
 20
107.982
 30
0.0
 11
123.849
 21
107.658
 31
0.0
  0
LINE
  5
11A
330
1D
100
AcDbEntity
  8
0
 62
     1
100
AcDbLine
 10
123.849
 20
107.658
 30
0.0
 11
123.925
 21
107.275
 31
0.0
  0
LINE
  5
11B
330
1D
100
AcDbEntity
  8
0
 62
     1
100
AcDbLine
 10
123.925
 20
107.275
 30
0.0
 11
123.849
 21
106.892
 31
0.0
  0
LINE
  5
11C
330
1D
100
AcDbEntity
  8
0
 62
     1
100
AcDbLine
 10
123.849
 20
106.892
 30
0.0
 11
123.632
 21
106.568
 31
0.0
  0
LINE
  5
11D
330
1D
100
AcDbEntity
  8
0
 62
     1
100
AcDbLine
 10
123.632
 20
106.568
 30
0.0
 11
123.308
 21
106.351
 31
0.0
  0
LINE
  5
11E
330
1D
100
AcDbEntity
  8
0
 62
     1
100
AcDbLine
 10
123.308
 20
106.351
 30
0.0
 11
122.925
 21
106.275
 31
0.0
  0
LINE
  5
11F
330
1D
100
AcDbEntity
  8
0
 62
     1
100
AcDbLine
 10
122.925
 20
106.275
 30
0.0
 11
122.542
 21
106.351
 31
0.0
  0
LINE
  5
120
330
1D
100
AcDbEntity
  8
0
 62
     1
100
AcDbLine
 10
17.2423
 20
106.351
 30
0.0
 11
16.9179
 21
106.568
 31
0.0
  0
LINE
  5
121
330
1D
100
AcDbEntity
  8
0
 62
     1
100
AcDbLine
 10
16.9179
 20
106.568
 30
0.0
 11
16.7011
 21
106.892
 31
0.0
  0
LINE
  5
122
330
1D
100
AcDbEntity
  8
0
 62
     1
100
AcDbLine
 10
16.7011
 20
106.892
 30
0.0
 11
16.625
 21
107.275
 31
0.0
  0
LINE
  5
123
330
1D
100
AcDbEntity
  8
0
 62
     1
100
AcDbLine
 10
16.625
 20
107.275
 30
0.0
 11
16.7011
 21
107.658
 31
0.0
  0
LINE
  5
124
330
1D
100
AcDbEntity
  8
0
 62
     1
100
AcDbLine
 10
16.7011
 20
107.658
 30
0.0
 11
16.9179
 21
107.982
 31
0.0
  0
LINE
  5
125
330
1D
100
AcDbEntity
  8
0
 62
     1
100
AcDbLine
 10
16.9179
 20
107.982
 30
0.0
 11
17.2423
 21
108.199
 31
0.0
  0
LINE
  5
126
330
1D
100
AcDbEntity
  8
0
 62
     1
100
AcDbLine
 10
17.2423
 20
108.199
 30
0.0
 11
17.625
 21
108.275
 31
0.0
  0
LINE
  5
127
330
1D
100
AcDbEntity
  8
0
 62
     1
100
AcDbLine
 10
17.625
 20
108.275
 30
0.0
 11
18.0077
 21
108.199
 31
0.0
  0
LINE
  5
128
330
1D
100
AcDbEntity
  8
0
 62
     1
100
AcDbLine
 10
18.0077
 20
108.199
 30
0.0
 11
18.3321
 21
107.982
 31
0.0
  0
LINE
  5
129
330
1D
100
AcDbEntity
  8
0
 62
     1
100
AcDbLine
 10
18.3321
 20
107.982
 30
0.0
 11
18.5489
 21
107.658
 31
0.0
  0
LINE
  5
12A
330
1D
100
AcDbEntity
  8
0
 62
     1
100
AcDbLine
 10
18.5489
 20
107.658
 30
0.0
 11
18.625
 21
107.275
 31
0.0
  0
LINE
  5
12B
330
1D
100
AcDbEntity
  8
0
 62
     1
100
AcDbLine
 10
18.625
 20
107.275
 30
0.0
 11
18.5489
 21
106.892
 31
0.0
  0
LINE
  5
12C
330
1D
100
AcDbEntity
  8
0
 62
     1
100
AcDbLine
 10
18.5489
 20
106.892
 30
0.0
 11
18.3321
 21
106.568
 31
0.0
  0
LINE
  5
12D
330
1D
100
AcDbEntity
  8
0
 62
     1
100
AcDbLine
 10
18.3321
 20
106.568
 30
0.0
 11
18.0077
 21
106.351
 31
0.0
  0
LINE
  5
12E
330
1D
100
AcDbEntity
  8
0
 62
     1
100
AcDbLine
 10
18.0077
 20
106.351
 30
0.0
 11
17.625
 21
106.275
 31
0.0
  0
LINE
  5
12F
330
1D
100
AcDbEntity
  8
0
 62
     1
100
AcDbLine
 10
17.625
 20
106.275
 30
0.0
 11
17.2423
 21
106.351
 31
0.0
  0
LINE
  5
130
330
1D
100
AcDbEntity
  8
0
 62
     1
100
AcDbLine
 10
136.542
 20
106.351
 30
0.0
 11
136.218
 21
106.568
 31
0.0
  0
LINE
  5
131
330
1D
100
AcDbEntity
  8
0
 62
     1
100
AcDbLine
 10
136.218
 20
106.568
 30
0.0
 11
136.001
 21
106.892
 31
0.0
  0
LINE
  5
132
330
1D
100
AcDbEntity
  8
0
 62
     1
100
AcDbLine
 10
136.001
 20
106.892
 30
0.0
 11
135.925
 21
107.275
 31
0.0
  0
LINE
  5
133
330
1D
100
AcDbEntity
  8
0
 62
     1
100
AcDbLine
 10
135.925
 20
107.275
 30
0.0
 11
136.001
 21
107.658
 31
0.0
  0
LINE
  5
134
330
1D
100
AcDbEntity
  8
0
 62
     1
100
AcDbLine
 10
136.001
 20
107.658
 30
0.0
 11
136.218
 21
107.982
 31
0.0
  0
LINE
  5
135
330
1D
100
AcDbEntity
  8
0
 62
     1
100
AcDbLine
 10
136.218
 20
107.982
 30
0.0
 11
136.542
 21
108.199
 31
0.0
  0
LINE
  5
136
330
1D
100
AcDbEntity
  8
0
 62
     1
100
AcDbLine
 10
136.542
 20
108.199
 30
0.0
 11
136.925
 21
108.275
 31
0.0
  0
LINE
  5
137
330
1D
100
AcDbEntity
  8
0
 62
     1
100
AcDbLine
 10
136.925
 20
108.275
 30
0.0
 11
137.308
 21
108.199
 31
0.0
  0
LINE
  5
138
330
1D
100
AcDbEntity
  8
0
 62
     1
100
AcDbLine
 10
137.308
 20
108.199
 30
0.0
 11
137.632
 21
107.982
 31
0.0
  0
LINE
  5
139
330
1D
100
AcDbEntity
  8
0
 62
     1
100
AcDbLine
 10
137.632
 20
107.982
 30
0.0
 11
137.849
 21
107.658
 31
0.0
  0
LINE
  5
13A
330
1D
100
AcDbEntity
  8
0
 62
     1
100
AcDbLine
 10
137.849
 20
107.658
 30
0.0
 11
137.925
 21
107.275
 31
0.0
  0
LINE
  5
13B
330
1D
100
AcDbEntity
  8
0
 62
     1
100
AcDbLine
 10
137.925
 20
107.275
 30
0.0
 11
137.849
 21
106.892
 31
0.0
  0
LINE
  5
13C
330
1D
100
AcDbEntity
  8
0
 62
     1
100
AcDbLine
 10
137.849
 20
106.892
 30
0.0
 11
137.632
 21
106.568
 31
0.0
  0
LINE
  5
13D
330
1D
100
AcDbEntity
  8
0
 62
     1
100
AcDbLine
 10
137.632
 20
106.568
 30
0.0
 11
137.308
 21
106.351
 31
0.0
  0
LINE
  5
13E
330
1D
100
AcDbEntity
  8
0
 62
     1
100
AcDbLine
 10
137.308
 20
106.351
 30
0.0
 11
136.925
 21
106.275
 31
0.0
  0
LINE
  5
13F
330
1D
100
AcDbEntity
  8
0
 62
     1
100
AcDbLine
 10
136.925
 20
106.275
 30
0.0
 11
136.542
 21
106.351
 31
0.0
  0
LINE
  5
140
330
1D
100
AcDbEntity
  8
0
 62
     1
100
AcDbLine
 10
37.2
 20
88.75
 30
0.0
 11
37.2
 21
102.75
 31
0.0
  0
LINE
  5
141
330
1D
100
AcDbEntity
  8
0
 62
     1
100
AcDbLine
 10
37.2
 20
102.75
 30
0.0
 11
51.2
 21
102.75
 31
0.0
  0
LINE
  5
142
330
1D
100
AcDbEntity
  8
0
 62
     1
100
AcDbLine
 10
51.2
 20
102.75
 30
0.0
 11
51.2
 21
88.75
 31
0.0
  0
LINE
  5
143
330
1D
100
AcDbEntity
  8
0
 62
     1
100
AcDbLine
 10
51.2
 20
88.75
 30
0.0
 11
37.2
 21
88.75
 31
0.0
  0
LINE
  5
144
330
1D
100
AcDbEntity
  8
0
 62
     1
100
AcDbLine
 10
56.25
 20
88.75
 30
0.0
 11
56.25
 21
102.75
 31
0.0
  0
LINE
  5
145
330
1D
100
AcDbEntity
  8
0
 62
     1
100
AcDbLine
 10
56.25
 20
102.75
 30
0.0
 11
70.25
 21
102.75
 31
0.0
  0
LINE
  5
146
330
1D
100
AcDbEntity
  8
0
 62
     1
100
AcDbLine
 10
70.25
 20
102.75
 30
0.0
 11
70.25
 21
88.75
 31
0.0
  0
LINE
  5
147
330
1D
100
AcDbEntity
  8
0
 62
     1
100
AcDbLine
 10
70.25
 20
88.75
 30
0.0
 11
56.25
 21
88.75
 31
0.0
  0
LINE
  5
148
330
1D
100
AcDbEntity
  8
0
 62
     1
100
AcDbLine
 10
94.35
 20
88.75
 30
0.0
 11
94.35
 21
102.75
 31
0.0
  0
LINE
  5
149
330
1D
100
AcDbEntity
  8
0
 62
     1
100
AcDbLine
 10
94.35
 20
102.75
 30
0.0
 11
108.35
 21
102.75
 31
0.0
  0
LINE
  5
14A
330
1D
100
AcDbEntity
  8
0
 62
     1
100
AcDbLine
 10
108.35
 20
102.75
 30
0.0
 11
108.35
 21
88.75
 31
0.0
  0
LINE
  5
14B
330
1D
100
AcDbEntity
  8
0
 62
     1
100
AcDbLine
 10
108.35
 20
88.75
 30
0.0
 11
94.35
 21
88.75
 31
0.0
  0
LINE
  5
14C
330
1D
100
AcDbEntity
  8
0
 62
     1
100
AcDbLine
 10
18.15
 20
88.75
 30
0.0
 11
18.15
 21
102.75
 31
0.0
  0
LINE
  5
14D
330
1D
100
AcDbEntity
  8
0
 62
     1
100
AcDbLine
 10
18.15
 20
102.75
 30
0.0
 11
32.15
 21
102.75
 31
0.0
  0
LINE
  5
14E
330
1D
100
AcDbEntity
  8
0
 62
     1
100
AcDbLine
 10
32.15
 20
102.75
 30
0.0
 11
32.15
 21
88.75
 31
0.0
  0
LINE
  5
14F
330
1D
100
AcDbEntity
  8
0
 62
     1
100
AcDbLine
 10
32.15
 20
88.75
 30
0.0
 11
18.15
 21
88.75
 31
0.0
  0
LINE
  5
150
330
1D
100
AcDbEntity
  8
0
 62
     1
100
AcDbLine
 10
75.3
 20
88.75
 30
0.0
 11
75.3
 21
102.75
 31
0.0
  0
LINE
  5
151
330
1D
100
AcDbEntity
  8
0
 62
     1
100
AcDbLine
 10
75.3
 20
102.75
 30
0.0
 11
89.3
 21
102.75
 31
0.0
  0
LINE
  5
152
330
1D
100
AcDbEntity
  8
0
 62
     1
100
AcDbLine
 10
89.3
 20
102.75
 30
0.0
 11
89.3
 21
88.75
 31
0.0
  0
LINE
  5
153
330
1D
100
AcDbEntity
  8
0
 62
     1
100
AcDbLine
 10
89.3
 20
88.75
 30
0.0
 11
75.3
 21
88.75
 31
0.0
  0
LINE
  5
154
330
1D
100
AcDbEntity
  8
0
 62
     1
100
AcDbLine
 10
151.5
 20
88.75
 30
0.0
 11
151.5
 21
102.75
 31
0.0
  0
LINE
  5
155
330
1D
100
AcDbEntity
  8
0
 62
     1
100
AcDbLine
 10
151.5
 20
102.75
 30
0.0
 11
165.5
 21
102.75
 31
0.0
  0
LINE
  5
156
330
1D
100
AcDbEntity
  8
0
 62
     1
100
AcDbLine
 10
165.5
 20
102.75
 30
0.0
 11
165.5
 21
88.75
 31
0.0
  0
LINE
  5
157
330
1D
100
AcDbEntity
  8
0
 62
     1
100
AcDbLine
 10
165.5
 20
88.75
 30
0.0
 11
151.5
 21
88.75
 31
0.0
  0
LINE
  5
158
330
1D
100
AcDbEntity
  8
0
 62
     1
100
AcDbLine
 10
113.4
 20
88.75
 30
0.0
 11
113.4
 21
102.75
 31
0.0
  0
LINE
  5
159
330
1D
100
AcDbEntity
  8
0
 62
     1
100
AcDbLine
 10
113.4
 20
102.75
 30
0.0
 11
127.4
 21
102.75
 31
0.0
  0
LINE
  5
15A
330
1D
100
AcDbEntity
  8
0
 62
     1
100
AcDbLine
 10
127.4
 20
102.75
 30
0.0
 11
127.4
 21
88.75
 31
0.0
  0
LINE
  5
15B
330
1D
100
AcDbEntity
  8
0
 62
     1
100
AcDbLine
 10
127.4
 20
88.75
 30
0.0
 11
113.4
 21
88.75
 31
0.0
  0
LINE
  5
15C
330
1D
100
AcDbEntity
  8
0
 62
     1
100
AcDbLine
 10
132.45
 20
88.75
 30
0.0
 11
132.45
 21
102.75
 31
0.0
  0
LINE
  5
15D
330
1D
100
AcDbEntity
  8
0
 62
     1
100
AcDbLine
 10
132.45
 20
102.75
 30
0.0
 11
146.45
 21
102.75
 31
0.0
  0
LINE
  5
15E
330
1D
100
AcDbEntity
  8
0
 62
     1
100
AcDbLine
 10
146.45
 20
102.75
 30
0.0
 11
146.45
 21
88.75
 31
0.0
  0
LINE
  5
15F
330
1D
100
AcDbEntity
  8
0
 62
     1
100
AcDbLine
 10
146.45
 20
88.75
 30
0.0
 11
132.45
 21
88.75
 31
0.0
  0
LINE
  5
160
330
1D
100
AcDbEntity
  8
0
 62
     1
100
AcDbLine
 10
24.7673
 20
85.3011
 30
0.0
 11
24.4429
 21
85.5179
 31
0.0
  0
LINE
  5
161
330
1D
100
AcDbEntity
  8
0
 62
     1
100
AcDbLine
 10
24.4429
 20
85.5179
 30
0.0
 11
24.2261
 21
85.8423
 31
0.0
  0
LINE
  5
162
330
1D
100
AcDbEntity
  8
0
 62
     1
100
AcDbLine
 10
24.2261
 20
85.8423
 30
0.0
 11
24.15
 21
86.225
 31
0.0
  0
LINE
  5
163
330
1D
100
AcDbEntity
  8
0
 62
     1
100
AcDbLine
 10
24.15
 20
86.225
 30
0.0
 11
24.2261
 21
86.6077
 31
0.0
  0
LINE
  5
164
330
1D
100
AcDbEntity
  8
0
 62
     1
100
AcDbLine
 10
24.2261
 20
86.6077
 30
0.0
 11
24.4429
 21
86.9321
 31
0.0
  0
LINE
  5
165
330
1D
100
AcDbEntity
  8
0
 62
     1
100
AcDbLine
 10
24.4429
 20
86.9321
 30
0.0
 11
24.7673
 21
87.1489
 31
0.0
  0
LINE
  5
166
330
1D
100
AcDbEntity
  8
0
 62
     1
100
AcDbLine
 10
24.7673
 20
87.1489
 30
0.0
 11
25.15
 21
87.225
 31
0.0
  0
LINE
  5
167
330
1D
100
AcDbEntity
  8
0
 62
     1
100
AcDbLine
 10
25.15
 20
87.225
 30
0.0
 11
25.5327
 21
87.1489
 31
0.0
  0
LINE
  5
168
330
1D
100
AcDbEntity
  8
0
 62
     1
100
AcDbLine
 10
25.5327
 20
87.1489
 30
0.0
 11
25.8571
 21
86.9321
 31
0.0
  0
LINE
  5
169
330
1D
100
AcDbEntity
  8
0
 62
     1
100
AcDbLine
 10
25.8571
 20
86.9321
 30
0.0
 11
26.0739
 21
86.6077
 31
0.0
  0
LINE
  5
16A
330
1D
100
AcDbEntity
  8
0
 62
     1
100
AcDbLine
 10
26.0739
 20
86.6077
 30
0.0
 11
26.15
 21
86.225
 31
0.0
  0
LINE
  5
16B
330
1D
100
AcDbEntity
  8
0
 62
     1
100
AcDbLine
 10
26.15
 20
86.225
 30
0.0
 11
26.0739
 21
85.8423
 31
0.0
  0
LINE
  5
16C
330
1D
100
AcDbEntity
  8
0
 62
     1
100
AcDbLine
 10
26.0739
 20
85.8423
 30
0.0
 11
25.8571
 21
85.5179
 31
0.0
  0
LINE
  5
16D
330
1D
100
AcDbEntity
  8
0
 62
     1
100
AcDbLine
 10
25.8571
 20
85.5179
 30
0.0
 11
25.5327
 21
85.3011
 31
0.0
  0
LINE
  5
16E
330
1D
100
AcDbEntity
  8
0
 62
     1
100
AcDbLine
 10
25.5327
 20
85.3011
 30
0.0
 11
25.15
 21
85.225
 31
0.0
  0
LINE
  5
16F
330
1D
100
AcDbEntity
  8
0
 62
     1
100
AcDbLine
 10
25.15
 20
85.225
 30
0.0
 11
24.7673
 21
85.3011
 31
0.0
  0
LINE
  5
170
330
1D
100
AcDbEntity
  8
0
 62
     1
100
AcDbLine
 10
120.017
 20
85.3011
 30
0.0
 11
119.693
 21
85.5179
 31
0.0
  0
LINE
  5
171
330
1D
100
AcDbEntity
  8
0
 62
     1
100
AcDbLine
 10
119.693
 20
85.5179
 30
0.0
 11
119.476
 21
85.8423
 31
0.0
  0
LINE
  5
172
330
1D
100
AcDbEntity
  8
0
 62
     1
100
AcDbLine
 10
119.476
 20
85.8423
 30
0.0
 11
119.4
 21
86.225
 31
0.0
  0
LINE
  5
173
330
1D
100
AcDbEntity
  8
0
 62
     1
100
AcDbLine
 10
119.4
 20
86.225
 30
0.0
 11
119.476
 21
86.6077
 31
0.0
  0
LINE
  5
174
330
1D
100
AcDbEntity
  8
0
 62
     1
100
AcDbLine
 10
119.476
 20
86.6077
 30
0.0
 11
119.693
 21
86.9321
 31
0.0
  0
LINE
  5
175
330
1D
100
AcDbEntity
  8
0
 62
     1
100
AcDbLine
 10
119.693
 20
86.9321
 30
0.0
 11
120.017
 21
87.1489
 31
0.0
  0
LINE
  5
176
330
1D
100
AcDbEntity
  8
0
 62
     1
100
AcDbLine
 10
120.017
 20
87.1489
 30
0.0
 11
120.4
 21
87.225
 31
0.0
  0
LINE
  5
177
330
1D
100
AcDbEntity
  8
0
 62
     1
100
AcDbLine
 10
120.4
 20
87.225
 30
0.0
 11
120.783
 21
87.1489
 31
0.0
  0
LINE
  5
178
330
1D
100
AcDbEntity
  8
0
 62
     1
100
AcDbLine
 10
120.783
 20
87.1489
 30
0.0
 11
121.107
 21
86.9321
 31
0.0
  0
LINE
  5
179
330
1D
100
AcDbEntity
  8
0
 62
     1
100
AcDbLine
 10
121.107
 20
86.9321
 30
0.0
 11
121.324
 21
86.6077
 31
0.0
  0
LINE
  5
17A
330
1D
100
AcDbEntity
  8
0
 62
     1
100
AcDbLine
 10
121.324
 20
86.6077
 30
0.0
 11
121.4
 21
86.225
 31
0.0
  0
LINE
  5
17B
330
1D
100
AcDbEntity
  8
0
 62
     1
100
AcDbLine
 10
121.4
 20
86.225
 30
0.0
 11
121.324
 21
85.8423
 31
0.0
  0
LINE
  5
17C
330
1D
100
AcDbEntity
  8
0
 62
     1
100
AcDbLine
 10
121.324
 20
85.8423
 30
0.0
 11
121.107
 21
85.5179
 31
0.0
  0
LINE
  5
17D
330
1D
100
AcDbEntity
  8
0
 62
     1
100
AcDbLine
 10
121.107
 20
85.5179
 30
0.0
 11
120.783
 21
85.3011
 31
0.0
  0
LINE
  5
17E
330
1D
100
AcDbEntity
  8
0
 62
     1
100
AcDbLine
 10
120.783
 20
85.3011
 30
0.0
 11
120.4
 21
85.225
 31
0.0
  0
LINE
  5
17F
330
1D
100
AcDbEntity
  8
0
 62
     1
100
AcDbLine
 10
120.4
 20
85.225
 30
0.0
 11
120.017
 21
85.3011
 31
0.0
  0
LINE
  5
180
330
1D
100
AcDbEntity
  8
0
 62
     1
100
AcDbLine
 10
146.738
 20
69.7
 30
0.0
 11
146.738
 21
83.7
 31
0.0
  0
LINE
  5
181
330
1D
100
AcDbEntity
  8
0
 62
     1
100
AcDbLine
 10
146.738
 20
83.7
 30
0.0
 11
160.737
 21
83.7
 31
0.0
  0
LINE
  5
182
330
1D
100
AcDbEntity
  8
0
 62
     1
100
AcDbLine
 10
160.737
 20
83.7
 30
0.0
 11
160.737
 21
69.7
 31
0.0
  0
LINE
  5
183
330
1D
100
AcDbEntity
  8
0
 62
     1
100
AcDbLine
 10
160.737
 20
69.7
 30
0.0
 11
146.738
 21
69.7
 31
0.0
  0
LINE
  5
184
330
1D
100
AcDbEntity
  8
0
 62
     1
100
AcDbLine
 10
122.925
 20
69.7
 30
0.0
 11
122.925
 21
83.7
 31
0.0
  0
LINE
  5
185
330
1D
100
AcDbEntity
  8
0
 62
     1
100
AcDbLine
 10
122.925
 20
83.7
 30
0.0
 11
136.925
 21
83.7
 31
0.0
  0
LINE
  5
186
330
1D
100
AcDbEntity
  8
0
 62
     1
100
AcDbLine
 10
136.925
 20
83.7
 30
0.0
 11
136.925
 21
69.7
 31
0.0
  0
LINE
  5
187
330
1D
100
AcDbEntity
  8
0
 62
     1
100
AcDbLine
 10
136.925
 20
69.7
 30
0.0
 11
122.925
 21
69.7
 31
0.0
  0
LINE
  5
188
330
1D
100
AcDbEntity
  8
0
 62
     1
100
AcDbLine
 10
103.875
 20
69.7
 30
0.0
 11
103.875
 21
83.7
 31
0.0
  0
LINE
  5
189
330
1D
100
AcDbEntity
  8
0
 62
     1
100
AcDbLine
 10
103.875
 20
83.7
 30
0.0
 11
117.875
 21
83.7
 31
0.0
  0
LINE
  5
18A
330
1D
100
AcDbEntity
  8
0
 62
     1
100
AcDbLine
 10
117.875
 20
83.7
 30
0.0
 11
117.875
 21
69.7
 31
0.0
  0
LINE
  5
18B
330
1D
100
AcDbEntity
  8
0
 62
     1
100
AcDbLine
 10
117.875
 20
69.7
 30
0.0
 11
103.875
 21
69.7
 31
0.0
  0
LINE
  5
18C
330
1D
100
AcDbEntity
  8
0
 62
     1
100
AcDbLine
 10
8.625
 20
69.7
 30
0.0
 11
8.625
 21
83.7
 31
0.0
  0
LINE
  5
18D
330
1D
100
AcDbEntity
  8
0
 62
     1
100
AcDbLine
 10
8.625
 20
83.7
 30
0.0
 11
22.625
 21
83.7
 31
0.0
  0
LINE
  5
18E
330
1D
100
AcDbEntity
  8
0
 62
     1
100
AcDbLine
 10
22.625
 20
83.7
 30
0.0
 11
22.625
 21
69.7
 31
0.0
  0
LINE
  5
18F
330
1D
100
AcDbEntity
  8
0
 62
     1
100
AcDbLine
 10
22.625
 20
69.7
 30
0.0
 11
8.625
 21
69.7
 31
0.0
  0
LINE
  5
190
330
1D
100
AcDbEntity
  8
0
 62
     1
100
AcDbLine
 10
27.675
 20
69.7
 30
0.0
 11
27.675
 21
83.7
 31
0.0
  0
LINE
  5
191
330
1D
100
AcDbEntity
  8
0
 62
     1
100
AcDbLine
 10
27.675
 20
83.7
 30
0.0
 11
41.675
 21
83.7
 31
0.0
  0
LINE
  5
192
330
1D
100
AcDbEntity
  8
0
 62
     1
100
AcDbLine
 10
41.675
 20
83.7
 30
0.0
 11
41.675
 21
69.7
 31
0.0
  0
LINE
  5
193
330
1D
100
AcDbEntity
  8
0
 62
     1
100
AcDbLine
 10
41.675
 20
69.7
 30
0.0
 11
27.675
 21
69.7
 31
0.0
  0
LINE
  5
194
330
1D
100
AcDbEntity
  8
0
 62
     1
100
AcDbLine
 10
84.825
 20
69.7
 30
0.0
 11
84.825
 21
83.7
 31
0.0
  0
LINE
  5
195
330
1D
100
AcDbEntity
  8
0
 62
     1
100
AcDbLine
 10
84.825
 20
83.7
 30
0.0
 11
98.825
 21
83.7
 31
0.0
  0
LINE
  5
196
330
1D
100
AcDbEntity
  8
0
 62
     1
100
AcDbLine
 10
98.825
 20
83.7
 30
0.0
 11
98.825
 21
69.7
 31
0.0
  0
LINE
  5
197
330
1D
100
AcDbEntity
  8
0
 62
     1
100
AcDbLine
 10
98.825
 20
69.7
 30
0.0
 11
84.825
 21
69.7
 31
0.0
  0
LINE
  5
198
330
1D
100
AcDbEntity
  8
0
 62
     1
100
AcDbLine
 10
46.725
 20
69.7
 30
0.0
 11
46.725
 21
83.7
 31
0.0
  0
LINE
  5
199
330
1D
100
AcDbEntity
  8
0
 62
     1
100
AcDbLine
 10
46.725
 20
83.7
 30
0.0
 11
60.725
 21
83.7
 31
0.0
  0
LINE
  5
19A
330
1D
100
AcDbEntity
  8
0
 62
     1
100
AcDbLine
 10
60.725
 20
83.7
 30
0.0
 11
60.725
 21
69.7
 31
0.0
  0
LINE
  5
19B
330
1D
100
AcDbEntity
  8
0
 62
     1
100
AcDbLine
 10
60.725
 20
69.7
 30
0.0
 11
46.725
 21
69.7
 31
0.0
  0
LINE
  5
19C
330
1D
100
AcDbEntity
  8
0
 62
     1
100
AcDbLine
 10
65.775
 20
69.7
 30
0.0
 11
65.775
 21
83.7
 31
0.0
  0
LINE
  5
19D
330
1D
100
AcDbEntity
  8
0
 62
     1
100
AcDbLine
 10
65.775
 20
83.7
 30
0.0
 11
79.775
 21
83.7
 31
0.0
  0
LINE
  5
19E
330
1D
100
AcDbEntity
  8
0
 62
     1
100
AcDbLine
 10
79.775
 20
83.7
 30
0.0
 11
79.775
 21
69.7
 31
0.0
  0
LINE
  5
19F
330
1D
100
AcDbEntity
  8
0
 62
     1
100
AcDbLine
 10
79.775
 20
69.7
 30
0.0
 11
65.775
 21
69.7
 31
0.0
  0
LINE
  5
1A0
330
1D
100
AcDbEntity
  8
0
 62
     1
100
AcDbLine
 10
169.642
 20
66.2511
 30
0.0
 11
169.318
 21
66.4679
 31
0.0
  0
LINE
  5
1A1
330
1D
100
AcDbEntity
  8
0
 62
     1
100
AcDbLine
 10
169.318
 20
66.4679
 30
0.0
 11
169.101
 21
66.7923
 31
0.0
  0
LINE
  5
1A2
330
1D
100
AcDbEntity
  8
0
 62
     1
100
AcDbLine
 10
169.101
 20
66.7923
 30
0.0
 11
169.025
 21
67.175
 31
0.0
  0
LINE
  5
1A3
330
1D
100
AcDbEntity
  8
0
 62
     1
100
AcDbLine
 10
169.025
 20
67.175
 30
0.0
 11
169.101
 21
67.5577
 31
0.0
  0
LINE
  5
1A4
330
1D
100
AcDbEntity
  8
0
 62
     1
100
AcDbLine
 10
169.101
 20
67.5577
 30
0.0
 11
169.318
 21
67.8821
 31
0.0
  0
LINE
  5
1A5
330
1D
100
AcDbEntity
  8
0
 62
     1
100
AcDbLine
 10
169.318
 20
67.8821
 30
0.0
 11
169.642
 21
68.0989
 31
0.0
  0
LINE
  5
1A6
330
1D
100
AcDbEntity
  8
0
 62
     1
100
AcDbLine
 10
169.642
 20
68.0989
 30
0.0
 11
170.025
 21
68.175
 31
0.0
  0
LINE
  5
1A7
330
1D
100
AcDbEntity
  8
0
 62
     1
100
AcDbLine
 10
170.025
 20
68.175
 30
0.0
 11
170.408
 21
68.0989
 31
0.0
  0
LINE
  5
1A8
330
1D
100
AcDbEntity
  8
0
 62
     1
100
AcDbLine
 10
170.408
 20
68.0989
 30
0.0
 11
170.732
 21
67.8821
 31
0.0
  0
LINE
  5
1A9
330
1D
100
AcDbEntity
  8
0
 62
     1
100
AcDbLine
 10
170.732
 20
67.8821
 30
0.0
 11
170.949
 21
67.5577
 31
0.0
  0
LINE
  5
1AA
330
1D
100
AcDbEntity
  8
0
 62
     1
100
AcDbLine
 10
170.949
 20
67.5577
 30
0.0
 11
171.025
 21
67.175
 31
0.0
  0
LINE
  5
1AB
330
1D
100
AcDbEntity
  8
0
 62
     1
100
AcDbLine
 10
171.025
 20
67.175
 30
0.0
 11
170.949
 21
66.7923
 31
0.0
  0
LINE
  5
1AC
330
1D
100
AcDbEntity
  8
0
 62
     1
100
AcDbLine
 10
170.949
 20
66.7923
 30
0.0
 11
170.732
 21
66.4679
 31
0.0
  0
LINE
  5
1AD
330
1D
100
AcDbEntity
  8
0
 62
     1
100
AcDbLine
 10
170.732
 20
66.4679
 30
0.0
 11
170.408
 21
66.2511
 31
0.0
  0
LINE
  5
1AE
330
1D
100
AcDbEntity
  8
0
 62
     1
100
AcDbLine
 10
170.408
 20
66.2511
 30
0.0
 11
170.025
 21
66.175
 31
0.0
  0
LINE
  5
1AF
330
1D
100
AcDbEntity
  8
0
 62
     1
100
AcDbLine
 10
170.025
 20
66.175
 30
0.0
 11
169.642
 21
66.2511
 31
0.0
  0
LINE
  5
1B0
330
1D
100
AcDbEntity
  8
0
 62
     1
100
AcDbLine
 10
29.5298
 20
66.2511
 30
0.0
 11
29.2054
 21
66.4679
 31
0.0
  0
LINE
  5
1B1
330
1D
100
AcDbEntity
  8
0
 62
     1
100
AcDbLine
 10
29.2054
 20
66.4679
 30
0.0
 11
28.9886
 21
66.7923
 31
0.0
  0
LINE
  5
1B2
330
1D
100
AcDbEntity
  8
0
 62
     1
100
AcDbLine
 10
28.9886
 20
66.7923
 30
0.0
 11
28.9125
 21
67.175
 31
0.0
  0
LINE
  5
1B3
330
1D
100
AcDbEntity
  8
0
 62
     1
100
AcDbLine
 10
28.9125
 20
67.175
 30
0.0
 11
28.9886
 21
67.5577
 31
0.0
  0
LINE
  5
1B4
330
1D
100
AcDbEntity
  8
0
 62
     1
100
AcDbLine
 10
28.9886
 20
67.5577
 30
0.0
 11
29.2054
 21
67.8821
 31
0.0
  0
LINE
  5
1B5
330
1D
100
AcDbEntity
  8
0
 62
     1
100
AcDbLine
 10
29.2054
 20
67.8821
 30
0.0
 11
29.5298
 21
68.0989
 31
0.0
  0
LINE
  5
1B6
330
1D
100
AcDbEntity
  8
0
 62
     1
100
AcDbLine
 10
29.5298
 20
68.0989
 30
0.0
 11
29.9125
 21
68.175
 31
0.0
  0
LINE
  5
1B7
330
1D
100
AcDbEntity
  8
0
 62
     1
100
AcDbLine
 10
29.9125
 20
68.175
 30
0.0
 11
30.2952
 21
68.0989
 31
0.0
  0
LINE
  5
1B8
330
1D
100
AcDbEntity
  8
0
 62
     1
100
AcDbLine
 10
30.2952
 20
68.0989
 30
0.0
 11
30.6196
 21
67.8821
 31
0.0
  0
LINE
  5
1B9
330
1D
100
AcDbEntity
  8
0
 62
     1
100
AcDbLine
 10
30.6196
 20
67.8821
 30
0.0
 11
30.8364
 21
67.5577
 31
0.0
  0
LINE
  5
1BA
330
1D
100
AcDbEntity
  8
0
 62
     1
100
AcDbLine
 10
30.8364
 20
67.5577
 30
0.0
 11
30.9125
 21
67.175
 31
0.0
  0
LINE
  5
1BB
330
1D
100
AcDbEntity
  8
0
 62
     1
100
AcDbLine
 10
30.9125
 20
67.175
 30
0.0
 11
30.8364
 21
66.7923
 31
0.0
  0
LINE
  5
1BC
330
1D
100
AcDbEntity
  8
0
 62
     1
100
AcDbLine
 10
30.8364
 20
66.7923
 30
0.0
 11
30.6196
 21
66.4679
 31
0.0
  0
LINE
  5
1BD
330
1D
100
AcDbEntity
  8
0
 62
     1
100
AcDbLine
 10
30.6196
 20
66.4679
 30
0.0
 11
30.2952
 21
66.2511
 31
0.0
  0
LINE
  5
1BE
330
1D
100
AcDbEntity
  8
0
 62
     1
100
AcDbLine
 10
30.2952
 20
66.2511
 30
0.0
 11
29.9125
 21
66.175
 31
0.0
  0
LINE
  5
1BF
330
1D
100
AcDbEntity
  8
0
 62
     1
100
AcDbLine
 10
29.9125
 20
66.175
 30
0.0
 11
29.5298
 21
66.2511
 31
0.0
  0
LINE
  5
1C0
330
1D
100
AcDbEntity
  8
0
 62
     1
100
AcDbLine
 10
89.5875
 20
50.65
 30
0.0
 11
89.5875
 21
64.65
 31
0.0
  0
LINE
  5
1C1
330
1D
100
AcDbEntity
  8
0
 62
     1
100
AcDbLine
 10
89.5875
 20
64.65
 30
0.0
 11
103.588
 21
64.65
 31
0.0
  0
LINE
  5
1C2
330
1D
100
AcDbEntity
  8
0
 62
     1
100
AcDbLine
 10
103.588
 20
64.65
 30
0.0
 11
103.588
 21
50.65
 31
0.0
  0
LINE
  5
1C3
330
1D
100
AcDbEntity
  8
0
 62
     1
100
AcDbLine
 10
103.588
 20
50.65
 30
0.0
 11
89.5875
 21
50.65
 31
0.0
  0
LINE
  5
1C4
330
1D
100
AcDbEntity
  8
0
 62
     1
100
AcDbLine
 10
108.638
 20
50.65
 30
0.0
 11
108.638
 21
64.65
 31
0.0
  0
LINE
  5
1C5
330
1D
100
AcDbEntity
  8
0
 62
     1
100
AcDbLine
 10
108.638
 20
64.65
 30
0.0
 11
122.638
 21
64.65
 31
0.0
  0
LINE
  5
1C6
330
1D
100
AcDbEntity
  8
0
 62
     1
100
AcDbLine
 10
122.638
 20
64.65
 30
0.0
 11
122.638
 21
50.65
 31
0.0
  0
LINE
  5
1C7
330
1D
100
AcDbEntity
  8
0
 62
     1
100
AcDbLine
 10
122.638
 20
50.65
 30
0.0
 11
108.638
 21
50.65
 31
0.0
  0
LINE
  5
1C8
330
1D
100
AcDbEntity
  8
0
 62
     1
100
AcDbLine
 10
70.5375
 20
50.65
 30
0.0
 11
70.5375
 21
64.65
 31
0.0
  0
LINE
  5
1C9
330
1D
100
AcDbEntity
  8
0
 62
     1
100
AcDbLine
 10
70.5375
 20
64.65
 30
0.0
 11
84.5375
 21
64.65
 31
0.0
  0
LINE
  5
1CA
330
1D
100
AcDbEntity
  8
0
 62
     1
100
AcDbLine
 10
84.5375
 20
64.65
 30
0.0
 11
84.5375
 21
50.65
 31
0.0
  0
LINE
  5
1CB
330
1D
100
AcDbEntity
  8
0
 62
     1
100
AcDbLine
 10
84.5375
 20
50.65
 30
0.0
 11
70.5375
 21
50.65
 31
0.0
  0
LINE
  5
1CC
330
1D
100
AcDbEntity
  8
0
 62
     1
100
AcDbLine
 10
51.4875
 20
50.65
 30
0.0
 11
51.4875
 21
64.65
 31
0.0
  0
LINE
  5
1CD
330
1D
100
AcDbEntity
  8
0
 62
     1
100
AcDbLine
 10
51.4875
 20
64.65
 30
0.0
 11
65.4875
 21
64.65
 31
0.0
  0
LINE
  5
1CE
330
1D
100
AcDbEntity
  8
0
 62
     1
100
AcDbLine
 10
65.4875
 20
64.65
 30
0.0
 11
65.4875
 21
50.65
 31
0.0
  0
LINE
  5
1CF
330
1D
100
AcDbEntity
  8
0
 62
     1
100
AcDbLine
 10
65.4875
 20
50.65
 30
0.0
 11
51.4875
 21
50.65
 31
0.0
  0
LINE
  5
1D0
330
1D
100
AcDbEntity
  8
0
 62
     1
100
AcDbLine
 10
32.4375
 20
50.65
 30
0.0
 11
32.4375
 21
64.65
 31
0.0
  0
LINE
  5
1D1
330
1D
100
AcDbEntity
  8
0
 62
     1
100
AcDbLine
 10
32.4375
 20
64.65
 30
0.0
 11
46.4375
 21
64.65
 31
0.0
  0
LINE
  5
1D2
330
1D
100
AcDbEntity
  8
0
 62
     1
100
AcDbLine
 10
46.4375
 20
64.65
 30
0.0
 11
46.4375
 21
50.65
 31
0.0
  0
LINE
  5
1D3
330
1D
100
AcDbEntity
  8
0
 62
     1
100
AcDbLine
 10
46.4375
 20
50.65
 30
0.0
 11
32.4375
 21
50.65
 31
0.0
  0
LINE
  5
1D4
330
1D
100
AcDbEntity
  8
0
 62
     1
100
AcDbLine
 10
13.3875
 20
50.65
 30
0.0
 11
13.3875
 21
64.65
 31
0.0
  0
LINE
  5
1D5
330
1D
100
AcDbEntity
  8
0
 62
     1
100
AcDbLine
 10
13.3875
 20
64.65
 30
0.0
 11
27.3875
 21
64.65
 31
0.0
  0
LINE
  5
1D6
330
1D
100
AcDbEntity
  8
0
 62
     1
100
AcDbLine
 10
27.3875
 20
64.65
 30
0.0
 11
27.3875
 21
50.65
 31
0.0
  0
LINE
  5
1D7
330
1D
100
AcDbEntity
  8
0
 62
     1
100
AcDbLine
 10
27.3875
 20
50.65
 30
0.0
 11
13.3875
 21
50.65
 31
0.0
  0
LINE
  5
1D8
330
1D
100
AcDbEntity
  8
0
 62
     1
100
AcDbLine
 10
139.594
 20
50.65
 30
0.0
 11
139.594
 21
64.65
 31
0.0
  0
LINE
  5
1D9
330
1D
100
AcDbEntity
  8
0
 62
     1
100
AcDbLine
 10
139.594
 20
64.65
 30
0.0
 11
153.594
 21
64.65
 31
0.0
  0
LINE
  5
1DA
330
1D
100
AcDbEntity
  8
0
 62
     1
100
AcDbLine
 10
153.594
 20
64.65
 30
0.0
 11
153.594
 21
50.65
 31
0.0
  0
LINE
  5
1DB
330
1D
100
AcDbEntity
  8
0
 62
     1
100
AcDbLine
 10
153.594
 20
50.65
 30
0.0
 11
139.594
 21
50.65
 31
0.0
  0
LINE
  5
1DC
330
1D
100
AcDbEntity
  8
0
 62
     1
100
AcDbLine
 10
39.0548
 20
47.2011
 30
0.0
 11
38.7304
 21
47.4179
 31
0.0
  0
LINE
  5
1DD
330
1D
100
AcDbEntity
  8
0
 62
     1
100
AcDbLine
 10
38.7304
 20
47.4179
 30
0.0
 11
38.5136
 21
47.7423
 31
0.0
  0
LINE
  5
1DE
330
1D
100
AcDbEntity
  8
0
 62
     1
100
AcDbLine
 10
38.5136
 20
47.7423
 30
0.0
 11
38.4375
 21
48.125
 31
0.0
  0
LINE
  5
1DF
330
1D
100
AcDbEntity
  8
0
 62
     1
100
AcDbLine
 10
38.4375
 20
48.125
 30
0.0
 11
38.5136
 21
48.5077
 31
0.0
  0
LINE
  5
1E0
330
1D
100
AcDbEntity
  8
0
 62
     1
100
AcDbLine
 10
38.5136
 20
48.5077
 30
0.0
 11
38.7304
 21
48.8321
 31
0.0
  0
LINE
  5
1E1
330
1D
100
AcDbEntity
  8
0
 62
     1
100
AcDbLine
 10
38.7304
 20
48.8321
 30
0.0
 11
39.0548
 21
49.0489
 31
0.0
  0
LINE
  5
1E2
330
1D
100
AcDbEntity
  8
0
 62
     1
100
AcDbLine
 10
39.0548
 20
49.0489
 30
0.0
 11
39.4375
 21
49.125
 31
0.0
  0
LINE
  5
1E3
330
1D
100
AcDbEntity
  8
0
 62
     1
100
AcDbLine
 10
39.4375
 20
49.125
 30
0.0
 11
39.8202
 21
49.0489
 31
0.0
  0
LINE
  5
1E4
330
1D
100
AcDbEntity
  8
0
 62
     1
100
AcDbLine
 10
39.8202
 20
49.0489
 30
0.0
 11
40.1446
 21
48.8321
 31
0.0
  0
LINE
  5
1E5
330
1D
100
AcDbEntity
  8
0
 62
     1
100
AcDbLine
 10
40.1446
 20
48.8321
 30
0.0
 11
40.3614
 21
48.5077
 31
0.0
  0
LINE
  5
1E6
330
1D
100
AcDbEntity
  8
0
 62
     1
100
AcDbLine
 10
40.3614
 20
48.5077
 30
0.0
 11
40.4375
 21
48.125
 31
0.0
  0
LINE
  5
1E7
330
1D
100
AcDbEntity
  8
0
 62
     1
100
AcDbLine
 10
40.4375
 20
48.125
 30
0.0
 11
40.3614
 21
47.7423
 31
0.0
  0
LINE
  5
1E8
330
1D
100
AcDbEntity
  8
0
 62
     1
100
AcDbLine
 10
40.3614
 20
47.7423
 30
0.0
 11
40.1446
 21
47.4179
 31
0.0
  0
LINE
  5
1E9
330
1D
100
AcDbEntity
  8
0
 62
     1
100
AcDbLine
 10
40.1446
 20
47.4179
 30
0.0
 11
39.8202
 21
47.2011
 31
0.0
  0
LINE
  5
1EA
330
1D
100
AcDbEntity
  8
0
 62
     1
100
AcDbLine
 10
39.8202
 20
47.2011
 30
0.0
 11
39.4375
 21
47.125
 31
0.0
  0
LINE
  5
1EB
330
1D
100
AcDbEntity
  8
0
 62
     1
100
AcDbLine
 10
39.4375
 20
47.125
 30
0.0
 11
39.0548
 21
47.2011
 31
0.0
  0
LINE
  5
1EC
330
1D
100
AcDbEntity
  8
0
 62
     1
100
AcDbLine
 10
115.255
 20
47.2011
 30
0.0
 11
114.93
 21
47.4179
 31
0.0
  0
LINE
  5
1ED
330
1D
100
AcDbEntity
  8
0
 62
     1
100
AcDbLine
 10
114.93
 20
47.4179
 30
0.0
 11
114.714
 21
47.7423
 31
0.0
  0
LINE
  5
1EE
330
1D
100
AcDbEntity
  8
0
 62
     1
100
AcDbLine
 10
114.714
 20
47.7423
 30
0.0
 11
114.638
 21
48.125
 31
0.0
  0
LINE
  5
1EF
330
1D
100
AcDbEntity
  8
0
 62
     1
100
AcDbLine
 10
114.638
 20
48.125
 30
0.0
 11
114.714
 21
48.5077
 31
0.0
  0
LINE
  5
1F0
330
1D
100
AcDbEntity
  8
0
 62
     1
100
AcDbLine
 10
114.714
 20
48.5077
 30
0.0
 11
114.93
 21
48.8321
 31
0.0
  0
LINE
  5
1F1
330
1D
100
AcDbEntity
  8
0
 62
     1
100
AcDbLine
 10
114.93
 20
48.8321
 30
0.0
 11
115.255
 21
49.0489
 31
0.0
  0
LINE
  5
1F2
330
1D
100
AcDbEntity
  8
0
 62
     1
100
AcDbLine
 10
115.255
 20
49.0489
 30
0.0
 11
115.638
 21
49.125
 31
0.0
  0
LINE
  5
1F3
330
1D
100
AcDbEntity
  8
0
 62
     1
100
AcDbLine
 10
115.638
 20
49.125
 30
0.0
 11
116.02
 21
49.0489
 31
0.0
  0
LINE
  5
1F4
330
1D
100
AcDbEntity
  8
0
 62
     1
100
AcDbLine
 10
116.02
 20
49.0489
 30
0.0
 11
116.345
 21
48.8321
 31
0.0
  0
LINE
  5
1F5
330
1D
100
AcDbEntity
  8
0
 62
     1
100
AcDbLine
 10
116.345
 20
48.8321
 30
0.0
 11
116.561
 21
48.5077
 31
0.0
  0
LINE
  5
1F6
330
1D
100
AcDbEntity
  8
0
 62
     1
100
AcDbLine
 10
116.561
 20
48.5077
 30
0.0
 11
116.638
 21
48.125
 31
0.0
  0
LINE
  5
1F7
330
1D
100
AcDbEntity
  8
0
 62
     1
100
AcDbLine
 10
116.638
 20
48.125
 30
0.0
 11
116.561
 21
47.7423
 31
0.0
  0
LINE
  5
1F8
330
1D
100
AcDbEntity
  8
0
 62
     1
100
AcDbLine
 10
116.561
 20
47.7423
 30
0.0
 11
116.345
 21
47.4179
 31
0.0
  0
LINE
  5
1F9
330
1D
100
AcDbEntity
  8
0
 62
     1
100
AcDbLine
 10
116.345
 20
47.4179
 30
0.0
 11
116.02
 21
47.2011
 31
0.0
  0
LINE
  5
1FA
330
1D
100
AcDbEntity
  8
0
 62
     1
100
AcDbLine
 10
116.02
 20
47.2011
 30
0.0
 11
115.638
 21
47.125
 31
0.0
  0
LINE
  5
1FB
330
1D
100
AcDbEntity
  8
0
 62
     1
100
AcDbLine
 10
115.638
 20
47.125
 30
0.0
 11
115.255
 21
47.2011
 31
0.0
  0
LINE
  5
1FC
330
1D
100
AcDbEntity
  8
0
 62
     1
100
AcDbLine
 10
125.306
 20
31.6
 30
0.0
 11
125.306
 21
45.6
 31
0.0
  0
LINE
  5
1FD
330
1D
100
AcDbEntity
  8
0
 62
     1
100
AcDbLine
 10
125.306
 20
45.6
 30
0.0
 11
139.306
 21
45.6
 31
0.0
  0
LINE
  5
1FE
330
1D
100
AcDbEntity
  8
0
 62
     1
100
AcDbLine
 10
139.306
 20
45.6
 30
0.0
 11
139.306
 21
31.6
 31
0.0
  0
LINE
  5
1FF
330
1D
100
AcDbEntity
  8
0
 62
     1
100
AcDbLine
 10
139.306
 20
31.6
 30
0.0
 11
125.306
 21
31.6
 31
0.0
  0
LINE
  5
200
330
1D
100
AcDbEntity
  8
0
 62
     1
100
AcDbLine
 10
151.5
 20
31.6
 30
0.0
 11
151.5
 21
45.6
 31
0.0
  0
LINE
  5
201
330
1D
100
AcDbEntity
  8
0
 62
     1
100
AcDbLine
 10
151.5
 20
45.6
 30
0.0
 11
165.5
 21
45.6
 31
0.0
  0
LINE
  5
202
330
1D
100
AcDbEntity
  8
0
 62
     1
100
AcDbLine
 10
165.5
 20
45.6
 30
0.0
 11
165.5
 21
31.6
 31
0.0
  0
LINE
  5
203
330
1D
100
AcDbEntity
  8
0
 62
     1
100
AcDbLine
 10
165.5
 20
31.6
 30
0.0
 11
151.5
 21
31.6
 31
0.0
  0
LINE
  5
204
330
1D
100
AcDbEntity
  8
0
 62
     1
100
AcDbLine
 10
99.1125
 20
31.6
 30
0.0
 11
99.1125
 21
45.6
 31
0.0
  0
LINE
  5
205
330
1D
100
AcDbEntity
  8
0
 62
     1
100
AcDbLine
 10
99.1125
 20
45.6
 30
0.0
 11
113.113
 21
45.6
 31
0.0
  0
LINE
  5
206
330
1D
100
AcDbEntity
  8
0
 62
     1
100
AcDbLine
 10
113.113
 20
45.6
 30
0.0
 11
113.113
 21
31.6
 31
0.0
  0
LINE
  5
207
330
1D
100
AcDbEntity
  8
0
 62
     1
100
AcDbLine
 10
113.113
 20
31.6
 30
0.0
 11
99.1125
 21
31.6
 31
0.0
  0
LINE
  5
208
330
1D
100
AcDbEntity
  8
0
 62
     1
100
AcDbLine
 10
22.9125
 20
31.6
 30
0.0
 11
22.9125
 21
45.6
 31
0.0
  0
LINE
  5
209
330
1D
100
AcDbEntity
  8
0
 62
     1
100
AcDbLine
 10
22.9125
 20
45.6
 30
0.0
 11
36.9125
 21
45.6
 31
0.0
  0
LINE
  5
20A
330
1D
100
AcDbEntity
  8
0
 62
     1
100
AcDbLine
 10
36.9125
 20
45.6
 30
0.0
 11
36.9125
 21
31.6
 31
0.0
  0
LINE
  5
20B
330
1D
100
AcDbEntity
  8
0
 62
     1
100
AcDbLine
 10
36.9125
 20
31.6
 30
0.0
 11
22.9125
 21
31.6
 31
0.0
  0
LINE
  5
20C
330
1D
100
AcDbEntity
  8
0
 62
     1
100
AcDbLine
 10
41.9625
 20
31.6
 30
0.0
 11
41.9625
 21
45.6
 31
0.0
  0
LINE
  5
20D
330
1D
100
AcDbEntity
  8
0
 62
     1
100
AcDbLine
 10
41.9625
 20
45.6
 30
0.0
 11
55.9625
 21
45.6
 31
0.0
  0
LINE
  5
20E
330
1D
100
AcDbEntity
  8
0
 62
     1
100
AcDbLine
 10
55.9625
 20
45.6
 30
0.0
 11
55.9625
 21
31.6
 31
0.0
  0
LINE
  5
20F
330
1D
100
AcDbEntity
  8
0
 62
     1
100
AcDbLine
 10
55.9625
 20
31.6
 30
0.0
 11
41.9625
 21
31.6
 31
0.0
  0
LINE
  5
210
330
1D
100
AcDbEntity
  8
0
 62
     1
100
AcDbLine
 10
80.0625
 20
31.6
 30
0.0
 11
80.0625
 21
45.6
 31
0.0
  0
LINE
  5
211
330
1D
100
AcDbEntity
  8
0
 62
     1
100
AcDbLine
 10
80.0625
 20
45.6
 30
0.0
 11
94.0625
 21
45.6
 31
0.0
  0
LINE
  5
212
330
1D
100
AcDbEntity
  8
0
 62
     1
100
AcDbLine
 10
94.0625
 20
45.6
 30
0.0
 11
94.0625
 21
31.6
 31
0.0
  0
LINE
  5
213
330
1D
100
AcDbEntity
  8
0
 62
     1
100
AcDbLine
 10
94.0625
 20
31.6
 30
0.0
 11
80.0625
 21
31.6
 31
0.0
  0
LINE
  5
214
330
1D
100
AcDbEntity
  8
0
 62
     1
100
AcDbLine
 10
61.0125
 20
31.6
 30
0.0
 11
61.0125
 21
45.6
 31
0.0
  0
LINE
  5
215
330
1D
100
AcDbEntity
  8
0
 62
     1
100
AcDbLine
 10
61.0125
 20
45.6
 30
0.0
 11
75.0125
 21
45.6
 31
0.0
  0
LINE
  5
216
330
1D
100
AcDbEntity
  8
0
 62
     1
100
AcDbLine
 10
75.0125
 20
45.6
 30
0.0
 11
75.0125
 21
31.6
 31
0.0
  0
LINE
  5
217
330
1D
100
AcDbEntity
  8
0
 62
     1
100
AcDbLine
 10
75.0125
 20
31.6
 30
0.0
 11
61.0125
 21
31.6
 31
0.0
  0
LINE
  5
218
330
1D
100
AcDbEntity
  8
0
 62
     1
100
AcDbLine
 10
39.0548
 20
28.1511
 30
0.0
 11
38.7304
 21
28.3679
 31
0.0
  0
LINE
  5
219
330
1D
100
AcDbEntity
  8
0
 62
     1
100
AcDbLine
 10
38.7304
 20
28.3679
 30
0.0
 11
38.5136
 21
28.6923
 31
0.0
  0
LINE
  5
21A
330
1D
100
AcDbEntity
  8
0
 62
     1
100
AcDbLine
 10
38.5136
 20
28.6923
 30
0.0
 11
38.4375
 21
29.075
 31
0.0
  0
LINE
  5
21B
330
1D
100
AcDbEntity
  8
0
 62
     1
100
AcDbLine
 10
38.4375
 20
29.075
 30
0.0
 11
38.5136
 21
29.4577
 31
0.0
  0
LINE
  5
21C
330
1D
100
AcDbEntity
  8
0
 62
     1
100
AcDbLine
 10
38.5136
 20
29.4577
 30
0.0
 11
38.7304
 21
29.7821
 31
0.0
  0
LINE
  5
21D
330
1D
100
AcDbEntity
  8
0
 62
     1
100
AcDbLine
 10
38.7304
 20
29.7821
 30
0.0
 11
39.0548
 21
29.9989
 31
0.0
  0
LINE
  5
21E
330
1D
100
AcDbEntity
  8
0
 62
     1
100
AcDbLine
 10
39.0548
 20
29.9989
 30
0.0
 11
39.4375
 21
30.075
 31
0.0
  0
LINE
  5
21F
330
1D
100
AcDbEntity
  8
0
 62
     1
100
AcDbLine
 10
39.4375
 20
30.075
 30
0.0
 11
39.8202
 21
29.9989
 31
0.0
  0
LINE
  5
220
330
1D
100
AcDbEntity
  8
0
 62
     1
100
AcDbLine
 10
39.8202
 20
29.9989
 30
0.0
 11
40.1446
 21
29.7821
 31
0.0
  0
LINE
  5
221
330
1D
100
AcDbEntity
  8
0
 62
     1
100
AcDbLine
 10
40.1446
 20
29.7821
 30
0.0
 11
40.3614
 21
29.4577
 31
0.0
  0
LINE
  5
222
330
1D
100
AcDbEntity
  8
0
 62
     1
100
AcDbLine
 10
40.3614
 20
29.4577
 30
0.0
 11
40.4375
 21
29.075
 31
0.0
  0
LINE
  5
223
330
1D
100
AcDbEntity
  8
0
 62
     1
100
AcDbLine
 10
40.4375
 20
29.075
 30
0.0
 11
40.3614
 21
28.6923
 31
0.0
  0
LINE
  5
224
330
1D
100
AcDbEntity
  8
0
 62
     1
100
AcDbLine
 10
40.3614
 20
28.6923
 30
0.0
 11
40.1446
 21
28.3679
 31
0.0
  0
LINE
  5
225
330
1D
100
AcDbEntity
  8
0
 62
     1
100
AcDbLine
 10
40.1446
 20
28.3679
 30
0.0
 11
39.8202
 21
28.1511
 31
0.0
  0
LINE
  5
226
330
1D
100
AcDbEntity
  8
0
 62
     1
100
AcDbLine
 10
39.8202
 20
28.1511
 30
0.0
 11
39.4375
 21
28.075
 31
0.0
  0
LINE
  5
227
330
1D
100
AcDbEntity
  8
0
 62
     1
100
AcDbLine
 10
39.4375
 20
28.075
 30
0.0
 11
39.0548
 21
28.1511
 31
0.0
  0
LINE
  5
228
330
1D
100
AcDbEntity
  8
0
 62
     1
100
AcDbLine
 10
115.255
 20
28.1511
 30
0.0
 11
114.93
 21
28.3679
 31
0.0
  0
LINE
  5
229
330
1D
100
AcDbEntity
  8
0
 62
     1
100
AcDbLine
 10
114.93
 20
28.3679
 30
0.0
 11
114.714
 21
28.6923
 31
0.0
  0
LINE
  5
22A
330
1D
100
AcDbEntity
  8
0
 62
     1
100
AcDbLine
 10
114.714
 20
28.6923
 30
0.0
 11
114.638
 21
29.075
 31
0.0
  0
LINE
  5
22B
330
1D
100
AcDbEntity
  8
0
 62
     1
100
AcDbLine
 10
114.638
 20
29.075
 30
0.0
 11
114.714
 21
29.4577
 31
0.0
  0
LINE
  5
22C
330
1D
100
AcDbEntity
  8
0
 62
     1
100
AcDbLine
 10
114.714
 20
29.4577
 30
0.0
 11
114.93
 21
29.7821
 31
0.0
  0
LINE
  5
22D
330
1D
100
AcDbEntity
  8
0
 62
     1
100
AcDbLine
 10
114.93
 20
29.7821
 30
0.0
 11
115.255
 21
29.9989
 31
0.0
  0
LINE
  5
22E
330
1D
100
AcDbEntity
  8
0
 62
     1
100
AcDbLine
 10
115.255
 20
29.9989
 30
0.0
 11
115.638
 21
30.075
 31
0.0
  0
LINE
  5
22F
330
1D
100
AcDbEntity
  8
0
 62
     1
100
AcDbLine
 10
115.638
 20
30.075
 30
0.0
 11
116.02
 21
29.9989
 31
0.0
  0
LINE
  5
230
330
1D
100
AcDbEntity
  8
0
 62
     1
100
AcDbLine
 10
116.02
 20
29.9989
 30
0.0
 11
116.345
 21
29.7821
 31
0.0
  0
LINE
  5
231
330
1D
100
AcDbEntity
  8
0
 62
     1
100
AcDbLine
 10
116.345
 20
29.7821
 30
0.0
 11
116.561
 21
29.4577
 31
0.0
  0
LINE
  5
232
330
1D
100
AcDbEntity
  8
0
 62
     1
100
AcDbLine
 10
116.561
 20
29.4577
 30
0.0
 11
116.638
 21
29.075
 31
0.0
  0
LINE
  5
233
330
1D
100
AcDbEntity
  8
0
 62
     1
100
AcDbLine
 10
116.638
 20
29.075
 30
0.0
 11
116.561
 21
28.6923
 31
0.0
  0
LINE
  5
234
330
1D
100
AcDbEntity
  8
0
 62
     1
100
AcDbLine
 10
116.561
 20
28.6923
 30
0.0
 11
116.345
 21
28.3679
 31
0.0
  0
LINE
  5
235
330
1D
100
AcDbEntity
  8
0
 62
     1
100
AcDbLine
 10
116.345
 20
28.3679
 30
0.0
 11
116.02
 21
28.1511
 31
0.0
  0
LINE
  5
236
330
1D
100
AcDbEntity
  8
0
 62
     1
100
AcDbLine
 10
116.02
 20
28.1511
 30
0.0
 11
115.638
 21
28.075
 31
0.0
  0
LINE
  5
237
330
1D
100
AcDbEntity
  8
0
 62
     1
100
AcDbLine
 10
115.638
 20
28.075
 30
0.0
 11
115.255
 21
28.1511
 31
0.0
  0
LINE
  5
238
330
1D
100
AcDbEntity
  8
0
 62
     1
100
AcDbLine
 10
27.675
 20
12.55
 30
0.0
 11
27.675
 21
26.55
 31
0.0
  0
LINE
  5
239
330
1D
100
AcDbEntity
  8
0
 62
     1
100
AcDbLine
 10
27.675
 20
26.55
 30
0.0
 11
41.675
 21
26.55
 31
0.0
  0
LINE
  5
23A
330
1D
100
AcDbEntity
  8
0
 62
     1
100
AcDbLine
 10
41.675
 20
26.55
 30
0.0
 11
41.675
 21
12.55
 31
0.0
  0
LINE
  5
23B
330
1D
100
AcDbEntity
  8
0
 62
     1
100
AcDbLine
 10
41.675
 20
12.55
 30
0.0
 11
27.675
 21
12.55
 31
0.0
  0
LINE
  5
23C
330
1D
100
AcDbEntity
  8
0
 62
     1
100
AcDbLine
 10
53.8688
 20
12.55
 30
0.0
 11
53.8688
 21
26.55
 31
0.0
  0
LINE
  5
23D
330
1D
100
AcDbEntity
  8
0
 62
     1
100
AcDbLine
 10
53.8688
 20
26.55
 30
0.0
 11
67.8688
 21
26.55
 31
0.0
  0
LINE
  5
23E
330
1D
100
AcDbEntity
  8
0
 62
     1
100
AcDbLine
 10
67.8688
 20
26.55
 30
0.0
 11
67.8688
 21
12.55
 31
0.0
  0
LINE
  5
23F
330
1D
100
AcDbEntity
  8
0
 62
     1
100
AcDbLine
 10
67.8688
 20
12.55
 30
0.0
 11
53.8688
 21
12.55
 31
0.0
  0
LINE
  5
240
330
1D
100
AcDbEntity
  8
0
 62
     1
100
AcDbLine
 10
80.0625
 20
12.55
 30
0.0
 11
80.0625
 21
26.55
 31
0.0
  0
LINE
  5
241
330
1D
100
AcDbEntity
  8
0
 62
     1
100
AcDbLine
 10
80.0625
 20
26.55
 30
0.0
 11
94.0625
 21
26.55
 31
0.0
  0
LINE
  5
242
330
1D
100
AcDbEntity
  8
0
 62
     1
100
AcDbLine
 10
94.0625
 20
26.55
 30
0.0
 11
94.0625
 21
12.55
 31
0.0
  0
LINE
  5
243
330
1D
100
AcDbEntity
  8
0
 62
     1
100
AcDbLine
 10
94.0625
 20
12.55
 30
0.0
 11
80.0625
 21
12.55
 31
0.0
  0
LINE
  5
244
330
1D
100
AcDbEntity
  8
0
 62
     1
100
AcDbLine
 10
103.875
 20
12.55
 30
0.0
 11
103.875
 21
26.55
 31
0.0
  0
LINE
  5
245
330
1D
100
AcDbEntity
  8
0
 62
     1
100
AcDbLine
 10
103.875
 20
26.55
 30
0.0
 11
117.875
 21
26.55
 31
0.0
  0
LINE
  5
246
330
1D
100
AcDbEntity
  8
0
 62
     1
100
AcDbLine
 10
117.875
 20
26.55
 30
0.0
 11
117.875
 21
12.55
 31
0.0
  0
LINE
  5
247
330
1D
100
AcDbEntity
  8
0
 62
     1
100
AcDbLine
 10
117.875
 20
12.55
 30
0.0
 11
103.875
 21
12.55
 31
0.0
  0
LINE
  5
248
330
1D
100
AcDbEntity
  8
0
 62
     1
100
AcDbLine
 10
169.642
 20
7.10112
 30
0.0
 11
169.318
 21
7.3179
 31
0.0
  0
LINE
  5
249
330
1D
100
AcDbEntity
  8
0
 62
     1
100
AcDbLine
 10
169.318
 20
7.3179
 30
0.0
 11
169.101
 21
7.64232
 31
0.0
  0
LINE
  5
24A
330
1D
100
AcDbEntity
  8
0
 62
     1
100
AcDbLine
 10
169.101
 20
7.64232
 30
0.0
 11
169.025
 21
8.02501
 31
0.0
  0
LINE
  5
24B
330
1D
100
AcDbEntity
  8
0
 62
     1
100
AcDbLine
 10
169.025
 20
8.02501
 30
0.0
 11
169.101
 21
8.40768
 31
0.0
  0
LINE
  5
24C
330
1D
100
AcDbEntity
  8
0
 62
     1
100
AcDbLine
 10
169.101
 20
8.40768
 30
0.0
 11
169.318
 21
8.73212
 31
0.0
  0
LINE
  5
24D
330
1D
100
AcDbEntity
  8
0
 62
     1
100
AcDbLine
 10
169.318
 20
8.73212
 30
0.0
 11
169.642
 21
8.94888
 31
0.0
  0
LINE
  5
24E
330
1D
100
AcDbEntity
  8
0
 62
     1
100
AcDbLine
 10
169.642
 20
8.94888
 30
0.0
 11
170.025
 21
9.02501
 31
0.0
  0
LINE
  5
24F
330
1D
100
AcDbEntity
  8
0
 62
     1
100
AcDbLine
 10
170.025
 20
9.02501
 30
0.0
 11
170.408
 21
8.94888
 31
0.0
  0
LINE
  5
250
330
1D
100
AcDbEntity
  8
0
 62
     1
100
AcDbLine
 10
170.408
 20
8.94888
 30
0.0
 11
170.732
 21
8.73212
 31
0.0
  0
LINE
  5
251
330
1D
100
AcDbEntity
  8
0
 62
     1
100
AcDbLine
 10
170.732
 20
8.73212
 30
0.0
 11
170.949
 21
8.40768
 31
0.0
  0
LINE
  5
252
330
1D
100
AcDbEntity
  8
0
 62
     1
100
AcDbLine
 10
170.949
 20
8.40768
 30
0.0
 11
171.025
 21
8.02501
 31
0.0
  0
LINE
  5
253
330
1D
100
AcDbEntity
  8
0
 62
     1
100
AcDbLine
 10
171.025
 20
8.02501
 30
0.0
 11
170.949
 21
7.64232
 31
0.0
  0
LINE
  5
254
330
1D
100
AcDbEntity
  8
0
 62
     1
100
AcDbLine
 10
170.949
 20
7.64232
 30
0.0
 11
170.732
 21
7.3179
 31
0.0
  0
LINE
  5
255
330
1D
100
AcDbEntity
  8
0
 62
     1
100
AcDbLine
 10
170.732
 20
7.3179
 30
0.0
 11
170.408
 21
7.10112
 31
0.0
  0
LINE
  5
256
330
1D
100
AcDbEntity
  8
0
 62
     1
100
AcDbLine
 10
170.408
 20
7.10112
 30
0.0
 11
170.025
 21
7.02501
 31
0.0
  0
LINE
  5
257
330
1D
100
AcDbEntity
  8
0
 62
     1
100
AcDbLine
 10
170.025
 20
7.02501
 30
0.0
 11
169.642
 21
7.10112
 31
0.0
  0
LINE
  5
258
330
1D
100
AcDbEntity
  8
0
 62
     1
100
AcDbLine
 10
22.0048
 20
7.10112
 30
0.0
 11
21.6804
 21
7.3179
 31
0.0
  0
LINE
  5
259
330
1D
100
AcDbEntity
  8
0
 62
     1
100
AcDbLine
 10
21.6804
 20
7.3179
 30
0.0
 11
21.4636
 21
7.64232
 31
0.0
  0
LINE
  5
25A
330
1D
100
AcDbEntity
  8
0
 62
     1
100
AcDbLine
 10
21.4636
 20
7.64232
 30
0.0
 11
21.3875
 21
8.02501
 31
0.0
  0
LINE
  5
25B
330
1D
100
AcDbEntity
  8
0
 62
     1
100
AcDbLine
 10
21.3875
 20
8.02501
 30
0.0
 11
21.4636
 21
8.40768
 31
0.0
  0
LINE
  5
25C
330
1D
100
AcDbEntity
  8
0
 62
     1
100
AcDbLine
 10
21.4636
 20
8.40768
 30
0.0
 11
21.6804
 21
8.73212
 31
0.0
  0
LINE
  5
25D
330
1D
100
AcDbEntity
  8
0
 62
     1
100
AcDbLine
 10
21.6804
 20
8.73212
 30
0.0
 11
22.0048
 21
8.94888
 31
0.0
  0
LINE
  5
25E
330
1D
100
AcDbEntity
  8
0
 62
     1
100
AcDbLine
 10
22.0048
 20
8.94888
 30
0.0
 11
22.3875
 21
9.02501
 31
0.0
  0
LINE
  5
25F
330
1D
100
AcDbEntity
  8
0
 62
     1
100
AcDbLine
 10
22.3875
 20
9.02501
 30
0.0
 11
22.7702
 21
8.94888
 31
0.0
  0
LINE
  5
260
330
1D
100
AcDbEntity
  8
0
 62
     1
100
AcDbLine
 10
22.7702
 20
8.94888
 30
0.0
 11
23.0946
 21
8.73212
 31
0.0
  0
LINE
  5
261
330
1D
100
AcDbEntity
  8
0
 62
     1
100
AcDbLine
 10
23.0946
 20
8.73212
 30
0.0
 11
23.3114
 21
8.40768
 31
0.0
  0
LINE
  5
262
330
1D
100
AcDbEntity
  8
0
 62
     1
100
AcDbLine
 10
23.3114
 20
8.40768
 30
0.0
 11
23.3875
 21
8.02501
 31
0.0
  0
LINE
  5
263
330
1D
100
AcDbEntity
  8
0
 62
     1
100
AcDbLine
 10
23.3875
 20
8.02501
 30
0.0
 11
23.3114
 21
7.64232
 31
0.0
  0
LINE
  5
264
330
1D
100
AcDbEntity
  8
0
 62
     1
100
AcDbLine
 10
23.3114
 20
7.64232
 30
0.0
 11
23.0946
 21
7.3179
 31
0.0
  0
LINE
  5
265
330
1D
100
AcDbEntity
  8
0
 62
     1
100
AcDbLine
 10
23.0946
 20
7.3179
 30
0.0
 11
22.7702
 21
7.10112
 31
0.0
  0
LINE
  5
266
330
1D
100
AcDbEntity
  8
0
 62
     1
100
AcDbLine
 10
22.7702
 20
7.10112
 30
0.0
 11
22.3875
 21
7.02501
 31
0.0
  0
LINE
  5
267
330
1D
100
AcDbEntity
  8
0
 62
     1
100
AcDbLine
 10
22.3875
 20
7.02501
 30
0.0
 11
22.0048
 21
7.10112
 31
0.0
  0
LWPOLYLINE
  5
2B1
330
1D
100
AcDbEntity
  8
0
  6
ByBlock
100
AcDbPolyline
 90
        4
 70
     1
 43
0.0
 10
0.0
 20
0.0
 10
0.0
 20
148.0000000000001
 10
210.0
 20
148.0000000000001
 10
210.0
 20
0.0
  0
ARC
  5
2B9
330
1D
100
AcDbEntity
  8
0
 62
     1
100
AcDbCircle
 10
171.025
 20
138.275
 30
0.0
 40
1.0
100
AcDbArc
 50
0.0
 51
90.0
  0
ARC
  5
2BA
330
1D
100
AcDbEntity
  8
0
 62
     1
100
AcDbCircle
 10
171.025
 20
114.225
 30
0.0
 40
1.0
100
AcDbArc
 50
270.0
 51
0.0
  0
ARC
  5
2BB
330
1D
100
AcDbEntity
  8
0
 62
     1
100
AcDbCircle
 10
171.025
 20
108.275
 30
0.0
 40
1.0
100
AcDbArc
 50
0.0
 51
90.0
  0
ARC
  5
2BC
330
1D
100
AcDbEntity
  8
0
 62
     1
100
AcDbCircle
 10
171.025
 20
7.02501
 30
0.0
 40
1.0
100
AcDbArc
 50
270.0
 51
0.0
  0
ARC
  5
2BD
330
1D
100
AcDbEntity
  8
0
 62
     1
100
AcDbCircle
 10
177.725
 20
6.225009999999997
 30
0.0
 40
1.0
100
AcDbArc
 50
180.0
 51
270.0
  0
ARC
  5
2BE
330
1D
100
AcDbEntity
  8
0
 62
     1
100
AcDbCircle
 10
201.775
 20
6.225009999999997
 30
0.0
 40
1.0
100
AcDbArc
 50
270.0
 51
0.0
  0
ENDSEC
  0
SECTION
  2
OBJECTS
  0
DICTIONARY
  5
C
330
0
100
AcDbDictionary
281
     1
  3
ACAD_DETAILVIEWSTYLE
350
2B7
  3
ACAD_GROUP
350
D
  3
ACAD_LAYOUT
350
1A
  3
ACAD_MATERIAL
350
2A8
  3
ACAD_MLEADERSTYLE
350
2AE
  3
ACAD_MLINESTYLE
350
17
  3
ACAD_PLOTSETTINGS
350
19
  3
ACAD_PLOTSTYLENAME
350
E
  3
ACAD_SCALELIST
350
269
  3
ACAD_SECTIONVIEWSTYLE
350
2B8
  3
ACAD_TABLESTYLE
350
2AC
  3
ACAD_VISUALSTYLE
350
28F
  3
AcDbVariableDictionary
350
2B2
  3
ACDB_RECOMPOSE_DATA
350
2C1
  3
APPDATA
350
2B0
  0
DICTIONARY
  5
2B7
102
{ACAD_REACTORS
330
C
102
}
330
C
100
AcDbDictionary
281
     1
  0
DICTIONARY
  5
D
102
{ACAD_REACTORS
330
C
102
}
330
C
100
AcDbDictionary
281
     1
  0
DICTIONARY
  5
1A
102
{ACAD_REACTORS
330
C
102
}
330
C
100
AcDbDictionary
281
     1
  3
Model
350
1E
  3
 1
350
1C
  0
DICTIONARY
  5
2A8
102
{ACAD_REACTORS
330
C
102
}
330
C
100
AcDbDictionary
281
     1
  3
ByBlock
350
2AA
  3
ByLayer
350
2A9
  3
Global
350
2AB
  0
DICTIONARY
  5
2AE
102
{ACAD_REACTORS
330
C
102
}
330
C
100
AcDbDictionary
281
     1
  3
Standard
350
2AF
  0
DICTIONARY
  5
17
102
{ACAD_REACTORS
330
C
102
}
330
C
100
AcDbDictionary
281
     1
  3
Standard
350
18
  0
DICTIONARY
  5
19
102
{ACAD_REACTORS
330
C
102
}
330
C
100
AcDbDictionary
281
     1
  0
ACDBDICTIONARYWDFLT
  5
E
102
{ACAD_REACTORS
330
C
102
}
330
C
100
AcDbDictionary
281
     1
  3
Normal
350
F
100
AcDbDictionaryWithDefault
340
F
  0
DICTIONARY
  5
269
102
{ACAD_REACTORS
330
C
102
}
330
C
100
AcDbDictionary
281
     1
  3
A0
350
26A
  3
A1
350
26B
  3
A2
350
26C
  3
A3
350
26D
  3
A4
350
26E
  3
A5
350
26F
  3
A6
350
270
  3
A7
350
271
  3
A8
350
272
  3
A9
350
273
  3
B0
350
274
  3
B1
350
275
  3
B2
350
276
  3
B3
350
277
  3
B4
350
278
  3
B5
350
279
  3
B6
350
27A
  3
B7
350
27B
  3
B8
350
27C
  3
B9
350
27D
  3
C0
350
27E
  3
C1
350
27F
  3
C2
350
280
  3
C3
350
281
  3
C4
350
282
  3
C5
350
283
  3
C6
350
284
  3
C7
350
285
  3
C8
350
286
  3
C9
350
287
  3
D0
350
288
  3
D1
350
289
  3
D2
350
28A
  0
DICTIONARY
  5
2B8
102
{ACAD_REACTORS
330
C
102
}
330
C
100
AcDbDictionary
281
     1
  0
DICTIONARY
  5
2AC
102
{ACAD_REACTORS
330
C
102
}
330
C
100
AcDbDictionary
281
     1
  3
Standard
350
2AD
  0
DICTIONARY
  5
28F
102
{ACAD_REACTORS
330
C
102
}
330
C
100
AcDbDictionary
281
     1
  3
2dWireframe
350
294
  3
Basic
350
297
  3
Brighten
350
29B
  3
ColorChange
350
29F
  3
Conceptual
350
299
  3
Dim
350
29A
  3
EdgeColorOff
350
2A2
  3
Facepattern
350
29E
  3
Flat
350
290
  3
FlatWithEdges
350
291
  3
Gouraud
350
292
  3
GouraudWithEdges
350
293
  3
Hidden
350
296
  3
JitterOff
350
2A0
  3
Linepattern
350
29D
  3
OverhangOff
350
2A1
  3
Realistic
350
298
  3
Shaded
350
2A7
  3
Shaded with edges
350
2A6
  3
Shades of Gray
350
2A3
  3
Sketchy
350
2A4
  3
Thicken
350
29C
  3
Wireframe
350
295
  3
X-Ray
350
2A5
  0
DICTIONARY
  5
2B2
102
{ACAD_REACTORS
330
C
102
}
330
C
100
AcDbDictionary
281
     1
  3
CANNOSCALE
350
2B3
  3
CMLEADERSTYLE
350
2B5
  3
CTABLESTYLE
350
2B4
  3
MSLTSCALE
350
2B6
  0
XRECORD
  5
2C1
102
{ACAD_REACTORS
330
C
102
}
330
C
100
AcDbXrecord
280
     1
 90
        1
330
2AD
  0
DICTIONARY
  5
2B0
102
{ACAD_REACTORS
330
C
102
}
330
C
100
AcDbDictionary
281
     1
  0
LAYOUT
  5
1E
102
{ACAD_REACTORS
330
1A
102
}
330
1A
100
AcDbPlotSettings
  1

  2
none_device
  4
na-letter
  6

 40
6.35
 41
6.35
 42
6.35
 43
14.11111111111111
 44
215.9
 45
279.4
 46
0.0
 47
0.0
 48
0.0
 49
0.0
140
0.0
141
0.0
142
1.0
143
1.0
 70
  1712
 72
     1
 73
     0
 74
     0
  7

 75
     0
 76
     0
 77
     2
 78
   300
147
1.0
148
0.0
149
0.0
100
AcDbLayout
  1
Model
 70
     1
 71
     0
 10
0.0
 20
0.0
 11
12.0
 21
9.0
 12
0.0
 22
0.0
 32
0.0
 14
-0.0000000000000036
 24
0.0
 34
0.0
 15
210.0
 25
148.0000000000001
 35
0.0
146
0.0
 13
0.0
 23
0.0
 33
0.0
 16
1.0
 26
0.0
 36
0.0
 17
0.0
 27
1.0
 37
0.0
 76
     0
330
1D
331
21
  0
LAYOUT
  5
1C
102
{ACAD_REACTORS
330
1A
102
}
330
1A
100
AcDbPlotSettings
  1

  2
none_device
  4

  6

 40
0.0
 41
0.0
 42
0.0
 43
0.0
 44
0.0
 45
0.0
 46
0.0
 47
0.0
 48
0.0
 49
0.0
140
0.0
141
0.0
142
1.0
143
1.0
 70
   688
 72
     0
 73
     0
 74
     5
  7

 75
    16
 76
     0
 77
     2
 78
   300
147
1.0
148
0.0
149
0.0
100
AcDbLayout
  1
 1
 70
     1
 71
     1
 10
0.0
 20
0.0
 11
0.0
 21
0.0
 12
0.0
 22
0.0
 32
0.0
 14
1.000000000000000E+20
 24
1.000000000000000E+20
 34
1.000000000000000E+20
 15
-1.000000000000000E+20
 25
-1.000000000000000E+20
 35
-1.000000000000000E+20
146
0.0
 13
0.0
 23
0.0
 33
0.0
 16
1.0
 26
0.0
 36
0.0
 17
0.0
 27
1.0
 37
0.0
 76
     0
330
1B
  0
MATERIAL
  5
2AA
102
{ACAD_REACTORS
330
2A8
102
}
330
2A8
100
AcDbMaterial
  1
ByBlock
 72
     1
 94
      127
  0
MATERIAL
  5
2A9
102
{ACAD_REACTORS
330
2A8
102
}
330
2A8
100
AcDbMaterial
  1
ByLayer
 72
     1
 94
      127
  0
MATERIAL
  5
2AB
102
{ACAD_REACTORS
330
2A8
102
}
330
2A8
100
AcDbMaterial
  1
Global
 72
     1
 94
      127
  0
MLEADERSTYLE
  5
2AF
102
{ACAD_REACTORS
330
2AE
102
}
330
2AE
100
AcDbMLeaderStyle
179
     2
170
     2
171
     1
172
     0
 90
        2
 40
0.0
 41
0.0
173
     1
 91
-1056964608
340
14
 92
       -2
290
     1
 42
0.09
291
     1
 43
0.36
  3
Standard
341
0
 44
0.18
300

342
11
174
     1
178
     1
175
     1
176
     0
 93
-1056964608
 45
0.18
292
     0
297
     0
 46
0.18
343
0
 94
-1056964608
 47
1.0
 49
1.0
140
1.0
293
     1
141
0.0
294
     1
177
     0
142
1.0
295
     0
296
     0
143
0.125
271
     0
272
     9
273
     9
298
     0
  0
MLINESTYLE
  5
18
102
{ACAD_REACTORS
330
17
102
}
330
17
100
AcDbMlineStyle
  2
Standard
 70
     0
  3

 62
   256
 51
90.0
 52
90.0
 71
     2
 49
0.5
 62
   256
  6
BYLAYER
 49
-0.5
 62
   256
  6
BYLAYER
  0
ACDBPLACEHOLDER
  5
F
102
{ACAD_REACTORS
330
E
102
}
330
E
  0
SCALE
  5
26A
102
{ACAD_REACTORS
330
269
102
}
330
269
100
AcDbScale
 70
     0
300
1:1
140
1.0
141
1.0
290
     1
  0
SCALE
  5
26B
102
{ACAD_REACTORS
330
269
102
}
330
269
100
AcDbScale
 70
     0
300
1:2
140
1.0
141
2.0
290
     0
  0
SCALE
  5
26C
102
{ACAD_REACTORS
330
269
102
}
330
269
100
AcDbScale
 70
     0
300
1:4
140
1.0
141
4.0
290
     0
  0
SCALE
  5
26D
102
{ACAD_REACTORS
330
269
102
}
330
269
100
AcDbScale
 70
     0
300
1:5
140
1.0
141
5.0
290
     0
  0
SCALE
  5
26E
102
{ACAD_REACTORS
330
269
102
}
330
269
100
AcDbScale
 70
     0
300
1:8
140
1.0
141
8.0
290
     0
  0
SCALE
  5
26F
102
{ACAD_REACTORS
330
269
102
}
330
269
100
AcDbScale
 70
     0
300
1:10
140
1.0
141
10.0
290
     0
  0
SCALE
  5
270
102
{ACAD_REACTORS
330
269
102
}
330
269
100
AcDbScale
 70
     0
300
1:16
140
1.0
141
16.0
290
     0
  0
SCALE
  5
271
102
{ACAD_REACTORS
330
269
102
}
330
269
100
AcDbScale
 70
     0
300
1:20
140
1.0
141
20.0
290
     0
  0
SCALE
  5
272
102
{ACAD_REACTORS
330
269
102
}
330
269
100
AcDbScale
 70
     0
300
1:30
140
1.0
141
30.0
290
     0
  0
SCALE
  5
273
102
{ACAD_REACTORS
330
269
102
}
330
269
100
AcDbScale
 70
     0
300
1:40
140
1.0
141
40.0
290
     0
  0
SCALE
  5
274
102
{ACAD_REACTORS
330
269
102
}
330
269
100
AcDbScale
 70
     0
300
1:50
140
1.0
141
50.0
290
     0
  0
SCALE
  5
275
102
{ACAD_REACTORS
330
269
102
}
330
269
100
AcDbScale
 70
     0
300
1:100
140
1.0
141
100.0
290
     0
  0
SCALE
  5
276
102
{ACAD_REACTORS
330
269
102
}
330
269
100
AcDbScale
 70
     0
300
2:1
140
2.0
141
1.0
290
     0
  0
SCALE
  5
277
102
{ACAD_REACTORS
330
269
102
}
330
269
100
AcDbScale
 70
     0
300
4:1
140
4.0
141
1.0
290
     0
  0
SCALE
  5
278
102
{ACAD_REACTORS
330
269
102
}
330
269
100
AcDbScale
 70
     0
300
8:1
140
8.0
141
1.0
290
     0
  0
SCALE
  5
279
102
{ACAD_REACTORS
330
269
102
}
330
269
100
AcDbScale
 70
     0
300
10:1
140
10.0
141
1.0
290
     0
  0
SCALE
  5
27A
102
{ACAD_REACTORS
330
269
102
}
330
269
100
AcDbScale
 70
     0
300
100:1
140
100.0
141
1.0
290
     0
  0
SCALE
  5
27B
102
{ACAD_REACTORS
330
269
102
}
330
269
100
AcDbScale
 70
     0
300
1/128" = 1'-0"
140
0.0078125
141
12.0
290
     0
  0
SCALE
  5
27C
102
{ACAD_REACTORS
330
269
102
}
330
269
100
AcDbScale
 70
     0
300
1/64" = 1'-0"
140
0.015625
141
12.0
290
     0
  0
SCALE
  5
27D
102
{ACAD_REACTORS
330
269
102
}
330
269
100
AcDbScale
 70
     0
300
1/32" = 1'-0"
140
0.03125
141
12.0
290
     0
  0
SCALE
  5
27E
102
{ACAD_REACTORS
330
269
102
}
330
269
100
AcDbScale
 70
     0
300
1/16" = 1'-0"
140
0.0625
141
12.0
290
     0
  0
SCALE
  5
27F
102
{ACAD_REACTORS
330
269
102
}
330
269
100
AcDbScale
 70
     0
300
3/32" = 1'-0"
140
0.09375
141
12.0
290
     0
  0
SCALE
  5
280
102
{ACAD_REACTORS
330
269
102
}
330
269
100
AcDbScale
 70
     0
300
1/8" = 1'-0"
140
0.125
141
12.0
290
     0
  0
SCALE
  5
281
102
{ACAD_REACTORS
330
269
102
}
330
269
100
AcDbScale
 70
     0
300
3/16" = 1'-0"
140
0.1875
141
12.0
290
     0
  0
SCALE
  5
282
102
{ACAD_REACTORS
330
269
102
}
330
269
100
AcDbScale
 70
     0
300
1/4" = 1'-0"
140
0.25
141
12.0
290
     0
  0
SCALE
  5
283
102
{ACAD_REACTORS
330
269
102
}
330
269
100
AcDbScale
 70
     0
300
3/8" = 1'-0"
140
0.375
141
12.0
290
     0
  0
SCALE
  5
284
102
{ACAD_REACTORS
330
269
102
}
330
269
100
AcDbScale
 70
     0
300
1/2" = 1'-0"
140
0.5
141
12.0
290
     0
  0
SCALE
  5
285
102
{ACAD_REACTORS
330
269
102
}
330
269
100
AcDbScale
 70
     0
300
3/4" = 1'-0"
140
0.75
141
12.0
290
     0
  0
SCALE
  5
286
102
{ACAD_REACTORS
330
269
102
}
330
269
100
AcDbScale
 70
     0
300
1" = 1'-0"
140
1.0
141
12.0
290
     0
  0
SCALE
  5
287
102
{ACAD_REACTORS
330
269
102
}
330
269
100
AcDbScale
 70
     0
300
1-1/2" = 1'-0"
140
1.5
141
12.0
290
     0
  0
SCALE
  5
288
102
{ACAD_REACTORS
330
269
102
}
330
269
100
AcDbScale
 70
     0
300
3" = 1'-0"
140
3.0
141
12.0
290
     0
  0
SCALE
  5
289
102
{ACAD_REACTORS
330
269
102
}
330
269
100
AcDbScale
 70
     0
300
6" = 1'-0"
140
6.0
141
12.0
290
     0
  0
SCALE
  5
28A
102
{ACAD_REACTORS
330
269
102
}
330
269
100
AcDbScale
 70
     0
300
1'-0" = 1'-0"
140
12.0
141
12.0
290
     0
  0
TABLESTYLE
  5
2AD
102
{ACAD_REACTORS
330
2AC
102
}
102
{ACAD_XDICTIONARY
360
2BF
102
}
330
2AC
100
AcDbTableStyle
  3
Standard
 70
     0
 71
     0
 40
0.06
 41
0.06
280
     0
281
     0
  7
Standard
140
0.18
170
     2
 62
     0
 63
   257
283
     0
 90
        4
 91
        0
  1

274
    -2
284
     1
 64
     0
275
    -2
285
     1
 65
     0
276
    -2
286
     1
 66
     0
277
    -2
287
     1
 67
     0
278
    -2
288
     1
 68
     0
279
    -2
289
     1
 69
     0
  7
Standard
140
0.25
170
     5
 62
     0
 63
   257
283
     0
 90
        4
 91
        0
  1

274
    -2
284
     1
 64
     0
275
    -2
285
     1
 65
     0
276
    -2
286
     1
 66
     0
277
    -2
287
     1
 67
     0
278
    -2
288
     1
 68
     0
279
    -2
289
     1
 69
     0
  7
Standard
140
0.18
170
     5
 62
     0
 63
   257
283
     0
 90
        4
 91
        0
  1

274
    -2
284
     1
 64
     0
275
    -2
285
     1
 65
     0
276
    -2
286
     1
 66
     0
277
    -2
287
     1
 67
     0
278
    -2
288
     1
 68
     0
279
    -2
289
     1
 69
     0
  0
VISUALSTYLE
  5
294
102
{ACAD_REACTORS
330
28F
102
}
330
28F
100
AcDbVisualStyle
  2
2dWireframe
 70
     4
177
     3
291
     0
 70
    58
 90
        0
176
     1
 90
        2
176
     1
 90
        0
176
     1
 90
        0
176
     1
 40
0.6
176
     1
 40
30.0
176
     1
 62
     7
420
 16777215
176
     1
 90
        1
176
     1
 90
        4
176
     1
 62
     7
176
     1
 62
   257
176
     1
 90
        1
176
     1
 90
        1
176
     1
 40
1.0
176
     1
 90
        0
176
     1
 62
   257
176
     1
 40
1.0
176
     1
 90
        1
176
     1
 90
        6
176
     1
 90
        2
176
     1
 62
     7
176
     1
 90
        5
176
     1
 90
        0
176
     1
 90
        0
176
     1
290
     0
176
     1
 90
        1
176
     1
 40
0.0
176
     1
 90
        0
176
     1
290
     1
176
     1
290
     1
176
     1
290
     0
176
     1
290
     0
176
     1
290
     0
176
     1
290
     0
176
     1
290
     0
176
     1
290
     0
176
     1
290
     0
176
     1
 90
       50
176
     1
 40
0.0
176
     1
 40
1.0
176
     1
 90
        0
176
     1
 62
   178
420
        0
176
     1
 90
       50
176
     1
 90
        3
176
     1
 62
     5
420
      255
176
     1
290
     0
176
     1
 90
       50
176
     1
 90
       50
176
     1
 90
       50
176
     1
290
     0
176
     1
 90
       50
176
     1
 62
   256
176
     0
 40
1.0
176
     0
 90
        2
176
     1
  1
strokes_ogs.tif
176
     1
290
     0
176
     1
 40
1.0
176
     1
 40
1.0
176
     1
  0
VISUALSTYLE
  5
297
102
{ACAD_REACTORS
330
28F
102
}
330
28F
100
AcDbVisualStyle
  2
Basic
 70
     7
177
     3
291
     1
 70
    58
 90
        1
176
     1
 90
        0
176
     1
 90
        1
176
     1
 90
        0
176
     1
 40
0.6
176
     1
 40
30.0
176
     1
 62
     7
420
 16777215
176
     1
 90
        0
176
     1
 90
        4
176
     1
 62
     7
176
     1
 62
   257
176
     1
 90
        1
176
     1
 90
        1
176
     1
 40
1.0
176
     1
 90
        8
176
     1
 62
     7
176
     1
 40
1.0
176
     1
 90
        1
176
     1
 90
        6
176
     1
 90
        2
176
     1
 62
     7
176
     1
 90
        5
176
     1
 90
        0
176
     1
 90
        0
176
     1
290
     0
176
     1
 90
        1
176
     1
 40
0.0
176
     1
 90
        0
176
     1
290
     0
176
     1
290
     1
176
     1
290
     1
176
     1
290
     0
176
     1
290
     0
176
     1
290
     0
176
     1
290
     0
176
     1
290
     0
176
     1
290
     0
176
     1
 90
       50
176
     1
 40
0.0
176
     1
 40
1.0
176
     1
 90
        0
176
     1
 62
   178
420
        0
176
     1
 90
       50
176
     1
 90
        3
176
     1
 62
     5
420
      255
176
     1
290
     0
176
     1
 90
       50
176
     1
 90
       50
176
     1
 90
       50
176
     1
290
     0
176
     1
 90
       50
176
     1
 62
   256
176
     0
 40
1.0
176
     0
 90
        2
176
     1
  1
strokes_ogs.tif
176
     1
290
     0
176
     1
 40
1.0
176
     1
 40
1.0
176
     1
  0
VISUALSTYLE
  5
29B
102
{ACAD_REACTORS
330
28F
102
}
330
28F
100
AcDbVisualStyle
  2
Brighten
 70
    12
177
     3
291
     1
 70
    58
 90
        2
176
     1
 90
        2
176
     1
 90
        0
176
     1
 90
        0
176
     1
 40
0.6
176
     1
 40
30.0
176
     1
 62
     7
420
 16777215
176
     1
 90
        1
176
     1
 90
        4
176
     1
 62
     7
176
     1
 62
   257
176
     1
 90
        1
176
     1
 90
        1
176
     1
 40
1.0
176
     1
 90
        8
176
     1
 62
     7
176
     1
 40
1.0
176
     1
 90
        1
176
     1
 90
        6
176
     1
 90
        2
176
     1
 62
     7
176
     1
 90
        5
176
     1
 90
        0
176
     1
 90
        0
176
     1
290
     0
176
     1
 90
        1
176
     1
 40
50.0
176
     1
 90
        0
176
     1
290
     0
176
     1
290
     1
176
     1
290
     1
176
     1
290
     0
176
     1
290
     0
176
     1
290
     0
176
     1
290
     0
176
     1
290
     0
176
     1
290
     0
176
     1
 90
       50
176
     1
 40
0.0
176
     1
 40
1.0
176
     1
 90
        0
176
     1
 62
   178
420
        0
176
     1
 90
       50
176
     1
 90
        3
176
     1
 62
     5
420
      255
176
     1
290
     0
176
     1
 90
       50
176
     1
 90
       50
176
     1
 90
       50
176
     1
290
     0
176
     1
 90
       50
176
     1
 62
   256
176
     0
 40
1.0
176
     0
 90
        2
176
     1
  1
strokes_ogs.tif
176
     1
290
     0
176
     1
 40
1.0
176
     1
 40
1.0
176
     1
  0
VISUALSTYLE
  5
29F
102
{ACAD_REACTORS
330
28F
102
}
330
28F
100
AcDbVisualStyle
  2
ColorChange
 70
    16
177
     3
291
     1
 70
    58
 90
        2
176
     1
 90
        2
176
     1
 90
        3
176
     1
 90
        0
176
     1
 40
0.6
176
     1
 40
30.0
176
     1
 62
     8
420
  8421504
176
     1
 90
        1
176
     1
 90
        4
176
     1
 62
     7
176
     1
 62
   257
176
     1
 90
        1
176
     1
 90
        1
176
     1
 40
1.0
176
     1
 90
        8
176
     1
 62
     8
420
  8421504
176
     1
 40
1.0
176
     1
 90
        1
176
     1
 90
        6
176
     1
 90
        2
176
     1
 62
     7
176
     1
 90
        5
176
     1
 90
        0
176
     1
 90
        0
176
     1
290
     0
176
     1
 90
        1
176
     1
 40
0.0
176
     1
 90
        0
176
     1
290
     0
176
     1
290
     1
176
     1
290
     1
176
     1
290
     0
176
     1
290
     0
176
     1
290
     0
176
     1
290
     0
176
     1
290
     0
176
     1
290
     0
176
     1
 90
       50
176
     1
 40
0.0
176
     1
 40
1.0
176
     1
 90
        0
176
     1
 62
   178
420
        0
176
     1
 90
       50
176
     1
 90
        3
176
     1
 62
     5
420
      255
176
     1
290
     0
176
     1
 90
       50
176
     1
 90
       50
176
     1
 90
       50
176
     1
290
     0
176
     1
 90
       50
176
     1
 62
   256
176
     0
 40
1.0
176
     0
 90
        2
176
     1
  1
strokes_ogs.tif
176
     1
290
     0
176
     1
 40
1.0
176
     1
 40
1.0
176
     1
  0
VISUALSTYLE
  5
299
102
{ACAD_REACTORS
330
28F
102
}
330
28F
100
AcDbVisualStyle
  2
Conceptual
 70
     9
177
     3
291
     0
 70
    58
 90
        3
176
     1
 90
        2
176
     1
 90
        0
176
     1
 90
        0
176
     1
 40
0.6
176
     1
 40
30.0
176
     1
 62
     7
420
 16777215
176
     1
 90
        2
176
     1
 90
        2
176
     1
 62
     7
176
     1
 62
   257
176
     1
 90
        1
176
     1
 90
        1
176
     1
 40
179.0
176
     1
 90
        8
176
     1
 62
     7
176
     1
 40
1.0
176
     1
 90
        1
176
     1
 90
        6
176
     1
 90
        2
176
     1
 62
     7
176
     1
 90
        3
176
     1
 90
        0
176
     1
 90
        0
176
     1
290
     0
176
     1
 90
        1
176
     1
 40
0.0
176
     1
 90
        0
176
     1
290
     0
176
     1
290
     1
176
     1
290
     1
176
     1
290
     0
176
     1
290
     0
176
     1
290
     0
176
     1
290
     0
176
     1
290
     0
176
     1
290
     0
176
     1
 90
       50
176
     1
 40
0.0
176
     1
 40
1.0
176
     1
 90
        0
176
     1
 62
   178
420
        0
176
     1
 90
       50
176
     1
 90
        3
176
     1
 62
     5
420
      255
176
     1
290
     0
176
     1
 90
       50
176
     1
 90
       50
176
     1
 90
       50
176
     1
290
     0
176
     1
 90
       50
176
     1
 62
   256
176
     0
 40
1.0
176
     0
 90
        2
176
     1
  1
strokes_ogs.tif
176
     1
290
     0
176
     1
 40
1.0
176
     1
 40
1.0
176
     1
  0
VISUALSTYLE
  5
29A
102
{ACAD_REACTORS
330
28F
102
}
330
28F
100
AcDbVisualStyle
  2
Dim
 70
    11
177
     3
291
     1
 70
    58
 90
        2
176
     1
 90
        2
176
     1
 90
        0
176
     1
 90
        0
176
     1
 40
0.6
176
     1
 40
30.0
176
     1
 62
     7
420
 16777215
176
     1
 90
        1
176
     1
 90
        4
176
     1
 62
     7
176
     1
 62
   257
176
     1
 90
        1
176
     1
 90
        1
176
     1
 40
1.0
176
     1
 90
        8
176
     1
 62
     7
176
     1
 40
1.0
176
     1
 90
        1
176
     1
 90
        6
176
     1
 90
        2
176
     1
 62
     7
176
     1
 90
        5
176
     1
 90
        0
176
     1
 90
        0
176
     1
290
     0
176
     1
 90
        1
176
     1
 40
-50.0
176
     1
 90
        0
176
     1
290
     0
176
     1
290
     1
176
     1
290
     1
176
     1
290
     0
176
     1
290
     0
176
     1
290
     0
176
     1
290
     0
176
     1
290
     0
176
     1
290
     0
176
     1
 90
       50
176
     1
 40
0.0
176
     1
 40
1.0
176
     1
 90
        0
176
     1
 62
   178
420
        0
176
     1
 90
       50
176
     1
 90
        3
176
     1
 62
     5
420
      255
176
     1
290
     0
176
     1
 90
       50
176
     1
 90
       50
176
     1
 90
       50
176
     1
290
     0
176
     1
 90
       50
176
     1
 62
   256
176
     0
 40
1.0
176
     0
 90
        2
176
     1
  1
strokes_ogs.tif
176
     1
290
     0
176
     1
 40
1.0
176
     1
 40
1.0
176
     1
  0
VISUALSTYLE
  5
2A2
102
{ACAD_REACTORS
330
28F
102
}
330
28F
100
AcDbVisualStyle
  2
EdgeColorOff
 70
    22
177
     3
291
     1
 70
    58
 90
        2
176
     0
 90
        2
176
     0
 90
        0
176
     0
 90
        0
176
     0
 40
0.6
176
     0
 40
30.0
176
     0
 62
     7
420
 16777215
176
     0
 90
        1
176
     0
 90
        4
176
     0
 62
     7
176
     0
 62
   257
176
     0
 90
        1
176
     0
 90
        1
176
     0
 40
1.0
176
     0
 90
        8
176
     2
 62
     7
176
     0
 40
1.0
176
     0
 90
        1
176
     0
 90
        6
176
     0
 90
        2
176
     0
 62
     7
176
     0
 90
        5
176
     0
 90
        0
176
     0
 90
        0
176
     0
290
     0
176
     0
 90
        1
176
     0
 40
0.0
176
     0
 90
        0
176
     0
290
     0
176
     0
290
     1
176
     0
290
     1
176
     0
290
     0
176
     0
290
     0
176
     0
290
     0
176
     0
290
     0
176
     0
290
     0
176
     0
290
     0
176
     0
 90
       50
176
     0
 40
0.0
176
     0
 40
1.0
176
     0
 90
        0
176
     0
 62
   178
420
        0
176
     0
 90
       50
176
     0
 90
        3
176
     0
 62
     5
420
      255
176
     0
290
     0
176
     0
 90
       50
176
     0
 90
       50
176
     0
 90
       50
176
     0
290
     0
176
     0
 90
       50
176
     0
 62
   256
176
     0
 40
1.0
176
     0
 90
        2
176
     0
  1
strokes_ogs.tif
176
     0
290
     0
176
     0
 40
1.0
176
     0
 40
1.0
176
     0
  0
VISUALSTYLE
  5
29E
102
{ACAD_REACTORS
330
28F
102
}
330
28F
100
AcDbVisualStyle
  2
Facepattern
 70
    15
177
     3
291
     1
 70
    58
 90
        2
176
     1
 90
        2
176
     1
 90
        0
176
     1
 90
        0
176
     1
 40
0.6
176
     1
 40
30.0
176
     1
 62
     7
420
 16777215
176
     1
 90
        1
176
     1
 90
        4
176
     1
 62
     7
176
     1
 62
   257
176
     1
 90
        1
176
     1
 90
        1
176
     1
 40
1.0
176
     1
 90
        8
176
     1
 62
     7
176
     1
 40
1.0
176
     1
 90
        1
176
     1
 90
        6
176
     1
 90
        2
176
     1
 62
     7
176
     1
 90
        5
176
     1
 90
        0
176
     1
 90
        0
176
     1
290
     0
176
     1
 90
        1
176
     1
 40
0.0
176
     1
 90
        0
176
     1
290
     0
176
     1
290
     1
176
     1
290
     1
176
     1
290
     0
176
     1
290
     0
176
     1
290
     0
176
     1
290
     0
176
     1
290
     0
176
     1
290
     0
176
     1
 90
       50
176
     1
 40
0.0
176
     1
 40
1.0
176
     1
 90
        0
176
     1
 62
   178
420
        0
176
     1
 90
       50
176
     1
 90
        3
176
     1
 62
     5
420
      255
176
     1
290
     0
176
     1
 90
       50
176
     1
 90
       50
176
     1
 90
       50
176
     1
290
     0
176
     1
 90
       50
176
     1
 62
   256
176
     0
 40
1.0
176
     0
 90
        2
176
     1
  1
strokes_ogs.tif
176
     1
290
     0
176
     1
 40
1.0
176
     1
 40
1.0
176
     1
  0
VISUALSTYLE
  5
290
102
{ACAD_REACTORS
330
28F
102
}
330
28F
100
AcDbVisualStyle
  2
Flat
 70
     0
177
     3
291
     1
 70
    58
 90
        2
176
     1
 90
        1
176
     1
 90
        1
176
     1
 90
        2
176
     1
 40
0.6
176
     1
 40
30.0
176
     1
 62
     7
420
 16777215
176
     1
 90
        0
176
     1
 90
        0
176
     1
 62
     7
176
     1
 62
   257
176
     1
 90
        1
176
     1
 90
        1
176
     1
 40
1.0
176
     1
 90
        8
176
     1
 62
     7
176
     1
 40
1.0
176
     1
 90
        1
176
     1
 90
        6
176
     1
 90
        2
176
     1
 62
     7
176
     1
 90
        5
176
     1
 90
        0
176
     1
 90
        0
176
     1
290
     0
176
     1
 90
       13
176
     1
 40
0.0
176
     1
 90
        0
176
     1
290
     0
176
     1
290
     1
176
     1
290
     1
176
     1
290
     0
176
     1
290
     0
176
     1
290
     0
176
     1
290
     0
176
     1
290
     0
176
     1
290
     0
176
     1
 90
       50
176
     1
 40
0.0
176
     1
 40
1.0
176
     1
 90
        0
176
     1
 62
   178
420
        0
176
     1
 90
       50
176
     1
 90
        3
176
     1
 62
     5
420
      255
176
     1
290
     0
176
     1
 90
       50
176
     1
 90
       50
176
     1
 90
       50
176
     1
290
     0
176
     1
 90
       50
176
     1
 62
   256
176
     0
 40
1.0
176
     0
 90
        2
176
     1
  1
strokes_ogs.tif
176
     1
290
     0
176
     1
 40
1.0
176
     1
 40
1.0
176
     1
  0
VISUALSTYLE
  5
291
102
{ACAD_REACTORS
330
28F
102
}
330
28F
100
AcDbVisualStyle
  2
FlatWithEdges
 70
     1
177
     3
291
     1
 70
    58
 90
        2
176
     1
 90
        1
176
     1
 90
        1
176
     1
 90
        2
176
     1
 40
0.6
176
     1
 40
30.0
176
     1
 62
     7
420
 16777215
176
     1
 90
        1
176
     1
 90
        0
176
     1
 62
     7
176
     1
 62
   257
176
     1
 90
        1
176
     1
 90
        1
176
     1
 40
1.0
176
     1
 90
        0
176
     1
 62
   257
176
     1
 40
1.0
176
     1
 90
        1
176
     1
 90
        6
176
     1
 90
        2
176
     1
 62
     7
176
     1
 90
        5
176
     1
 90
        0
176
     1
 90
        0
176
     1
290
     0
176
     1
 90
       13
176
     1
 40
0.0
176
     1
 90
        0
176
     1
290
     0
176
     1
290
     1
176
     1
290
     1
176
     1
290
     0
176
     1
290
     0
176
     1
290
     0
176
     1
290
     0
176
     1
290
     0
176
     1
290
     0
176
     1
 90
       50
176
     1
 40
0.0
176
     1
 40
1.0
176
     1
 90
        0
176
     1
 62
   178
420
        0
176
     1
 90
       50
176
     1
 90
        3
176
     1
 62
     5
420
      255
176
     1
290
     0
176
     1
 90
       50
176
     1
 90
       50
176
     1
 90
       50
176
     1
290
     0
176
     1
 90
       50
176
     1
 62
   256
176
     0
 40
1.0
176
     0
 90
        2
176
     1
  1
strokes_ogs.tif
176
     1
290
     0
176
     1
 40
1.0
176
     1
 40
1.0
176
     1
  0
VISUALSTYLE
  5
292
102
{ACAD_REACTORS
330
28F
102
}
330
28F
100
AcDbVisualStyle
  2
Gouraud
 70
     2
177
     3
291
     1
 70
    58
 90
        2
176
     1
 90
        2
176
     1
 90
        1
176
     1
 90
        2
176
     1
 40
0.6
176
     1
 40
30.0
176
     1
 62
     7
420
 16777215
176
     1
 90
        0
176
     1
 90
        0
176
     1
 62
     7
176
     1
 62
   257
176
     1
 90
        1
176
     1
 90
        1
176
     1
 40
1.0
176
     1
 90
        0
176
     1
 62
     7
176
     1
 40
1.0
176
     1
 90
        1
176
     1
 90
        6
176
     1
 90
        2
176
     1
 62
     7
176
     1
 90
        5
176
     1
 90
        0
176
     1
 90
        0
176
     1
290
     0
176
     1
 90
       13
176
     1
 40
0.0
176
     1
 90
        0
176
     1
290
     0
176
     1
290
     1
176
     1
290
     1
176
     1
290
     0
176
     1
290
     0
176
     1
290
     0
176
     1
290
     0
176
     1
290
     0
176
     1
290
     0
176
     1
 90
       50
176
     1
 40
0.0
176
     1
 40
1.0
176
     1
 90
        0
176
     1
 62
   178
420
        0
176
     1
 90
       50
176
     1
 90
        3
176
     1
 62
     5
420
      255
176
     1
290
     0
176
     1
 90
       50
176
     1
 90
       50
176
     1
 90
       50
176
     1
290
     0
176
     1
 90
       50
176
     1
 62
   256
176
     0
 40
1.0
176
     0
 90
        2
176
     1
  1
strokes_ogs.tif
176
     1
290
     0
176
     1
 40
1.0
176
     1
 40
1.0
176
     1
  0
VISUALSTYLE
  5
293
102
{ACAD_REACTORS
330
28F
102
}
330
28F
100
AcDbVisualStyle
  2
GouraudWithEdges
 70
     3
177
     3
291
     1
 70
    58
 90
        2
176
     1
 90
        2
176
     1
 90
        1
176
     1
 90
        2
176
     1
 40
0.6
176
     1
 40
30.0
176
     1
 62
     7
420
 16777215
176
     1
 90
        1
176
     1
 90
        0
176
     1
 62
     7
176
     1
 62
   257
176
     1
 90
        1
176
     1
 90
        1
176
     1
 40
1.0
176
     1
 90
        0
176
     1
 62
   257
176
     1
 40
1.0
176
     1
 90
        1
176
     1
 90
        6
176
     1
 90
        2
176
     1
 62
     7
176
     1
 90
        5
176
     1
 90
        0
176
     1
 90
        0
176
     1
290
     0
176
     1
 90
       13
176
     1
 40
0.0
176
     1
 90
        0
176
     1
290
     0
176
     1
290
     1
176
     1
290
     1
176
     1
290
     0
176
     1
290
     0
176
     1
290
     0
176
     1
290
     0
176
     1
290
     0
176
     1
290
     0
176
     1
 90
       50
176
     1
 40
0.0
176
     1
 40
1.0
176
     1
 90
        0
176
     1
 62
   178
420
        0
176
     1
 90
       50
176
     1
 90
        3
176
     1
 62
     5
420
      255
176
     1
290
     0
176
     1
 90
       50
176
     1
 90
       50
176
     1
 90
       50
176
     1
290
     0
176
     1
 90
       50
176
     1
 62
   256
176
     0
 40
1.0
176
     0
 90
        2
176
     1
  1
strokes_ogs.tif
176
     1
290
     0
176
     1
 40
1.0
176
     1
 40
1.0
176
     1
  0
VISUALSTYLE
  5
296
102
{ACAD_REACTORS
330
28F
102
}
330
28F
100
AcDbVisualStyle
  2
Hidden
 70
     6
177
     3
291
     0
 70
    58
 90
        1
176
     1
 90
        2
176
     1
 90
        2
176
     1
 90
        0
176
     1
 40
0.6
176
     1
 40
30.0
176
     1
 62
     7
420
 16777215
176
     1
 90
        2
176
     1
 90
        2
176
     1
 62
     7
176
     1
 62
   257
176
     1
 90
        2
176
     1
 90
        1
176
     1
 40
40.0
176
     1
 90
        0
176
     1
 62
   257
176
     1
 40
1.0
176
     1
 90
        1
176
     1
 90
        6
176
     1
 90
        2
176
     1
 62
     7
176
     1
 90
        3
176
     1
 90
        0
176
     1
 90
        0
176
     1
290
     0
176
     1
 90
        1
176
     1
 40
0.0
176
     1
 90
        0
176
     1
290
     0
176
     1
290
     1
176
     1
290
     1
176
     1
290
     0
176
     1
290
     0
176
     1
290
     0
176
     1
290
     0
176
     1
290
     0
176
     1
290
     0
176
     1
 90
       50
176
     1
 40
0.0
176
     1
 40
1.0
176
     1
 90
        0
176
     1
 62
   178
420
        0
176
     1
 90
       50
176
     1
 90
        3
176
     1
 62
     5
420
      255
176
     1
290
     0
176
     1
 90
       50
176
     1
 90
       50
176
     1
 90
       50
176
     1
290
     0
176
     1
 90
       50
176
     1
 62
   256
176
     0
 40
1.0
176
     0
 90
        2
176
     1
  1
strokes_ogs.tif
176
     1
290
     0
176
     1
 40
1.0
176
     1
 40
1.0
176
     1
  0
VISUALSTYLE
  5
2A0
102
{ACAD_REACTORS
330
28F
102
}
330
28F
100
AcDbVisualStyle
  2
JitterOff
 70
    20
177
     3
291
     1
 70
    58
 90
        2
176
     0
 90
        2
176
     0
 90
        0
176
     0
 90
        0
176
     0
 40
0.6
176
     0
 40
30.0
176
     0
 62
     7
420
 16777215
176
     0
 90
        1
176
     0
 90
        4
176
     0
 62
     7
176
     0
 62
   257
176
     0
 90
        1
176
     0
 90
        1
176
     0
 40
1.0
176
     0
 90
       10
176
     2
 62
     7
176
     0
 40
1.0
176
     0
 90
        1
176
     0
 90
        6
176
     0
 90
        2
176
     0
 62
     7
176
     0
 90
        5
176
     0
 90
        0
176
     0
 90
        0
176
     0
290
     0
176
     0
 90
        1
176
     0
 40
0.0
176
     0
 90
        0
176
     0
290
     0
176
     0
290
     1
176
     0
290
     1
176
     0
290
     0
176
     0
290
     0
176
     0
290
     0
176
     0
290
     0
176
     0
290
     0
176
     0
290
     0
176
     0
 90
       50
176
     0
 40
0.0
176
     0
 40
1.0
176
     0
 90
        0
176
     0
 62
   178
420
        0
176
     0
 90
       50
176
     0
 90
        3
176
     0
 62
     5
420
      255
176
     0
290
     0
176
     0
 90
       50
176
     0
 90
       50
176
     0
 90
       50
176
     0
290
     0
176
     0
 90
       50
176
     0
 62
   256
176
     0
 40
1.0
176
     0
 90
        2
176
     0
  1
strokes_ogs.tif
176
     0
290
     0
176
     0
 40
1.0
176
     0
 40
1.0
176
     0
  0
VISUALSTYLE
  5
29D
102
{ACAD_REACTORS
330
28F
102
}
330
28F
100
AcDbVisualStyle
  2
Linepattern
 70
    14
177
     3
291
     1
 70
    58
 90
        2
176
     1
 90
        2
176
     1
 90
        0
176
     1
 90
        0
176
     1
 40
0.6
176
     1
 40
30.0
176
     1
 62
     7
420
 16777215
176
     1
 90
        1
176
     1
 90
        4
176
     1
 62
     7
176
     1
 62
   257
176
     1
 90
        7
176
     1
 90
        7
176
     1
 40
1.0
176
     1
 90
        8
176
     1
 62
     7
176
     1
 40
1.0
176
     1
 90
        1
176
     1
 90
        6
176
     1
 90
        2
176
     1
 62
     7
176
     1
 90
        5
176
     1
 90
        0
176
     1
 90
        0
176
     1
290
     0
176
     1
 90
        1
176
     1
 40
0.0
176
     1
 90
        0
176
     1
290
     0
176
     1
290
     1
176
     1
290
     1
176
     1
290
     0
176
     1
290
     0
176
     1
290
     0
176
     1
290
     0
176
     1
290
     0
176
     1
290
     0
176
     1
 90
       50
176
     1
 40
0.0
176
     1
 40
1.0
176
     1
 90
        0
176
     1
 62
   178
420
        0
176
     1
 90
       50
176
     1
 90
        3
176
     1
 62
     5
420
      255
176
     1
290
     0
176
     1
 90
       50
176
     1
 90
       50
176
     1
 90
       50
176
     1
290
     0
176
     1
 90
       50
176
     1
 62
   256
176
     0
 40
1.0
176
     0
 90
        2
176
     1
  1
strokes_ogs.tif
176
     1
290
     0
176
     1
 40
1.0
176
     1
 40
1.0
176
     1
  0
VISUALSTYLE
  5
2A1
102
{ACAD_REACTORS
330
28F
102
}
330
28F
100
AcDbVisualStyle
  2
OverhangOff
 70
    21
177
     3
291
     1
 70
    58
 90
        2
176
     0
 90
        2
176
     0
 90
        0
176
     0
 90
        0
176
     0
 40
0.6
176
     0
 40
30.0
176
     0
 62
     7
420
 16777215
176
     0
 90
        1
176
     0
 90
        4
176
     0
 62
     7
176
     0
 62
   257
176
     0
 90
        1
176
     0
 90
        1
176
     0
 40
1.0
176
     0
 90
        9
176
     2
 62
     7
176
     0
 40
1.0
176
     0
 90
        1
176
     0
 90
        6
176
     0
 90
        2
176
     0
 62
     7
176
     0
 90
        5
176
     0
 90
        0
176
     0
 90
        0
176
     0
290
     0
176
     0
 90
        1
176
     0
 40
0.0
176
     0
 90
        0
176
     0
290
     0
176
     0
290
     1
176
     0
290
     1
176
     0
290
     0
176
     0
290
     0
176
     0
290
     0
176
     0
290
     0
176
     0
290
     0
176
     0
290
     0
176
     0
 90
       50
176
     0
 40
0.0
176
     0
 40
1.0
176
     0
 90
        0
176
     0
 62
   178
420
        0
176
     0
 90
       50
176
     0
 90
        3
176
     0
 62
     5
420
      255
176
     0
290
     0
176
     0
 90
       50
176
     0
 90
       50
176
     0
 90
       50
176
     0
290
     0
176
     0
 90
       50
176
     0
 62
   256
176
     0
 40
1.0
176
     0
 90
        2
176
     0
  1
strokes_ogs.tif
176
     0
290
     0
176
     0
 40
1.0
176
     0
 40
1.0
176
     0
  0
VISUALSTYLE
  5
298
102
{ACAD_REACTORS
330
28F
102
}
330
28F
100
AcDbVisualStyle
  2
Realistic
 70
     8
177
     3
291
     0
 70
    58
 90
        2
176
     1
 90
        3
176
     1
 90
        0
176
     1
 90
        2
176
     1
 40
0.6
176
     1
 40
30.0
176
     1
 62
     7
420
 16777215
176
     1
 90
        0
176
     1
 90
        0
176
     1
 62
     7
176
     1
 62
   257
176
     1
 90
        1
176
     1
 90
        1
176
     1
 40
1.0
176
     1
 90
        8
176
     1
 62
   257
176
     1
 40
1.0
176
     1
 90
        1
176
     1
 90
        6
176
     1
 90
        2
176
     1
 62
     7
176
     1
 90
        3
176
     1
 90
        0
176
     1
 90
        0
176
     1
290
     0
176
     1
 90
       13
176
     1
 40
0.0
176
     1
 90
        0
176
     1
290
     0
176
     1
290
     1
176
     1
290
     1
176
     1
290
     0
176
     1
290
     0
176
     1
290
     0
176
     1
290
     0
176
     1
290
     0
176
     1
290
     0
176
     1
 90
       50
176
     1
 40
0.0
176
     1
 40
1.0
176
     1
 90
        0
176
     1
 62
   178
420
        0
176
     1
 90
       50
176
     1
 90
        3
176
     1
 62
     5
420
      255
176
     1
290
     0
176
     1
 90
       50
176
     1
 90
       50
176
     1
 90
       50
176
     1
290
     0
176
     1
 90
       50
176
     1
 62
   256
176
     0
 40
1.0
176
     0
 90
        2
176
     1
  1
strokes_ogs.tif
176
     1
290
     0
176
     1
 40
1.0
176
     1
 40
1.0
176
     1
  0
VISUALSTYLE
  5
2A7
102
{ACAD_REACTORS
330
28F
102
}
330
28F
100
AcDbVisualStyle
  2
Shaded
 70
    27
177
     3
291
     0
 70
    58
 90
        2
176
     1
 90
        2
176
     1
 90
        1
176
     1
 90
        2
176
     1
 40
0.6
176
     1
 40
30.0
176
     1
 62
     7
420
 16777215
176
     1
 90
        0
176
     1
 90
        4
176
     1
 62
     7
176
     1
 62
   257
176
     1
 90
        1
176
     1
 90
        1
176
     1
 40
1.0
176
     1
 90
        8
176
     1
 62
   257
176
     1
 40
1.0
176
     1
 90
        1
176
     1
 90
        6
176
     1
 90
        2
176
     1
 62
     8
420
  7895160
176
     1
 90
        3
176
     1
 90
        0
176
     1
 90
        0
176
     1
290
     0
176
     1
 90
        5
176
     1
 40
0.0
176
     1
 90
        0
176
     1
290
     0
176
     1
290
     1
176
     1
290
     1
176
     1
290
     0
176
     1
290
     0
176
     1
290
     0
176
     1
290
     0
176
     1
290
     0
176
     1
290
     0
176
     1
 90
       50
176
     1
 40
0.0
176
     1
 40
1.0
176
     1
 90
        0
176
     1
 62
   178
420
        0
176
     1
 90
       50
176
     1
 90
        3
176
     1
 62
     5
420
      255
176
     1
290
     0
176
     1
 90
       50
176
     1
 90
       50
176
     1
 90
       50
176
     1
290
     0
176
     1
 90
       50
176
     1
 62
   256
176
     0
 40
1.0
176
     0
 90
        2
176
     1
  1
strokes_ogs.tif
176
     1
290
     0
176
     1
 40
1.0
176
     1
 40
1.0
176
     1
  0
VISUALSTYLE
  5
2A6
102
{ACAD_REACTORS
330
28F
102
}
330
28F
100
AcDbVisualStyle
  2
Shaded with edges
 70
    26
177
     3
291
     0
 70
    58
 90
        2
176
     1
 90
        2
176
     1
 90
        1
176
     1
 90
        2
176
     1
 40
0.6
176
     1
 40
30.0
176
     1
 62
     7
420
 16777215
176
     1
 90
        1
176
     1
 90
       10
176
     1
 62
     7
176
     1
 62
   257
176
     1
 90
        2
176
     1
 90
        1
176
     1
 40
1.0
176
     1
 90
        8
176
     1
 62
   257
176
     1
 40
1.0
176
     1
 90
        1
176
     1
 90
        6
176
     1
 90
        2
176
     1
 62
     7
176
     1
 90
        3
176
     1
 90
        0
176
     1
 90
        0
176
     1
290
     0
176
     1
 90
        5
176
     1
 40
0.0
176
     1
 90
        0
176
     1
290
     0
176
     1
290
     1
176
     1
290
     1
176
     1
290
     0
176
     1
290
     0
176
     1
290
     0
176
     1
290
     0
176
     1
290
     0
176
     1
290
     0
176
     1
 90
       50
176
     1
 40
0.0
176
     1
 40
1.0
176
     1
 90
        0
176
     1
 62
   178
420
        0
176
     1
 90
       50
176
     1
 90
        3
176
     1
 62
     5
420
      255
176
     1
290
     0
176
     1
 90
       50
176
     1
 90
       50
176
     1
 90
       50
176
     1
290
     0
176
     1
 90
       50
176
     1
 62
   256
176
     0
 40
1.0
176
     0
 90
        2
176
     1
  1
strokes_ogs.tif
176
     1
290
     0
176
     1
 40
1.0
176
     1
 40
1.0
176
     1
  0
VISUALSTYLE
  5
2A3
102
{ACAD_REACTORS
330
28F
102
}
330
28F
100
AcDbVisualStyle
  2
Shades of Gray
 70
    23
177
     3
291
     0
 70
    58
 90
        2
176
     1
 90
        2
176
     1
 90
        3
176
     1
 90
        0
176
     1
 40
0.6
176
     1
 40
30.0
176
     1
 62
     7
420
 16777215
176
     1
 90
        2
176
     1
 90
        2
176
     1
 62
     7
176
     1
 62
     7
176
     1
 90
        1
176
     1
 90
        1
176
     1
 40
40.0
176
     1
 90
        8
176
     1
 62
     7
176
     1
 40
1.0
176
     1
 90
        1
176
     1
 90
        6
176
     1
 90
        2
176
     1
 62
     7
176
     1
 90
        3
176
     1
 90
        0
176
     1
 90
        0
176
     1
290
     0
176
     1
 90
        1
176
     1
 40
0.0
176
     1
 90
        0
176
     1
290
     0
176
     1
290
     1
176
     1
290
     1
176
     1
290
     0
176
     1
290
     0
176
     1
290
     0
176
     1
290
     0
176
     1
290
     0
176
     1
290
     0
176
     1
 90
       50
176
     1
 40
0.0
176
     1
 40
1.0
176
     1
 90
        0
176
     1
 62
   178
420
        0
176
     1
 90
       50
176
     1
 90
        3
176
     1
 62
     5
420
      255
176
     1
290
     0
176
     1
 90
       50
176
     1
 90
       50
176
     1
 90
       50
176
     1
290
     0
176
     1
 90
       50
176
     1
 62
   256
176
     0
 40
1.0
176
     0
 90
        2
176
     1
  1
strokes_ogs.tif
176
     1
290
     0
176
     1
 40
1.0
176
     1
 40
1.0
176
     1
  0
VISUALSTYLE
  5
2A4
102
{ACAD_REACTORS
330
28F
102
}
330
28F
100
AcDbVisualStyle
  2
Sketchy
 70
    24
177
     3
291
     0
 70
    58
 90
        1
176
     1
 90
        2
176
     1
 90
        2
176
     1
 90
        0
176
     1
 40
0.6
176
     1
 40
30.0
176
     1
 62
     7
420
 16777215
176
     1
 90
        2
176
     1
 90
        2
176
     1
 62
     7
176
     1
 62
     7
176
     1
 90
        1
176
     1
 90
        1
176
     1
 40
40.0
176
     1
 90
       11
176
     1
 62
     7
176
     1
 40
1.0
176
     1
 90
        1
176
     1
 90
        6
176
     1
 90
        2
176
     1
 62
     7
176
     1
 90
        6
176
     1
 90
        0
176
     1
 90
        0
176
     1
290
     0
176
     1
 90
        1
176
     1
 40
0.0
176
     1
 90
        0
176
     1
290
     0
176
     1
290
     1
176
     1
290
     1
176
     1
290
     0
176
     1
290
     0
176
     1
290
     0
176
     1
290
     0
176
     1
290
     0
176
     1
290
     0
176
     1
 90
       50
176
     1
 40
0.0
176
     1
 40
1.0
176
     1
 90
        0
176
     1
 62
   178
420
        0
176
     1
 90
       50
176
     1
 90
        3
176
     1
 62
     5
420
      255
176
     1
290
     0
176
     1
 90
       50
176
     1
 90
       50
176
     1
 90
       50
176
     1
290
     0
176
     1
 90
       50
176
     1
 62
   256
176
     0
 40
1.0
176
     0
 90
        2
176
     1
  1
strokes_ogs.tif
176
     1
290
     0
176
     1
 40
1.0
176
     1
 40
1.0
176
     1
  0
VISUALSTYLE
  5
29C
102
{ACAD_REACTORS
330
28F
102
}
330
28F
100
AcDbVisualStyle
  2
Thicken
 70
    13
177
     3
291
     1
 70
    58
 90
        2
176
     1
 90
        2
176
     1
 90
        0
176
     1
 90
        0
176
     1
 40
0.6
176
     1
 40
30.0
176
     1
 62
     7
420
 16777215
176
     1
 90
        1
176
     1
 90
        4
176
     1
 62
     7
176
     1
 62
   257
176
     1
 90
        1
176
     1
 90
        1
176
     1
 40
1.0
176
     1
 90
       12
176
     1
 62
     7
176
     1
 40
1.0
176
     1
 90
        1
176
     1
 90
        6
176
     1
 90
        2
176
     1
 62
     7
176
     1
 90
        5
176
     1
 90
        0
176
     1
 90
        0
176
     1
290
     0
176
     1
 90
        1
176
     1
 40
0.0
176
     1
 90
        0
176
     1
290
     0
176
     1
290
     1
176
     1
290
     1
176
     1
290
     0
176
     1
290
     0
176
     1
290
     0
176
     1
290
     0
176
     1
290
     0
176
     1
290
     0
176
     1
 90
       50
176
     1
 40
0.0
176
     1
 40
1.0
176
     1
 90
        0
176
     1
 62
   178
420
        0
176
     1
 90
       50
176
     1
 90
        3
176
     1
 62
     5
420
      255
176
     1
290
     0
176
     1
 90
       50
176
     1
 90
       50
176
     1
 90
       50
176
     1
290
     0
176
     1
 90
       50
176
     1
 62
   256
176
     0
 40
1.0
176
     0
 90
        2
176
     1
  1
strokes_ogs.tif
176
     1
290
     0
176
     1
 40
1.0
176
     1
 40
1.0
176
     1
  0
VISUALSTYLE
  5
295
102
{ACAD_REACTORS
330
28F
102
}
330
28F
100
AcDbVisualStyle
  2
Wireframe
 70
     5
177
     3
291
     0
 70
    58
 90
        0
176
     1
 90
        2
176
     1
 90
        0
176
     1
 90
        0
176
     1
 40
0.6
176
     1
 40
30.0
176
     1
 62
     7
420
 16777215
176
     1
 90
        1
176
     1
 90
        4
176
     1
 62
     7
176
     1
 62
   257
176
     1
 90
        1
176
     1
 90
        1
176
     1
 40
1.0
176
     1
 90
        0
176
     1
 62
   257
176
     1
 40
1.0
176
     1
 90
        1
176
     1
 90
        6
176
     1
 90
        2
176
     1
 62
     7
176
     1
 90
        3
176
     1
 90
        0
176
     1
 90
        0
176
     1
290
     0
176
     1
 90
        1
176
     1
 40
0.0
176
     1
 90
        0
176
     1
290
     0
176
     1
290
     1
176
     1
290
     1
176
     1
290
     0
176
     1
290
     0
176
     1
290
     0
176
     1
290
     0
176
     1
290
     0
176
     1
290
     0
176
     1
 90
       50
176
     1
 40
0.0
176
     1
 40
1.0
176
     1
 90
        0
176
     1
 62
   178
420
        0
176
     1
 90
       50
176
     1
 90
        3
176
     1
 62
     5
420
      255
176
     1
290
     0
176
     1
 90
       50
176
     1
 90
       50
176
     1
 90
       50
176
     1
290
     0
176
     1
 90
       50
176
     1
 62
   256
176
     0
 40
1.0
176
     0
 90
        2
176
     1
  1
strokes_ogs.tif
176
     1
290
     0
176
     1
 40
1.0
176
     1
 40
1.0
176
     1
  0
VISUALSTYLE
  5
2A5
102
{ACAD_REACTORS
330
28F
102
}
330
28F
100
AcDbVisualStyle
  2
X-Ray
 70
    25
177
     3
291
     0
 70
    58
 90
        2
176
     1
 90
        2
176
     1
 90
        1
176
     1
 90
        1
176
     1
 40
0.5
176
     1
 40
30.0
176
     1
 62
     7
420
 16777215
176
     1
 90
        1
176
     1
 90
        0
176
     1
 62
     7
176
     1
 62
   257
176
     1
 90
        1
176
     1
 90
        1
176
     1
 40
1.0
176
     1
 90
        8
176
     1
 62
     7
176
     1
 40
1.0
176
     1
 90
        1
176
     1
 90
        6
176
     1
 90
        2
176
     1
 62
     7
176
     1
 90
        3
176
     1
 90
        0
176
     1
 90
        0
176
     1
290
     0
176
     1
 90
       13
176
     1
 40
0.0
176
     1
 90
        0
176
     1
290
     0
176
     1
290
     1
176
     1
290
     1
176
     1
290
     0
176
     1
290
     0
176
     1
290
     0
176
     1
290
     0
176
     1
290
     0
176
     1
290
     0
176
     1
 90
       50
176
     1
 40
0.0
176
     1
 40
1.0
176
     1
 90
        0
176
     1
 62
   178
420
        0
176
     1
 90
       50
176
     1
 90
        3
176
     1
 62
     5
420
      255
176
     1
290
     0
176
     1
 90
       50
176
     1
 90
       50
176
     1
 90
       50
176
     1
290
     0
176
     1
 90
       50
176
     1
 62
   256
176
     0
 40
1.0
176
     0
 90
        2
176
     1
  1
strokes_ogs.tif
176
     1
290
     0
176
     1
 40
1.0
176
     1
 40
1.0
176
     1
  0
DICTIONARYVAR
  5
2B3
102
{ACAD_REACTORS
330
2B2
102
}
330
2B2
100
DictionaryVariables
280
     0
  1
1:1
  0
DICTIONARYVAR
  5
2B5
102
{ACAD_REACTORS
330
2B2
102
}
330
2B2
100
DictionaryVariables
280
     0
  1
Standard
  0
DICTIONARYVAR
  5
2B4
102
{ACAD_REACTORS
330
2B2
102
}
330
2B2
100
DictionaryVariables
280
     0
  1
Standard
  0
DICTIONARYVAR
  5
2B6
102
{ACAD_REACTORS
330
2B2
102
}
330
2B2
100
DictionaryVariables
280
     0
  1
0
  0
DICTIONARY
  5
2BF
330
2AD
100
AcDbDictionary
280
     1
281
     1
  3
ACAD_ROUNDTRIP_2008_TABLESTYLE_CELLSTYLEMAP
360
2C0
  0
CELLSTYLEMAP
  5
2C0
102
{ACAD_REACTORS
330
2BF
102
}
330
2BF
100
AcDbCellStyleMap
 90
        3
300
CELLSTYLE
  1
TABLEFORMAT_BEGIN
 90
        5
170
     1
 91
        0
 92
    32768
 62
   257
 93
        1
300
CONTENTFORMAT
  1
CONTENTFORMAT_BEGIN
 90
        0
 91
        0
 92
        4
 93
        0
300

 40
0.0
140
1.0
 94
        5
 62
     0
340
11
144
0.25
309
CONTENTFORMAT_END
171
     1
301
MARGIN
  1
CELLMARGIN_BEGIN
 40
0.06
 40
0.06
 40
0.06
 40
0.06
 40
0.06
 40
0.06
309
CELLMARGIN_END
 94
        6
 95
        1
302
GRIDFORMAT
  1
GRIDFORMAT_BEGIN
 90
        0
 91
        1
 62
     0
 92
       -2
340
14
 93
        0
 40
0.045
309
GRIDFORMAT_END
 95
        2
302
GRIDFORMAT
  1
GRIDFORMAT_BEGIN
 90
        0
 91
        1
 62
     0
 92
       -2
340
14
 93
        0
 40
0.045
309
GRIDFORMAT_END
 95
        4
302
GRIDFORMAT
  1
GRIDFORMAT_BEGIN
 90
        0
 91
        1
 62
     0
 92
       -2
340
14
 93
        0
 40
0.045
309
GRIDFORMAT_END
 95
        8
302
GRIDFORMAT
  1
GRIDFORMAT_BEGIN
 90
        0
 91
        1
 62
     0
 92
       -2
340
14
 93
        0
 40
0.045
309
GRIDFORMAT_END
 95
       16
302
GRIDFORMAT
  1
GRIDFORMAT_BEGIN
 90
        0
 91
        1
 62
     0
 92
       -2
340
14
 93
        0
 40
0.045
309
GRIDFORMAT_END
 95
       32
302
GRIDFORMAT
  1
GRIDFORMAT_BEGIN
 90
        0
 91
        1
 62
     0
 92
       -2
340
14
 93
        0
 40
0.045
309
GRIDFORMAT_END
309
TABLEFORMAT_END
  1
CELLSTYLE_BEGIN
 90
        1
 91
        1
300
_TITLE
309
CELLSTYLE_END
300
CELLSTYLE
  1
TABLEFORMAT_BEGIN
 90
        5
170
     1
 91
        0
 92
        0
 62
   257
 93
        1
300
CONTENTFORMAT
  1
CONTENTFORMAT_BEGIN
 90
        0
 91
        0
 92
        4
 93
        0
300

 40
0.0
140
1.0
 94
        5
 62
     0
340
11
144
0.18
309
CONTENTFORMAT_END
171
     1
301
MARGIN
  1
CELLMARGIN_BEGIN
 40
0.06
 40
0.06
 40
0.06
 40
0.06
 40
0.06
 40
0.06
309
CELLMARGIN_END
 94
        6
 95
        1
302
GRIDFORMAT
  1
GRIDFORMAT_BEGIN
 90
        0
 91
        1
 62
     0
 92
       -2
340
14
 93
        0
 40
0.045
309
GRIDFORMAT_END
 95
        2
302
GRIDFORMAT
  1
GRIDFORMAT_BEGIN
 90
        0
 91
        1
 62
     0
 92
       -2
340
14
 93
        0
 40
0.045
309
GRIDFORMAT_END
 95
        4
302
GRIDFORMAT
  1
GRIDFORMAT_BEGIN
 90
        0
 91
        1
 62
     0
 92
       -2
340
14
 93
        0
 40
0.045
309
GRIDFORMAT_END
 95
        8
302
GRIDFORMAT
  1
GRIDFORMAT_BEGIN
 90
        0
 91
        1
 62
     0
 92
       -2
340
14
 93
        0
 40
0.045
309
GRIDFORMAT_END
 95
       16
302
GRIDFORMAT
  1
GRIDFORMAT_BEGIN
 90
        0
 91
        1
 62
     0
 92
       -2
340
14
 93
        0
 40
0.045
309
GRIDFORMAT_END
 95
       32
302
GRIDFORMAT
  1
GRIDFORMAT_BEGIN
 90
        0
 91
        1
 62
     0
 92
       -2
340
14
 93
        0
 40
0.045
309
GRIDFORMAT_END
309
TABLEFORMAT_END
  1
CELLSTYLE_BEGIN
 90
        2
 91
        1
300
_HEADER
309
CELLSTYLE_END
300
CELLSTYLE
  1
TABLEFORMAT_BEGIN
 90
        5
170
     1
 91
        0
 92
        0
 62
   257
 93
        1
300
CONTENTFORMAT
  1
CONTENTFORMAT_BEGIN
 90
        0
 91
        0
 92
        4
 93
        0
300

 40
0.0
140
1.0
 94
        2
 62
     0
340
11
144
0.18
309
CONTENTFORMAT_END
171
     1
301
MARGIN
  1
CELLMARGIN_BEGIN
 40
0.06
 40
0.06
 40
0.06
 40
0.06
 40
0.06
 40
0.06
309
CELLMARGIN_END
 94
        6
 95
        1
302
GRIDFORMAT
  1
GRIDFORMAT_BEGIN
 90
        0
 91
        1
 62
     0
 92
       -2
340
14
 93
        0
 40
0.045
309
GRIDFORMAT_END
 95
        2
302
GRIDFORMAT
  1
GRIDFORMAT_BEGIN
 90
        0
 91
        1
 62
     0
 92
       -2
340
14
 93
        0
 40
0.045
309
GRIDFORMAT_END
 95
        4
302
GRIDFORMAT
  1
GRIDFORMAT_BEGIN
 90
        0
 91
        1
 62
     0
 92
       -2
340
14
 93
        0
 40
0.045
309
GRIDFORMAT_END
 95
        8
302
GRIDFORMAT
  1
GRIDFORMAT_BEGIN
 90
        0
 91
        1
 62
     0
 92
       -2
340
14
 93
        0
 40
0.045
309
GRIDFORMAT_END
 95
       16
302
GRIDFORMAT
  1
GRIDFORMAT_BEGIN
 90
        0
 91
        1
 62
     0
 92
       -2
340
14
 93
        0
 40
0.045
309
GRIDFORMAT_END
 95
       32
302
GRIDFORMAT
  1
GRIDFORMAT_BEGIN
 90
        0
 91
        1
 62
     0
 92
       -2
340
14
 93
        0
 40
0.045
309
GRIDFORMAT_END
309
TABLEFORMAT_END
  1
CELLSTYLE_BEGIN
 90
        3
 91
        2
300
_DATA
309
CELLSTYLE_END
  0
ENDSEC
  0
EOF
