  0
SECTION
  2
BLOCKS
  0
ENDSEC
  0
SECTION
  2
ENTITIES
  0
LINE
  8
0
 10
-38.1
 20
-66.675
 11
9.52499
 21
-66.675
  0
LINE
  8
0
 10
9.52499
 20
-66.675
 11
9.52499
 21
-9.47499
  0
LINE
  8
0
 10
9.52499
 20
-9.47499
 11
13.525
 21
-9.47499
  0
LINE
  8
0
 10
13.525
 20
-9.47499
 11
13.525
 21
8.52499
  0
LINE
  8
0
 10
13.525
 20
8.52499
 11
9.52499
 21
8.52499
  0
LINE
  8
0
 10
9.52499
 20
8.52499
 11
9.52499
 21
9.52499
  0
LINE
  8
0
 10
9.52499
 20
9.52499
 11
-25.575
 21
9.52499
  0
LINE
  8
0
 10
-25.575
 20
9.52499
 11
-25.575
 21
13.525
  0
LINE
  8
0
 10
-25.575
 20
13.525
 11
-31.575
 21
13.525
  0
LINE
  8
0
 10
-31.575
 20
13.525
 11
-31.575
 21
9.52499
  0
LINE
  8
0
 10
-31.575
 20
9.52499
 11
-142.875
 21
9.52499
  0
LINE
  8
0
 10
-142.875
 20
9.52499
 11
-142.875
 21
-9.52499
  0
LINE
  8
0
 10
-142.875
 20
-9.52499
 11
-152.4
 21
-9.52499
  0
LINE
  8
0
 10
-152.4
 20
-9.52499
 11
-152.4
 21
-28.575
  0
LINE
  8
0
 10
-152.4
 20
-28.575
 11
-147.637
 21
-28.575
  0
LINE
  8
0
 10
-147.637
 20
-28.575
 11
-147.637
 21
-47.625
  0
LINE
  8
0
 10
-147.637
 20
-47.625
 11
-138.113
 21
-47.625
  0
LINE
  8
0
 10
-138.113
 20
-47.625
 11
-138.113
 21
-85.725
  0
LINE
  8
0
 10
-138.113
 20
-85.725
 11
-38.1
 21
-85.725
  0
LINE
  8
0
 10
-38.1
 20
-85.725
 11
-38.1
 21
-66.675
  0
LINE
  8
0
 10
-121.3
 20
-7
 11
-121.3
 21
7
  0
LINE
  8
0
 10
-121.3
 20
7
 11
-107.3
 21
7
  0
LINE
  8
0
 10
-107.3
 20
7
 11
-107.3
 21
-7
  0
LINE
  8
0
 10
-107.3
 20
-7
 11
-121.3
 21
-7
  0
LINE
  8
0
 10
-83.2
 20
-7
 11
-83.2
 21
7
  0
LINE
  8
0
 10
-83.2
 20
7
 11
-69.2
 21
7
  0
LINE
  8
0
 10
-69.2
 20
7
 11
-69.2
 21
-7
  0
LINE
  8
0
 10
-69.2
 20
-7
 11
-83.2
 21
-7
  0
LINE
  8
0
 10
-64.15
 20
-7
 11
-64.15
 21
7
  0
LINE
  8
0
 10
-64.15
 20
7
 11
-50.15
 21
7
  0
LINE
  8
0
 10
-50.15
 20
7
 11
-50.15
 21
-7
  0
LINE
  8
0
 10
-50.15
 20
-7
 11
-64.15
 21
-7
  0
LINE
  8
0
 10
-7
 20
-7
 11
-7
 21
7
  0
LINE
  8
0
 10
-7
 20
7
 11
7
 21
7
  0
LINE
  8
0
 10
7
 20
7
 11
7
 21
-7
  0
LINE
  8
0
 10
7
 20
-7
 11
-7
 21
-7
  0
LINE
  8
0
 10
-134.498
 20
-12.2966
 11
-135.471
 21
-11.6463
  0
LINE
  8
0
 10
-135.471
 20
-11.6463
 11
-136.122
 21
-10.673
  0
LINE
  8
0
 10
-136.122
 20
-10.673
 11
-136.35
 21
-9.52499
  0
LINE
  8
0
 10
-136.35
 20
-9.52499
 11
-136.122
 21
-8.37694
  0
LINE
  8
0
 10
-136.122
 20
-8.37694
 11
-135.471
 21
-7.40367
  0
LINE
  8
0
 10
-135.471
 20
-7.40367
 11
-134.867
 21
-7
  0
LINE
  8
0
 10
-134.867
 20
-7
 11
-140.35
 21
-7
  0
LINE
  8
0
 10
-140.35
 20
-7
 11
-140.35
 21
7
  0
LINE
  8
0
 10
-140.35
 20
7
 11
-126.35
 21
7
  0
LINE
  8
0
 10
-126.35
 20
7
 11
-126.35
 21
-7
  0
LINE
  8
0
 10
-126.35
 20
-7
 11
-131.833
 21
-7
  0
LINE
  8
0
 10
-131.833
 20
-7
 11
-131.229
 21
-7.40367
  0
LINE
  8
0
 10
-131.229
 20
-7.40367
 11
-130.578
 21
-8.37694
  0
LINE
  8
0
 10
-130.578
 20
-8.37694
 11
-130.35
 21
-9.52499
  0
LINE
  8
0
 10
-130.35
 20
-9.52499
 11
-130.578
 21
-10.673
  0
LINE
  8
0
 10
-130.578
 20
-10.673
 11
-131.229
 21
-11.6463
  0
LINE
  8
0
 10
-131.229
 20
-11.6463
 11
-132.202
 21
-12.2966
  0
LINE
  8
0
 10
-132.202
 20
-12.2966
 11
-133.35
 21
-12.525
  0
LINE
  8
0
 10
-133.35
 20
-12.525
 11
-134.498
 21
-12.2966
  0
LINE
  8
0
 10
-39.248
 20
-12.2966
 11
-40.2213
 21
-11.6463
  0
LINE
  8
0
 10
-40.2213
 20
-11.6463
 11
-40.8716
 21
-10.673
  0
LINE
  8
0
 10
-40.8716
 20
-10.673
 11
-41.1
 21
-9.52499
  0
LINE
  8
0
 10
-41.1
 20
-9.52499
 11
-40.8716
 21
-8.37694
  0
LINE
  8
0
 10
-40.8716
 20
-8.37694
 11
-40.2213
 21
-7.40367
  0
LINE
  8
0
 10
-40.2213
 20
-7.40367
 11
-39.6172
 21
-7
  0
LINE
  8
0
 10
-39.6172
 20
-7
 11
-45.1
 21
-7
  0
LINE
  8
0
 10
-45.1
 20
-7
 11
-45.1
 21
7
  0
LINE
  8
0
 10
-45.1
 20
7
 11
-31.1
 21
7
  0
LINE
  8
0
 10
-31.1
 20
7
 11
-31.1
 21
-1.47499
  0
LINE
  8
0
 10
-31.1
 20
-1.47499
 11
-26.05
 21
-1.47499
  0
LINE
  8
0
 10
-26.05
 20
-1.47499
 11
-26.05
 21
7
  0
LINE
  8
0
 10
-26.05
 20
7
 11
-12.05
 21
7
  0
LINE
  8
0
 10
-12.05
 20
7
 11
-12.05
 21
-7
  0
LINE
  8
0
 10
-12.05
 20
-7
 11
-26.05
 21
-7
  0
LINE
  8
0
 10
-26.05
 20
-7
 11
-26.05
 21
-4.97499
  0
LINE
  8
0
 10
-26.05
 20
-4.97499
 11
-31.1
 21
-4.97499
  0
LINE
  8
0
 10
-31.1
 20
-4.97499
 11
-31.1
 21
-7
  0
LINE
  8
0
 10
-31.1
 20
-7
 11
-36.5828
 21
-7
  0
LINE
  8
0
 10
-36.5828
 20
-7
 11
-35.9787
 21
-7.40367
  0
LINE
  8
0
 10
-35.9787
 20
-7.40367
 11
-35.3284
 21
-8.37694
  0
LINE
  8
0
 10
-35.3284
 20
-8.37694
 11
-35.1
 21
-9.52499
  0
LINE
  8
0
 10
-35.1
 20
-9.52499
 11
-35.3284
 21
-10.673
  0
LINE
  8
0
 10
-35.3284
 20
-10.673
 11
-35.9787
 21
-11.6463
  0
LINE
  8
0
 10
-35.9787
 20
-11.6463
 11
-36.952
 21
-12.2966
  0
LINE
  8
0
 10
-36.952
 20
-12.2966
 11
-38.1
 21
-12.525
  0
LINE
  8
0
 10
-38.1
 20
-12.525
 11
-39.248
 21
-12.2966
  0
LINE
  8
0
 10
-102.25
 20
-7
 11
-102.25
 21
7
  0
LINE
  8
0
 10
-102.25
 20
7
 11
-88.25
 21
7
  0
LINE
  8
0
 10
-88.25
 20
7
 11
-88.25
 21
-7
  0
LINE
  8
0
 10
-88.25
 20
-7
 11
-102.25
 21
-7
  0
LINE
  8
0
 10
-54.625
 20
-26.05
 11
-54.625
 21
-12.05
  0
LINE
  8
0
 10
-54.625
 20
-12.05
 11
-40.625
 21
-12.05
  0
LINE
  8
0
 10
-40.625
 20
-12.05
 11
-40.625
 21
-26.05
  0
LINE
  8
0
 10
-40.625
 20
-26.05
 11
-54.625
 21
-26.05
  0
LINE
  8
0
 10
-149.875
 20
-26.05
 11
-149.875
 21
-12.05
  0
LINE
  8
0
 10
-149.875
 20
-12.05
 11
-135.875
 21
-12.05
  0
LINE
  8
0
 10
-135.875
 20
-12.05
 11
-135.875
 21
-26.05
  0
LINE
  8
0
 10
-135.875
 20
-26.05
 11
-149.875
 21
-26.05
  0
LINE
  8
0
 10
-11.7625
 20
-26.05
 11
-11.7625
 21
-12.05
  0
LINE
  8
0
 10
-11.7625
 20
-12.05
 11
2.23749
 21
-12.05
  0
LINE
  8
0
 10
2.23749
 20
-12.05
 11
2.23749
 21
-26.05
  0
LINE
  8
0
 10
2.23749
 20
-26.05
 11
-11.7625
 21
-26.05
  0
LINE
  8
0
 10
-129.736
 20
-31.3466
 11
-130.709
 21
-30.6963
  0
LINE
  8
0
 10
-130.709
 20
-30.6963
 11
-131.359
 21
-29.723
  0
LINE
  8
0
 10
-131.359
 20
-29.723
 11
-131.587
 21
-28.575
  0
LINE
  8
0
 10
-131.587
 20
-28.575
 11
-131.359
 21
-27.4269
  0
LINE
  8
0
 10
-131.359
 20
-27.4269
 11
-130.709
 21
-26.4537
  0
LINE
  8
0
 10
-130.709
 20
-26.4537
 11
-130.105
 21
-26.05
  0
LINE
  8
0
 10
-130.105
 20
-26.05
 11
-130.825
 21
-26.05
  0
LINE
  8
0
 10
-130.825
 20
-26.05
 11
-130.825
 21
-12.05
  0
LINE
  8
0
 10
-130.825
 20
-12.05
 11
-116.825
 21
-12.05
  0
LINE
  8
0
 10
-116.825
 20
-12.05
 11
-116.825
 21
-26.05
  0
LINE
  8
0
 10
-116.825
 20
-26.05
 11
-127.07
 21
-26.05
  0
LINE
  8
0
 10
-127.07
 20
-26.05
 11
-126.466
 21
-26.4537
  0
LINE
  8
0
 10
-126.466
 20
-26.4537
 11
-125.816
 21
-27.4269
  0
LINE
  8
0
 10
-125.816
 20
-27.4269
 11
-125.587
 21
-28.575
  0
LINE
  8
0
 10
-125.587
 20
-28.575
 11
-125.816
 21
-29.723
  0
LINE
  8
0
 10
-125.816
 20
-29.723
 11
-126.466
 21
-30.6963
  0
LINE
  8
0
 10
-126.466
 20
-30.6963
 11
-127.439
 21
-31.3466
  0
LINE
  8
0
 10
-127.439
 20
-31.3466
 11
-128.587
 21
-31.575
  0
LINE
  8
0
 10
-128.587
 20
-31.575
 11
-129.736
 21
-31.3466
  0
LINE
  8
0
 10
-111.775
 20
-26.05
 11
-111.775
 21
-12.05
  0
LINE
  8
0
 10
-111.775
 20
-12.05
 11
-97.775
 21
-12.05
  0
LINE
  8
0
 10
-97.775
 20
-12.05
 11
-97.775
 21
-26.05
  0
LINE
  8
0
 10
-97.775
 20
-26.05
 11
-111.775
 21
-26.05
  0
LINE
  8
0
 10
-92.725
 20
-26.05
 11
-92.725
 21
-12.05
  0
LINE
  8
0
 10
-92.725
 20
-12.05
 11
-78.725
 21
-12.05
  0
LINE
  8
0
 10
-78.725
 20
-12.05
 11
-78.725
 21
-26.05
  0
LINE
  8
0
 10
-78.725
 20
-26.05
 11
-92.725
 21
-26.05
  0
LINE
  8
0
 10
-35.575
 20
-26.05
 11
-35.575
 21
-12.05
  0
LINE
  8
0
 10
-35.575
 20
-12.05
 11
-21.575
 21
-12.05
  0
LINE
  8
0
 10
-21.575
 20
-12.05
 11
-21.575
 21
-26.05
  0
LINE
  8
0
 10
-21.575
 20
-26.05
 11
-35.575
 21
-26.05
  0
LINE
  8
0
 10
-73.675
 20
-26.05
 11
-73.675
 21
-12.05
  0
LINE
  8
0
 10
-73.675
 20
-12.05
 11
-59.675
 21
-12.05
  0
LINE
  8
0
 10
-59.675
 20
-12.05
 11
-59.675
 21
-26.05
  0
LINE
  8
0
 10
-59.675
 20
-26.05
 11
-73.675
 21
-26.05
  0
LINE
  8
0
 10
-145.113
 20
-45.1
 11
-145.113
 21
-31.1
  0
LINE
  8
0
 10
-145.113
 20
-31.1
 11
-131.113
 21
-31.1
  0
LINE
  8
0
 10
-131.113
 20
-31.1
 11
-131.113
 21
-45.1
  0
LINE
  8
0
 10
-131.113
 20
-45.1
 11
-145.113
 21
-45.1
  0
LINE
  8
0
 10
-120.211
 20
-50.3966
 11
-121.184
 21
-49.7463
  0
LINE
  8
0
 10
-121.184
 20
-49.7463
 11
-121.834
 21
-48.773
  0
LINE
  8
0
 10
-121.834
 20
-48.773
 11
-122.062
 21
-47.625
  0
LINE
  8
0
 10
-122.062
 20
-47.625
 11
-121.834
 21
-46.4769
  0
LINE
  8
0
 10
-121.834
 20
-46.4769
 11
-121.184
 21
-45.5037
  0
LINE
  8
0
 10
-121.184
 20
-45.5037
 11
-120.58
 21
-45.1
  0
LINE
  8
0
 10
-120.58
 20
-45.1
 11
-126.062
 21
-45.1
  0
LINE
  8
0
 10
-126.062
 20
-45.1
 11
-126.062
 21
-31.1
  0
LINE
  8
0
 10
-126.062
 20
-31.1
 11
-112.062
 21
-31.1
  0
LINE
  8
0
 10
-112.062
 20
-31.1
 11
-112.062
 21
-45.1
  0
LINE
  8
0
 10
-112.062
 20
-45.1
 11
-117.545
 21
-45.1
  0
LINE
  8
0
 10
-117.545
 20
-45.1
 11
-116.941
 21
-45.5037
  0
LINE
  8
0
 10
-116.941
 20
-45.5037
 11
-116.291
 21
-46.4769
  0
LINE
  8
0
 10
-116.291
 20
-46.4769
 11
-116.062
 21
-47.625
  0
LINE
  8
0
 10
-116.062
 20
-47.625
 11
-116.291
 21
-48.773
  0
LINE
  8
0
 10
-116.291
 20
-48.773
 11
-116.941
 21
-49.7463
  0
LINE
  8
0
 10
-116.941
 20
-49.7463
 11
-117.914
 21
-50.3966
  0
LINE
  8
0
 10
-117.914
 20
-50.3966
 11
-119.062
 21
-50.625
  0
LINE
  8
0
 10
-119.062
 20
-50.625
 11
-120.211
 21
-50.3966
  0
LINE
  8
0
 10
-44.0105
 20
-50.3966
 11
-44.9838
 21
-49.7463
  0
LINE
  8
0
 10
-44.9838
 20
-49.7463
 11
-45.6341
 21
-48.773
  0
LINE
  8
0
 10
-45.6341
 20
-48.773
 11
-45.8625
 21
-47.625
  0
LINE
  8
0
 10
-45.8625
 20
-47.625
 11
-45.6341
 21
-46.4769
  0
LINE
  8
0
 10
-45.6341
 20
-46.4769
 11
-44.9838
 21
-45.5037
  0
LINE
  8
0
 10
-44.9838
 20
-45.5037
 11
-44.3797
 21
-45.1
  0
LINE
  8
0
 10
-44.3797
 20
-45.1
 11
-49.8625
 21
-45.1
  0
LINE
  8
0
 10
-49.8625
 20
-45.1
 11
-49.8625
 21
-31.1
  0
LINE
  8
0
 10
-49.8625
 20
-31.1
 11
-35.8625
 21
-31.1
  0
LINE
  8
0
 10
-35.8625
 20
-31.1
 11
-35.8625
 21
-45.1
  0
LINE
  8
0
 10
-35.8625
 20
-45.1
 11
-41.3453
 21
-45.1
  0
LINE
  8
0
 10
-41.3453
 20
-45.1
 11
-40.7412
 21
-45.5037
  0
LINE
  8
0
 10
-40.7412
 20
-45.5037
 11
-40.0909
 21
-46.4769
  0
LINE
  8
0
 10
-40.0909
 20
-46.4769
 11
-39.8625
 21
-47.625
  0
LINE
  8
0
 10
-39.8625
 20
-47.625
 11
-40.0909
 21
-48.773
  0
LINE
  8
0
 10
-40.0909
 20
-48.773
 11
-40.7412
 21
-49.7463
  0
LINE
  8
0
 10
-40.7412
 20
-49.7463
 11
-41.7144
 21
-50.3966
  0
LINE
  8
0
 10
-41.7144
 20
-50.3966
 11
-42.8625
 21
-50.625
  0
LINE
  8
0
 10
-42.8625
 20
-50.625
 11
-44.0105
 21
-50.3966
  0
LINE
  8
0
 10
-18.9062
 20
-45.1
 11
-18.9062
 21
-31.1
  0
LINE
  8
0
 10
-18.9062
 20
-31.1
 11
-4.90625
 21
-31.1
  0
LINE
  8
0
 10
-4.90625
 20
-31.1
 11
-4.90625
 21
-45.1
  0
LINE
  8
0
 10
-4.90625
 20
-45.1
 11
-18.9062
 21
-45.1
  0
LINE
  8
0
 10
-68.9125
 20
-45.1
 11
-68.9125
 21
-31.1
  0
LINE
  8
0
 10
-68.9125
 20
-31.1
 11
-54.9125
 21
-31.1
  0
LINE
  8
0
 10
-54.9125
 20
-31.1
 11
-54.9125
 21
-45.1
  0
LINE
  8
0
 10
-54.9125
 20
-45.1
 11
-68.9125
 21
-45.1
  0
LINE
  8
0
 10
-87.9625
 20
-45.1
 11
-87.9625
 21
-31.1
  0
LINE
  8
0
 10
-87.9625
 20
-31.1
 11
-73.9625
 21
-31.1
  0
LINE
  8
0
 10
-73.9625
 20
-31.1
 11
-73.9625
 21
-45.1
  0
LINE
  8
0
 10
-73.9625
 20
-45.1
 11
-87.9625
 21
-45.1
  0
LINE
  8
0
 10
-107.012
 20
-45.1
 11
-107.012
 21
-31.1
  0
LINE
  8
0
 10
-107.012
 20
-31.1
 11
-93.0125
 21
-31.1
  0
LINE
  8
0
 10
-93.0125
 20
-31.1
 11
-93.0125
 21
-45.1
  0
LINE
  8
0
 10
-93.0125
 20
-45.1
 11
-107.012
 21
-45.1
  0
LINE
  8
0
 10
-97.4875
 20
-64.15
 11
-97.4875
 21
-50.15
  0
LINE
  8
0
 10
-97.4875
 20
-50.15
 11
-83.4875
 21
-50.15
  0
LINE
  8
0
 10
-83.4875
 20
-50.15
 11
-83.4875
 21
-64.15
  0
LINE
  8
0
 10
-83.4875
 20
-64.15
 11
-97.4875
 21
-64.15
  0
LINE
  8
0
 10
-78.4375
 20
-64.15
 11
-78.4375
 21
-50.15
  0
LINE
  8
0
 10
-78.4375
 20
-50.15
 11
-64.4375
 21
-50.15
  0
LINE
  8
0
 10
-64.4375
 20
-50.15
 11
-64.4375
 21
-64.15
  0
LINE
  8
0
 10
-64.4375
 20
-64.15
 11
-78.4375
 21
-64.15
  0
LINE
  8
0
 10
-33.1937
 20
-64.15
 11
-33.1937
 21
-50.15
  0
LINE
  8
0
 10
-33.1937
 20
-50.15
 11
-19.1937
 21
-50.15
  0
LINE
  8
0
 10
-19.1937
 20
-50.15
 11
-19.1937
 21
-64.15
  0
LINE
  8
0
 10
-19.1937
 20
-64.15
 11
-33.1937
 21
-64.15
  0
LINE
  8
0
 10
-7
 20
-64.15
 11
-7
 21
-50.15
  0
LINE
  8
0
 10
-7
 20
-50.15
 11
7
 21
-50.15
  0
LINE
  8
0
 10
7
 20
-50.15
 11
7
 21
-64.15
  0
LINE
  8
0
 10
7
 20
-64.15
 11
-7
 21
-64.15
  0
LINE
  8
0
 10
-116.537
 20
-64.15
 11
-116.537
 21
-50.15
  0
LINE
  8
0
 10
-116.537
 20
-50.15
 11
-102.537
 21
-50.15
  0
LINE
  8
0
 10
-102.537
 20
-50.15
 11
-102.537
 21
-64.15
  0
LINE
  8
0
 10
-102.537
 20
-64.15
 11
-116.537
 21
-64.15
  0
LINE
  8
0
 10
-135.587
 20
-64.15
 11
-135.587
 21
-50.15
  0
LINE
  8
0
 10
-135.587
 20
-50.15
 11
-121.587
 21
-50.15
  0
LINE
  8
0
 10
-121.587
 20
-50.15
 11
-121.587
 21
-64.15
  0
LINE
  8
0
 10
-121.587
 20
-64.15
 11
-135.587
 21
-64.15
  0
LINE
  8
0
 10
-59.3875
 20
-64.15
 11
-59.3875
 21
-50.15
  0
LINE
  8
0
 10
-59.3875
 20
-50.15
 11
-45.3875
 21
-50.15
  0
LINE
  8
0
 10
-45.3875
 20
-50.15
 11
-45.3875
 21
-64.15
  0
LINE
  8
0
 10
-45.3875
 20
-64.15
 11
-59.3875
 21
-64.15
  0
LINE
  8
0
 10
-130.825
 20
-83.2
 11
-130.825
 21
-69.2
  0
LINE
  8
0
 10
-130.825
 20
-69.2
 11
-120.58
 21
-69.2
  0
LINE
  8
0
 10
-120.58
 20
-69.2
 11
-121.184
 21
-68.7963
  0
LINE
  8
0
 10
-121.184
 20
-68.7963
 11
-121.834
 21
-67.823
  0
LINE
  8
0
 10
-121.834
 20
-67.823
 11
-122.062
 21
-66.675
  0
LINE
  8
0
 10
-122.062
 20
-66.675
 11
-121.834
 21
-65.5269
  0
LINE
  8
0
 10
-121.834
 20
-65.5269
 11
-121.184
 21
-64.5537
  0
LINE
  8
0
 10
-121.184
 20
-64.5537
 11
-120.211
 21
-63.9034
  0
LINE
  8
0
 10
-120.211
 20
-63.9034
 11
-119.062
 21
-63.675
  0
LINE
  8
0
 10
-119.062
 20
-63.675
 11
-117.914
 21
-63.9034
  0
LINE
  8
0
 10
-117.914
 20
-63.9034
 11
-116.941
 21
-64.5537
  0
LINE
  8
0
 10
-116.941
 20
-64.5537
 11
-116.291
 21
-65.5269
  0
LINE
  8
0
 10
-116.291
 20
-65.5269
 11
-116.062
 21
-66.675
  0
LINE
  8
0
 10
-116.062
 20
-66.675
 11
-116.291
 21
-67.823
  0
LINE
  8
0
 10
-116.291
 20
-67.823
 11
-116.941
 21
-68.7963
  0
LINE
  8
0
 10
-116.941
 20
-68.7963
 11
-117.545
 21
-69.2
  0
LINE
  8
0
 10
-117.545
 20
-69.2
 11
-116.825
 21
-69.2
  0
LINE
  8
0
 10
-116.825
 20
-69.2
 11
-116.825
 21
-83.2
  0
LINE
  8
0
 10
-116.825
 20
-83.2
 11
-130.825
 21
-83.2
  0
LINE
  8
0
 10
-54.625
 20
-83.2
 11
-54.625
 21
-69.2
  0
LINE
  8
0
 10
-54.625
 20
-69.2
 11
-44.3797
 21
-69.2
  0
LINE
  8
0
 10
-44.3797
 20
-69.2
 11
-44.9838
 21
-68.7963
  0
LINE
  8
0
 10
-44.9838
 20
-68.7963
 11
-45.6341
 21
-67.823
  0
LINE
  8
0
 10
-45.6341
 20
-67.823
 11
-45.8625
 21
-66.675
  0
LINE
  8
0
 10
-45.8625
 20
-66.675
 11
-45.6341
 21
-65.5269
  0
LINE
  8
0
 10
-45.6341
 20
-65.5269
 11
-44.9838
 21
-64.5537
  0
LINE
  8
0
 10
-44.9838
 20
-64.5537
 11
-44.0105
 21
-63.9034
  0
LINE
  8
0
 10
-44.0105
 20
-63.9034
 11
-42.8625
 21
-63.675
  0
LINE
  8
0
 10
-42.8625
 20
-63.675
 11
-41.7144
 21
-63.9034
  0
LINE
  8
0
 10
-41.7144
 20
-63.9034
 11
-40.7412
 21
-64.5537
  0
LINE
  8
0
 10
-40.7412
 20
-64.5537
 11
-40.0909
 21
-65.5269
  0
LINE
  8
0
 10
-40.0909
 20
-65.5269
 11
-39.8625
 21
-66.675
  0
LINE
  8
0
 10
-39.8625
 20
-66.675
 11
-40.0909
 21
-67.823
  0
LINE
  8
0
 10
-40.0909
 20
-67.823
 11
-40.7412
 21
-68.7963
  0
LINE
  8
0
 10
-40.7412
 20
-68.7963
 11
-41.3453
 21
-69.2
  0
LINE
  8
0
 10
-41.3453
 20
-69.2
 11
-40.625
 21
-69.2
  0
LINE
  8
0
 10
-40.625
 20
-69.2
 11
-40.625
 21
-83.2
  0
LINE
  8
0
 10
-40.625
 20
-83.2
 11
-54.625
 21
-83.2
  0
LINE
  8
0
 10
-104.631
 20
-83.2
 11
-104.631
 21
-69.2
  0
LINE
  8
0
 10
-104.631
 20
-69.2
 11
-90.6312
 21
-69.2
  0
LINE
  8
0
 10
-90.6312
 20
-69.2
 11
-90.6312
 21
-83.2
  0
LINE
  8
0
 10
-90.6312
 20
-83.2
 11
-104.631
 21
-83.2
  0
LINE
  8
0
 10
-78.4375
 20
-83.2
 11
-78.4375
 21
-69.2
  0
LINE
  8
0
 10
-78.4375
 20
-69.2
 11
-64.4375
 21
-69.2
  0
LINE
  8
0
 10
-64.4375
 20
-69.2
 11
-64.4375
 21
-83.2
  0
LINE
  8
0
 10
-64.4375
 20
-83.2
 11
-78.4375
 21
-83.2
  0
ENDSEC
  0
SECTION
  2
OBJECTS
  0
DICTIONARY
  0
ENDSEC
  0
EOF
